<?xml version="1.0" encoding="utf-8"?>
<!-- Generator: Adobe Illustrator 15.0.2, SVG Export Plug-In . SVG Version: 6.00 Build 0)  -->
<!DOCTYPE svg PUBLIC "-//W3C//DTD SVG 1.1//EN" "http://www.w3.org/Graphics/SVG/1.1/DTD/svg11.dtd">
<svg version="1.1" id="Layer_2" xmlns="http://www.w3.org/2000/svg" xmlns:xlink="http://www.w3.org/1999/xlink" x="0px" y="0px"
	 width="662.333px" height="102.587px" viewBox="0 0 662.333 102.587" enable-background="new 0 0 662.333 102.587"
	 xml:space="preserve">
<g>
	<polygon fill="#B31F24" points="54.095,5.761 54.095,20.362 97.167,20.362 97.167,15.571 59.917,15.571 59.917,11.248 
		97.167,11.248 97.167,5.761 	"/>
	<polygon fill="#B31F24" points="44.567,96.826 49.408,96.826 49.408,74.758 44.567,75.755 	"/>
	<polygon fill="#B31F24" points="54.532,96.826 60.282,96.826 60.282,62.05 76.907,62.05 76.907,31.761 81.767,31.761 
		81.767,54.706 97.167,54.706 97.167,25.511 91.405,25.511 91.405,49.761 86.376,49.761 86.376,25.511 71.228,25.511 71.228,55.991 
		54.532,55.991 	"/>
	<polygon fill="#B31F24" points="6.167,96.826 39.595,96.826 39.595,87.3 6.167,95.503 	"/>
	<polygon fill="#B31F24" points="65.345,96.826 65.345,86.878 82.407,86.878 88.263,96.826 76.804,96.826 76.804,90.881 
		73.595,90.881 73.595,96.826 	"/>
	<polygon fill="#B31F24" points="6.167,23.511 11.876,23.511 11.876,34.987 66.247,34.987 66.247,40.8 11.876,40.8 11.876,53.511 
		6.167,53.511 	"/>
	<polygon fill="#B31F24" points="6.167,58.675 11.876,58.675 11.876,83.737 39.595,77.112 39.595,82.671 6.167,90.841 	"/>
	<polyline fill="#B31F24" points="97.167,96.826 94.282,96.826 85.663,82.017 65.267,82.017 65.267,67.05 81.767,67.05 81.767,59.8 
		97.167,59.8 97.167,71.472 91.923,71.472 91.923,65.261 86.845,65.261 86.845,71.472 71.417,71.472 71.417,76.534 97.167,76.534 
		97.167,82.017 93.333,82.017 93.333,86.878 97.167,86.878 	"/>
	<polygon fill="#B31F24" points="17.179,77.3 22.642,75.862 22.642,51.011 66.247,51.011 66.247,45.737 17.179,45.737 	"/>
	<polygon fill="#B31F24" points="27.658,74.758 49.408,69.456 49.408,55.991 27.658,55.991 27.658,64.362 43.97,60.769 
		45.033,65.737 27.658,69.487 	"/>
	<rect x="6.167" y="5.761" fill="#B31F24" width="5.71" height="12.727"/>
	<polygon fill="#B31F24" points="27.667,21.071 27.667,15.571 37.887,15.571 37.887,29.946 17.179,29.946 17.179,5.761 
		49.304,5.761 49.304,25.511 66.247,25.511 66.247,29.946 42.97,29.946 42.97,11.248 22.667,11.248 22.667,25.511 32.667,25.511 
		32.667,21.071 	"/>
</g>
<g>
	<path fill="#FFFFFF" d="M219.965,38.19c-1.252-3.249-3.326-6.424-6.225-9.525c-2.502-2.7-4.5-4.875-6-6.525
		c-1.5-1.65-2.65-3-3.451-4.05c-0.801-1.05-1.326-1.849-1.574-2.4c-0.25-0.548-0.375-1.073-0.375-1.575c0-0.9,0.648-1.898,1.949-3
		c1.299-1.099,2.9-1.65,4.801-1.65c0.301,0,0.623,0.075,0.975,0.225c0.35,0.15,0.998,0.6,1.951,1.35
		c0.949,0.75,2.273,1.901,3.975,3.45c1.699,1.552,3.998,3.727,6.9,6.525c7.898,7.701,15.172,14.451,21.824,20.25
		c6.648,5.801,13.174,11.051,19.574,15.75c6.398,4.701,12.875,9.025,19.426,12.975c6.549,3.952,13.674,7.927,21.375,11.925
		c0.199-2.198,0.375-4.148,0.525-5.85c0.148-1.699,0.273-3.3,0.375-4.8c0.098-1.5,0.172-3.023,0.225-4.575
		c0.049-1.549,0.074-3.225,0.074-5.025c0-6.6-0.1-12.649-0.299-18.149c-0.203-5.499-0.402-11.1-0.602-16.8
		c-0.1-1.999-0.4-3.6-0.898-4.8c-0.502-1.2-1.027-2.199-1.576-3c-0.551-0.799-1.049-1.5-1.5-2.1c-0.449-0.6-0.674-1.298-0.674-2.1
		c0-0.9,0.398-1.65,1.199-2.25c0.799-0.6,1.773-1.073,2.926-1.425c1.148-0.349,2.348-0.624,3.6-0.825
		c1.248-0.199,2.324-0.3,3.225-0.3c1.1,0,2.199,0.176,3.301,0.525c1.098,0.352,1.648,1.177,1.648,2.475
		c0,0.801-0.125,1.901-0.375,3.3c-0.25,1.402-0.551,3.876-0.898,7.425c-0.352,3.551-0.652,8.602-0.9,15.15
		c-0.252,6.551-0.375,15.426-0.375,26.625c0,3.401,0.074,6.375,0.225,8.926c0.15,2.55,0.35,4.8,0.6,6.75
		c0.248,1.949,0.451,3.675,0.6,5.175c0.15,1.5,0.227,2.95,0.227,4.35c0,1.301-0.402,2.452-1.201,3.45
		c-0.801,1.001-1.725,1.826-2.775,2.475c-1.049,0.649-2.125,1.125-3.225,1.426c-1.102,0.3-2.002,0.449-2.699,0.449
		c-0.6,0-1.125-0.426-1.576-1.274c-0.449-0.849-0.975-1.85-1.574-3c-0.6-1.148-1.326-2.374-2.176-3.675
		c-0.85-1.299-2.023-2.4-3.523-3.301c-8.002-4.598-14.951-8.625-20.85-12.074c-5.902-3.45-11.002-6.5-15.301-9.15
		c-4.301-2.648-7.949-4.974-10.949-6.975c-3-2-5.625-3.849-7.875-5.55c-2.25-1.699-4.275-3.324-6.076-4.875
		c-1.799-1.549-3.6-3.173-5.4-4.875c-0.299,2.201-0.576,5.201-0.824,9c-0.25,3.801-0.525,7.926-0.824,12.375
		c-0.301,4.451-0.676,8.926-1.125,13.426c-0.451,4.5-1.027,8.55-1.727,12.149c-0.5,2.302-1.301,4.001-2.398,5.101
		c-1.102,1.099-2.25,1.649-3.451,1.649c-0.502,0-1.125-0.101-1.875-0.3c-0.75-0.201-1.451-0.502-2.1-0.9
		c-0.652-0.398-1.199-0.848-1.65-1.35c-0.449-0.499-0.674-1.05-0.674-1.65c0-0.998,0.424-2.523,1.273-4.574
		c0.85-2.049,1.75-4.801,2.701-8.25c0.949-3.45,1.85-7.65,2.699-12.601s1.275-10.774,1.275-17.475
		C221.84,45.465,221.215,41.441,219.965,38.19z"/>
	<path fill="#FFFFFF" d="M341.238,40.365c1.4-5.1,3.65-9.75,6.75-13.95c3.1-4.2,7.074-7.625,11.926-10.275
		c4.85-2.648,10.725-3.975,17.625-3.975c3.998,0,7.801,0.776,11.4,2.325c3.6,1.552,6.75,3.952,9.449,7.2
		c2.701,3.251,4.85,7.401,6.451,12.45c1.598,5.051,2.398,11.025,2.398,17.925c0,6.6-1.025,12.45-3.074,17.55
		c-2.051,5.101-4.777,9.375-8.176,12.825c-3.4,3.45-7.273,6.075-11.625,7.875c-4.35,1.8-8.875,2.7-13.574,2.7
		c-3.701,0-7.451-0.8-11.25-2.4c-3.801-1.599-7.199-3.975-10.199-7.125c-3-3.149-5.453-7.073-7.352-11.774
		c-1.9-4.699-2.85-10.148-2.85-16.351C339.139,50.467,339.838,45.465,341.238,40.365z M350.988,60.766
		c0.699,3.4,1.975,6.775,3.826,10.125c1.85,3.352,4.373,6.276,7.574,8.774c3.199,2.501,7.299,3.75,12.301,3.75
		c2.1,0,4.447-0.398,7.049-1.199c2.6-0.8,5.074-2.3,7.426-4.5c2.348-2.199,4.299-5.225,5.85-9.075
		c1.549-3.849,2.326-8.775,2.326-14.775c0-6.199-0.652-11.4-1.951-15.6c-1.301-4.2-3-7.575-5.1-10.125
		c-2.1-2.55-4.5-4.399-7.199-5.55c-2.701-1.148-5.502-1.725-8.4-1.725c-3.9,0-7.402,0.877-10.5,2.625
		c-3.102,1.751-5.701,4.076-7.801,6.975c-2.1,2.902-3.701,6.3-4.799,10.2c-1.102,3.9-1.65,8.001-1.65,12.3
		C349.939,54.766,350.289,57.367,350.988,60.766z"/>
	<path fill="#FFFFFF" d="M425.762,87.841c0.451-0.45,0.924-0.676,1.426-0.676c1.398,0,3.049,0.477,4.949,1.426
		c1.898,0.951,4.25,1.425,7.051,1.425c2.699,0,4.875-0.924,6.525-2.775c1.648-1.849,2.475-3.874,2.475-6.075
		c0-1.999-0.477-4.35-1.426-7.05c-0.951-2.7-2.125-5.573-3.525-8.625c-1.4-3.049-2.924-6.199-4.574-9.45
		c-1.65-3.248-3.176-6.398-4.574-9.45c-1.402-3.049-2.576-5.925-3.525-8.625c-0.951-2.7-1.426-4.999-1.426-6.9
		c0-1.699,0.676-4.125,2.025-7.275s3.15-6.324,5.4-9.525c2.25-3.199,4.85-5.975,7.799-8.325c2.949-2.349,6.023-3.525,9.227-3.525
		c0.697,0,1.725,0.075,3.074,0.225c1.35,0.15,2.674,0.4,3.975,0.75c1.299,0.352,2.449,0.801,3.451,1.35
		c0.998,0.551,1.5,1.226,1.5,2.025c0,2.001-0.375,3.3-1.125,3.9s-2.527,0.952-5.326,1.05c-6.6,0.202-11.35,1.725-14.25,4.575
		s-4.35,6.375-4.35,10.575c0,2.602,0.848,5.876,2.551,9.825c1.699,3.952,3.574,8.201,5.625,12.75
		c2.047,4.552,3.922,9.251,5.625,14.1c1.699,4.852,2.549,9.477,2.549,13.875c0,0.802-0.25,2.452-0.75,4.95
		c-0.502,2.501-1.424,5.077-2.775,7.726c-1.35,2.65-3.148,5.024-5.398,7.125c-2.25,2.1-5.176,3.149-8.775,3.149
		c-0.9,0-2.051-0.149-3.451-0.45c-1.4-0.3-2.773-0.7-4.125-1.199c-1.35-0.502-2.549-1.027-3.6-1.575
		c-1.049-0.551-1.676-1.073-1.875-1.575c-0.299-0.9-0.551-1.774-0.75-2.625c-0.201-0.849-0.299-1.774-0.299-2.775
		C425.088,89.066,425.313,88.29,425.762,87.841z"/>
	<path fill="#FFFFFF" d="M476.611,87.841c0.449-0.45,0.922-0.676,1.424-0.676c1.4,0,3.049,0.477,4.951,1.426
		c1.898,0.951,4.248,1.425,7.049,1.425c2.701,0,4.875-0.924,6.525-2.775c1.65-1.849,2.475-3.874,2.475-6.075
		c0-1.999-0.475-4.35-1.424-7.05c-0.953-2.7-2.127-5.573-3.525-8.625c-1.402-3.049-2.926-6.199-4.576-9.45
		c-1.648-3.248-3.176-6.398-4.574-9.45c-1.402-3.049-2.576-5.925-3.525-8.625c-0.951-2.7-1.424-4.999-1.424-6.9
		c0-1.699,0.674-4.125,2.023-7.275c1.352-3.15,3.15-6.324,5.4-9.525c2.25-3.199,4.85-5.975,7.801-8.325
		c2.947-2.349,6.023-3.525,9.225-3.525c0.699,0,1.725,0.075,3.074,0.225c1.352,0.15,2.676,0.4,3.977,0.75
		c1.297,0.352,2.449,0.801,3.449,1.35c0.998,0.551,1.5,1.226,1.5,2.025c0,2.001-0.375,3.3-1.125,3.9s-2.527,0.952-5.324,1.05
		c-6.602,0.202-11.352,1.725-14.25,4.575c-2.902,2.85-4.352,6.375-4.352,10.575c0,2.602,0.85,5.876,2.551,9.825
		c1.699,3.952,3.574,8.201,5.625,12.75c2.049,4.552,3.924,9.251,5.625,14.1c1.699,4.852,2.551,9.477,2.551,13.875
		c0,0.802-0.252,2.452-0.75,4.95c-0.502,2.501-1.426,5.077-2.775,7.726c-1.35,2.65-3.15,5.024-5.4,7.125
		c-2.25,2.1-5.176,3.149-8.775,3.149c-0.9,0-2.051-0.149-3.449-0.45c-1.402-0.3-2.775-0.7-4.125-1.199
		c-1.35-0.502-2.551-1.027-3.6-1.575c-1.051-0.551-1.676-1.073-1.875-1.575c-0.301-0.9-0.551-1.774-0.75-2.625
		c-0.203-0.849-0.301-1.774-0.301-2.775C475.936,89.066,476.16,88.29,476.611,87.841z"/>
	<path fill="#FFFFFF" d="M529.934,40.365c1.4-5.1,3.65-9.75,6.75-13.95c3.1-4.2,7.074-7.625,11.926-10.275
		c4.85-2.648,10.725-3.975,17.625-3.975c3.998,0,7.801,0.776,11.4,2.325c3.6,1.552,6.75,3.952,9.449,7.2
		c2.701,3.251,4.85,7.401,6.451,12.45c1.598,5.051,2.398,11.025,2.398,17.925c0,6.6-1.025,12.45-3.074,17.55
		c-2.051,5.101-4.777,9.375-8.176,12.825c-3.4,3.45-7.273,6.075-11.625,7.875c-4.35,1.8-8.875,2.7-13.574,2.7
		c-3.701,0-7.451-0.8-11.25-2.4c-3.801-1.599-7.199-3.975-10.199-7.125c-3-3.149-5.453-7.073-7.352-11.774
		c-1.9-4.699-2.85-10.148-2.85-16.351C527.834,50.467,528.533,45.465,529.934,40.365z M539.684,60.766
		c0.699,3.4,1.975,6.775,3.826,10.125c1.85,3.352,4.373,6.276,7.574,8.774c3.199,2.501,7.299,3.75,12.301,3.75
		c2.1,0,4.447-0.398,7.049-1.199c2.6-0.8,5.074-2.3,7.426-4.5c2.348-2.199,4.299-5.225,5.85-9.075
		c1.549-3.849,2.326-8.775,2.326-14.775c0-6.199-0.652-11.4-1.951-15.6c-1.301-4.2-3-7.575-5.1-10.125
		c-2.1-2.55-4.5-4.399-7.199-5.55c-2.701-1.148-5.502-1.725-8.4-1.725c-3.9,0-7.402,0.877-10.5,2.625
		c-3.102,1.751-5.701,4.076-7.801,6.975c-2.1,2.902-3.701,6.3-4.799,10.2c-1.102,3.9-1.65,8.001-1.65,12.3
		C538.635,54.766,538.984,57.367,539.684,60.766z"/>
	<path fill="#FFFFFF" d="M614.457,87.841c0.451-0.45,0.924-0.676,1.426-0.676c1.398,0,3.049,0.477,4.949,1.426
		c1.898,0.951,4.25,1.425,7.051,1.425c2.699,0,4.875-0.924,6.525-2.775c1.648-1.849,2.475-3.874,2.475-6.075
		c0-1.999-0.477-4.35-1.426-7.05c-0.951-2.7-2.125-5.573-3.525-8.625c-1.4-3.049-2.924-6.199-4.574-9.45
		c-1.65-3.248-3.176-6.398-4.574-9.45c-1.402-3.049-2.576-5.925-3.525-8.625c-0.951-2.7-1.426-4.999-1.426-6.9
		c0-1.699,0.676-4.125,2.025-7.275s3.15-6.324,5.4-9.525c2.25-3.199,4.85-5.975,7.799-8.325c2.949-2.349,6.023-3.525,9.227-3.525
		c0.697,0,1.725,0.075,3.074,0.225c1.35,0.15,2.674,0.4,3.975,0.75c1.299,0.352,2.449,0.801,3.451,1.35
		c0.998,0.551,1.5,1.226,1.5,2.025c0,2.001-0.375,3.3-1.125,3.9s-2.527,0.952-5.326,1.05c-6.6,0.202-11.35,1.725-14.25,4.575
		s-4.35,6.375-4.35,10.575c0,2.602,0.848,5.876,2.551,9.825c1.699,3.952,3.574,8.201,5.625,12.75
		c2.047,4.552,3.922,9.251,5.625,14.1c1.699,4.852,2.549,9.477,2.549,13.875c0,0.802-0.25,2.452-0.75,4.95
		c-0.502,2.501-1.424,5.077-2.775,7.726c-1.35,2.65-3.148,5.024-5.398,7.125c-2.25,2.1-5.176,3.149-8.775,3.149
		c-0.9,0-2.051-0.149-3.451-0.45c-1.4-0.3-2.773-0.7-4.125-1.199c-1.35-0.502-2.549-1.027-3.6-1.575
		c-1.049-0.551-1.676-1.073-1.875-1.575c-0.299-0.9-0.551-1.774-0.75-2.625c-0.201-0.849-0.299-1.774-0.299-2.775
		C613.783,89.066,614.008,88.29,614.457,87.841z"/>
	<path fill="#FFFFFF" d="M196.717,87.766c-0.451-0.499-1.377-0.849-2.775-1.05c-2.303-0.398-4.777-1.426-7.426-3.075
		c-2.65-1.65-5.35-3.601-8.1-5.851c-2.752-2.25-5.5-4.673-8.25-7.274c-2.752-2.6-5.351-4.999-7.8-7.2
		c-2.452-2.198-4.726-4.05-6.825-5.55s-3.9-2.349-5.4-2.55v-0.301c1.801-0.998,4.125-2.774,6.976-5.325
		c2.851-2.55,5.899-5.4,9.149-8.55c3.249-3.15,6.525-6.349,9.826-9.6c3.299-3.249,6.299-6.023,9-8.325
		c0.697-0.6,1.574-1.099,2.625-1.5c1.049-0.398,2.047-0.75,3-1.05c0.949-0.3,1.773-0.624,2.475-0.975
		c0.697-0.349,1.049-0.773,1.049-1.275c0-0.3-0.375-0.874-1.125-1.725c-0.75-0.848-1.625-1.725-2.625-2.625s-2.023-1.699-3.074-2.4
		c-1.051-0.698-1.875-1.05-2.475-1.05c-0.502,0-1.875,1.076-4.125,3.225c-2.25,2.152-4.927,4.8-8.025,7.95
		c-3.101,3.15-6.426,6.6-9.975,10.35c-3.551,3.75-6.877,7.2-9.975,10.35c-3.102,3.15-5.775,5.801-8.025,7.95
		c-2.25,2.152-3.626,3.225-4.125,3.225c-0.6,0-0.975-0.249-1.125-0.75c-0.15-0.499-0.225-1.298-0.225-2.4
		c0-1.298,0.023-2.7,0.074-4.2c0.049-1.5,0.734-18.89,0.885-21.74c0.15-2.85,0.526-6.373,0.535-6.479
		c0.642-8.125,2.638-8.313,0.285-10.688c-4.166-4.205-13.761,0.313-17.041,3.25c-2.795,2.503,3.066,4.125,4.207,8l0.133,0.422
		c1.667,8.75,1.396,18.886,1.547,24.084c0.149,5.201,0.225,10.401,0.225,15.6c0,3.502-0.052,7.051-0.15,10.65
		c-0.101,3.6-0.225,7.001-0.375,10.2c-0.15,3.201-0.3,6.052-0.449,8.55c-0.15,2.501-0.226,4.401-0.226,5.7
		c0,1.102,0.499,1.976,1.5,2.625c0.999,0.649,1.749,0.975,2.25,0.975c0.3,0,0.8-0.101,1.5-0.3c0.698-0.201,1.374-0.476,2.024-0.825
		c0.65-0.349,1.25-0.773,1.801-1.274c0.549-0.5,0.824-1.051,0.824-1.65v-10.95c0-3.499,0.023-7.05,0.076-10.649
		c0.049-3.601,0.123-7.2,0.225-10.801c0.398-0.098,0.9-0.199,1.5-0.3c0.6-0.099,1.398-0.149,2.4-0.149
		c0.697,0,1.474,0.225,2.324,0.675c0.849,0.45,2.149,1.425,3.9,2.925c1.748,1.5,4.125,3.651,7.125,6.45
		c3,2.801,6.949,6.501,11.85,11.1c2,1.901,3.875,3.727,5.625,5.476c1.748,1.75,3.324,3.3,4.725,4.649
		c1.4,1.351,2.625,2.452,3.676,3.3c1.049,0.852,1.875,1.275,2.475,1.275s1.574-0.225,2.926-0.675c1.35-0.45,2.748-0.999,4.199-1.65
		c1.449-0.649,2.723-1.35,3.824-2.1c1.1-0.75,1.65-1.374,1.65-1.875C197.391,89.017,197.166,88.267,196.717,87.766z"/>
</g>
</svg>
