<?xml version="1.0" encoding="UTF-8" standalone="no"?>
<!-- Created with Inkscape (http://www.inkscape.org/) -->

<svg
   xmlns:dc="http://purl.org/dc/elements/1.1/"
   xmlns:cc="http://creativecommons.org/ns#"
   xmlns:rdf="http://www.w3.org/1999/02/22-rdf-syntax-ns#"
   xmlns:svg="http://www.w3.org/2000/svg"
   xmlns="http://www.w3.org/2000/svg"
   xmlns:sodipodi="http://sodipodi.sourceforge.net/DTD/sodipodi-0.dtd"
   xmlns:inkscape="http://www.inkscape.org/namespaces/inkscape"
   id="svg2"
   version="1.1"
   inkscape:version="0.48.2 r9819"
   width="30"
   height="30.021461"
   xml:space="preserve"
   sodipodi:docname="toggle.svg"><metadata
     id="metadata8"><rdf:RDF><cc:Work
         rdf:about=""><dc:format>image/svg+xml</dc:format><dc:type
           rdf:resource="http://purl.org/dc/dcmitype/StillImage" /><dc:title /></cc:Work></rdf:RDF></metadata><defs
     id="defs6" /><sodipodi:namedview
     pagecolor="#ffffff"
     bordercolor="#666666"
     borderopacity="1"
     objecttolerance="10"
     gridtolerance="10"
     guidetolerance="10"
     inkscape:pageopacity="0"
     inkscape:pageshadow="2"
     inkscape:window-width="1056"
     inkscape:window-height="831"
     id="namedview4"
     showgrid="false"
     inkscape:zoom="16.853859"
     inkscape:cx="13.082299"
     inkscape:cy="8.3143589"
     inkscape:window-x="75"
     inkscape:window-y="44"
     inkscape:window-maximized="0"
     inkscape:current-layer="g10"
     fit-margin-top="0"
     fit-margin-left="0"
     fit-margin-right="0"
     fit-margin-bottom="0" /><g
     id="g10"
     inkscape:groupmode="layer"
     inkscape:label="Knossos Logo v5"
     transform="matrix(1.25,0,0,-1.25,-0.24096986,29.783889)"><g
       id="g3018"
       transform="matrix(1.5944658,0,0,1.5944658,-0.56870453,0.03729848)"><g
         style="fill:#9e0c39;fill-opacity:1"
         transform="matrix(0.16540511,0,0,0.16540511,8.4052286,14.920108)"
         id="g12"><path
           inkscape:connector-curvature="0"
           id="path14"
           style="fill:#9e0c39;fill-opacity:1;fill-rule:nonzero;stroke:none"
           d="m 0,0 0,-14.602 43.072,0 0,4.792 -37.25,0 0,4.323 37.25,0 0,5.487 L 0,0 z" /></g><g
         style="fill:#9e0c39;fill-opacity:1"
         transform="matrix(0.16540511,0,0,0.16540511,6.8292821,-0.14259078)"
         id="g16"><path
           inkscape:connector-curvature="0"
           id="path18"
           style="fill:#9e0c39;fill-opacity:1;fill-rule:nonzero;stroke:none"
           d="m 0,0 4.841,0 0,22.068 L 0,21.071 0,0 z" /></g><g
         style="fill:#9e0c39;fill-opacity:1"
         transform="matrix(0.16540511,0,0,0.16540511,8.4775934,-0.14259078)"
         id="g20"><path
           inkscape:connector-curvature="0"
           id="path22"
           style="fill:#9e0c39;fill-opacity:1;fill-rule:nonzero;stroke:none"
           d="m 0,0 5.75,0 0,34.776 16.625,0 0,30.289 4.859,0 0,-22.945 15.401,0 0,29.195 -5.762,0 0,-24.25 -5.029,0 0,24.25 -15.149,0 0,-30.48 L 0,40.835 0,0 z" /></g><g
         style="fill:#9e0c39;fill-opacity:1"
         transform="matrix(0.16540511,0,0,0.16540511,0.47765983,-0.14259078)"
         id="g24"><path
           inkscape:connector-curvature="0"
           id="path26"
           style="fill:#9e0c39;fill-opacity:1;fill-rule:nonzero;stroke:none"
           d="m 0,0 33.429,0 0,9.526 L 0,1.323 0,0 z" /></g><g
         style="fill:#9e0c39;fill-opacity:1"
         transform="matrix(0.16540511,0,0,0.16540511,10.266036,-0.14259078)"
         id="g28"><path
           inkscape:connector-curvature="0"
           id="path30"
           style="fill:#9e0c39;fill-opacity:1;fill-rule:nonzero;stroke:none"
           d="m 0,0 0,9.948 17.063,0 L 22.918,0 11.459,0 l 0,5.945 -3.209,0 L 8.25,0 0,0 z" /></g><g
         style="fill:#9e0c39;fill-opacity:1"
         transform="matrix(0.16540511,0,0,0.16540511,0.47765983,11.984167)"
         id="g32"><path
           inkscape:connector-curvature="0"
           id="path34"
           style="fill:#9e0c39;fill-opacity:1;fill-rule:nonzero;stroke:none"
           d="m 0,0 5.71,0 0,-11.477 54.371,0 0,-5.812 -54.371,0 L 5.71,-30 0,-30 0,0 z" /></g><g
         style="fill:#9e0c39;fill-opacity:1"
         transform="matrix(0.16540511,0,0,0.16540511,0.47765983,6.1678453)"
         id="g36"><path
           inkscape:connector-curvature="0"
           id="path38"
           style="fill:#9e0c39;fill-opacity:1;fill-rule:nonzero;stroke:none"
           d="m 0,0 5.71,0 0,-25.063 27.719,6.625 0,-5.558 L 0,-32.166 0,0 z" /></g><g
         style="fill:#9e0c39;fill-opacity:1"
         transform="matrix(0.16540511,0,0,0.16540511,15.529607,-0.14259078)"
         id="g40"><path
           inkscape:connector-curvature="0"
           id="path42"
           style="fill:#9e0c39;fill-opacity:1;fill-rule:nonzero;stroke:none"
           d="m 0,0 -2.885,0 -8.619,14.81 -20.396,0 0,14.966 16.5,0 0,7.25 15.4,0 0,-11.672 -5.244,0 0,6.211 -5.078,0 0,-6.211 -15.428,0 0,-5.062 25.75,0 0,-5.482 -3.834,0 0,-4.862 3.834,0" /></g><g
         style="fill:#9e0c39;fill-opacity:1"
         transform="matrix(0.16540511,0,0,0.16540511,2.299134,3.0871756)"
         id="g44"><path
           inkscape:connector-curvature="0"
           id="path46"
           style="fill:#9e0c39;fill-opacity:1;fill-rule:nonzero;stroke:none"
           d="m 0,0 5.463,1.438 0,24.851 43.605,0 0,5.274 L 0,31.563 0,0 z" /></g><g
         style="fill:#9e0c39;fill-opacity:1"
         transform="matrix(0.16540511,0,0,0.16540511,4.0324141,3.5076351)"
         id="g48"><path
           inkscape:connector-curvature="0"
           id="path50"
           style="fill:#9e0c39;fill-opacity:1;fill-rule:nonzero;stroke:none"
           d="m 0,0 21.75,5.302 0,13.465 -21.75,0 0,-8.371 16.313,3.593 L 17.375,9.021 0,5.271 0,0 z" /></g><path
         inkscape:connector-curvature="0"
         id="path52"
         style="fill:#9e0c39;fill-opacity:1;fill-rule:nonzero;stroke:none"
         d="m 1.4220403,12.815129 -0.94446316,0 0,2.105111 0.94446316,0 0,-2.105111 z" /><path
         d="m 4.0338696,12.387739 0,0.909728 1.6904399,0 0,-2.377699 -3.4252086,0 0,4.000323 5.3136391,0 0,-3.26675 2.802624,0 0,-0.733573 -3.8501349,0 0,3.092745 -3.3583851,0 0,-2.359172 1.6540508,0 0,0.734398 -0.8270252,0 z"
         style="fill:#9e0c39;fill-opacity:1;fill-rule:nonzero;stroke:none"
         id="path56"
         inkscape:connector-curvature="0" /></g></g></svg>