<?xml version="1.0" encoding="UTF-8" standalone="no"?>
<!-- Created with Inkscape (http://www.inkscape.org/) -->

<svg
   xmlns:dc="http://purl.org/dc/elements/1.1/"
   xmlns:cc="http://creativecommons.org/ns#"
   xmlns:rdf="http://www.w3.org/1999/02/22-rdf-syntax-ns#"
   xmlns:svg="http://www.w3.org/2000/svg"
   xmlns="http://www.w3.org/2000/svg"
   xmlns:sodipodi="http://sodipodi.sourceforge.net/DTD/sodipodi-0.dtd"
   xmlns:inkscape="http://www.inkscape.org/namespaces/inkscape"
   id="svg2"
   version="1.1"
   inkscape:version="0.48.2 r9819"
   width="129.16625"
   height="128.23375"
   xml:space="preserve"
   sodipodi:docname="Knossos Logo v6.svg"><metadata
     id="metadata8"><rdf:RDF><cc:Work
         rdf:about=""><dc:format>image/svg+xml</dc:format><dc:type
           rdf:resource="http://purl.org/dc/dcmitype/StillImage" /><dc:title></dc:title></cc:Work></rdf:RDF></metadata><defs
     id="defs6" /><sodipodi:namedview
     pagecolor="#ffffff"
     bordercolor="#666666"
     borderopacity="1"
     objecttolerance="10"
     gridtolerance="10"
     guidetolerance="10"
     inkscape:pageopacity="0"
     inkscape:pageshadow="2"
     inkscape:window-width="1565"
     inkscape:window-height="932"
     id="namedview4"
     showgrid="false"
     inkscape:zoom="1.8403891"
     inkscape:cx="-54.956814"
     inkscape:cy="64.116875"
     inkscape:window-x="0"
     inkscape:window-y="0"
     inkscape:window-maximized="0"
     inkscape:current-layer="g10" /><g
     id="g10"
     inkscape:groupmode="layer"
     inkscape:label="Knossos Logo v5"
     transform="matrix(1.25,0,0,-1.25,0,128.23375)"><g
       id="g12"
       transform="translate(54.0947,96.8262)"
       style="fill:#9e0c39;fill-opacity:1"><path
         d="m 0,0 0,-14.602 43.072,0 0,4.792 -37.25,0 0,4.323 37.25,0 0,5.487 L 0,0 z"
         style="fill:#9e0c39;fill-opacity:1;fill-rule:nonzero;stroke:none"
         id="path14" /></g><g
       id="g16"
       transform="translate(44.5669,5.7607)"
       style="fill:#9e0c39;fill-opacity:1"><path
         d="m 0,0 4.841,0 0,22.068 L 0,21.071 0,0 z"
         style="fill:#9e0c39;fill-opacity:1;fill-rule:nonzero;stroke:none"
         id="path18" /></g><g
       id="g20"
       transform="translate(54.5322,5.7607)"
       style="fill:#9e0c39;fill-opacity:1"><path
         d="m 0,0 5.75,0 0,34.776 16.625,0 0,30.289 4.859,0 0,-22.945 15.401,0 0,29.195 -5.762,0 0,-24.25 -5.029,0 0,24.25 -15.149,0 0,-30.48 L 0,40.835 0,0 z"
         style="fill:#9e0c39;fill-opacity:1;fill-rule:nonzero;stroke:none"
         id="path22" /></g><g
       id="g24"
       transform="translate(6.1665,5.7607)"
       style="fill:#9e0c39;fill-opacity:1"><path
         d="m 0,0 33.429,0 0,9.526 L 0,1.323 0,0 z"
         style="fill:#9e0c39;fill-opacity:1;fill-rule:nonzero;stroke:none"
         id="path26" /></g><g
       id="g28"
       transform="translate(65.3447,5.7607)"
       style="fill:#9e0c39;fill-opacity:1"><path
         d="m 0,0 0,9.948 17.063,0 L 22.918,0 11.459,0 l 0,5.945 -3.209,0 L 8.25,0 0,0 z"
         style="fill:#9e0c39;fill-opacity:1;fill-rule:nonzero;stroke:none"
         id="path30" /></g><g
       id="g32"
       transform="translate(6.1665,79.0762)"
       style="fill:#9e0c39;fill-opacity:1"><path
         d="m 0,0 5.71,0 0,-11.477 54.371,0 0,-5.812 -54.371,0 L 5.71,-30 0,-30 0,0 z"
         style="fill:#9e0c39;fill-opacity:1;fill-rule:nonzero;stroke:none"
         id="path34" /></g><g
       id="g36"
       transform="translate(6.1665,43.9121)"
       style="fill:#9e0c39;fill-opacity:1"><path
         d="m 0,0 5.71,0 0,-25.063 27.719,6.625 0,-5.558 L 0,-32.166 0,0 z"
         style="fill:#9e0c39;fill-opacity:1;fill-rule:nonzero;stroke:none"
         id="path38" /></g><g
       id="g40"
       transform="translate(97.167,5.7607)"
       style="fill:#9e0c39;fill-opacity:1"><path
         d="m 0,0 -2.885,0 -8.619,14.81 -20.396,0 0,14.966 16.5,0 0,7.25 15.4,0 0,-11.672 -5.244,0 0,6.211 -5.078,0 0,-6.211 -15.428,0 0,-5.062 25.75,0 0,-5.482 -3.834,0 0,-4.862 3.834,0"
         style="fill:#9e0c39;fill-opacity:1;fill-rule:nonzero;stroke:none"
         id="path42" /></g><g
       id="g44"
       transform="translate(17.1787,25.2871)"
       style="fill:#9e0c39;fill-opacity:1"><path
         d="m 0,0 5.463,1.438 0,24.851 43.605,0 0,5.274 L 0,31.563 0,0 z"
         style="fill:#9e0c39;fill-opacity:1;fill-rule:nonzero;stroke:none"
         id="path46" /></g><g
       id="g48"
       transform="translate(27.6577,27.8291)"
       style="fill:#9e0c39;fill-opacity:1"><path
         d="m 0,0 21.75,5.302 0,13.465 -21.75,0 0,-8.371 16.313,3.593 L 17.375,9.021 0,5.271 0,0 z"
         style="fill:#9e0c39;fill-opacity:1;fill-rule:nonzero;stroke:none"
         id="path50" /></g><path
       d="m 11.876,84.1 -5.71,0 0,12.727 5.71,0 0,-12.727 z"
       style="fill:#9e0c39;fill-opacity:1;fill-rule:nonzero;stroke:none"
       id="path52" /><path
       inkscape:connector-curvature="0"
       id="path56"
       style="fill:#9e0c39;fill-opacity:1;fill-rule:nonzero;stroke:none"
       d="m 27.6665,81.5161 0,5.5 10.22,0 0,-14.375 -20.708,0 0,24.185 32.125,0 0,-19.75 16.944,0 0,-4.435 -23.277,0 0,18.698 -20.304,0 0,-14.263 10,0 0,4.44 -5,0 z" /></g></svg>