<?xml version="1.0" encoding="utf-8"?>
<!-- Generator: Adobe Illustrator 15.0.2, SVG Export Plug-In . SVG Version: 6.00 Build 0)  -->
<!DOCTYPE svg PUBLIC "-//W3C//DTD SVG 1.1//EN" "http://www.w3.org/Graphics/SVG/1.1/DTD/svg11.dtd">
<svg version="1.1" id="Layer_2" xmlns="http://www.w3.org/2000/svg" xmlns:xlink="http://www.w3.org/1999/xlink" x="0px" y="0px"
	 width="103.333px" height="102.587px" viewBox="0 0 103.333 102.587" enable-background="new 0 0 103.333 102.587"
	 xml:space="preserve">
<g>
	<polygon fill="#D84E2B" points="53.833,6.065 54.271,20.667 96.904,20.667 96.904,15.667 59.654,15.875 59.654,10.792 
		96.904,10.917 96.904,6.065 	"/>
	<polygon fill="#D84E2B" points="44.151,97.131 49.146,97.131 49.146,75.063 44.458,76.06 	"/>
	<polygon fill="#D84E2B" points="54.271,97.065 60.021,97.065 59.833,62.354 76.646,62.354 76.333,32.065 81.333,32.065 
		81.646,54.979 96.904,55.042 96.904,25.815 91.083,25.815 91.202,50.065 86.083,50.065 86.146,25.815 71.154,25.815 70.776,56.292 
		54.271,56.31 	"/>
	<polygon fill="#D84E2B" points="5.904,97.065 39.333,97.065 39.333,87.604 5.904,95.808 	"/>
	<polygon fill="#D84E2B" points="65.083,97.065 65.083,86.917 82.146,86.917 88,97.065 76.542,97.131 76.542,91.226 73.333,91.146 
		73.333,97.065 	"/>
	<rect x="5.904" y="6.065" fill="#D84E2B" width="5.929" height="12.727"/>
	<polygon fill="#D84E2B" points="5.904,23.815 11.833,23.815 11.833,35.292 65.896,35.292 65.896,41.104 11.458,41.104 
		11.333,53.815 5.904,53.815 	"/>
	<polygon fill="#D84E2B" points="5.904,58.979 11.333,58.979 11.333,84.042 39.333,77.417 39.333,82.976 5.907,91.146 	"/>
	<polyline fill="#D84E2B" points="96.904,97.065 94.021,97.065 85.401,82.261 65.083,82.261 64.927,67.354 81.708,67.354 
		81.646,60.104 96.904,60.104 96.904,71.761 91.739,71.761 91.583,65.565 86.583,65.565 86.583,71.761 71.154,71.823 71.154,76.823 
		96.904,76.854 96.904,82.479 93.071,82.386 93.071,87.417 96.904,87.479 	"/>
	<polygon fill="#D84E2B" points="16.396,77.604 22.396,76.167 22.364,51.315 65.896,51.315 65.896,46.042 16.396,46.042 	"/>
	<polygon fill="#D84E2B" points="27.396,75.063 49.146,69.761 49.146,56.292 27.396,56.292 27.396,64.667 43.708,61.073 
		44.771,66.042 27.396,69.792 	"/>
	<polygon fill="#D84E2B" points="27.404,21.375 27.404,17.209 37.625,17.209 37.625,30.25 16.917,30.25 16.917,6.112 48.875,6.065 
		49.042,25.815 66.166,25.815 66.166,30.25 42.667,30.25 42.75,12.292 22.404,12.375 22.404,26.292 32.404,26.334 32.404,21.375 	
		"/>
</g>
</svg>
