<?xml version="1.0" encoding="utf-8"?>
<!-- Generator: Adobe Illustrator 15.0.2, SVG Export Plug-In . SVG Version: 6.00 Build 0)  -->
<!DOCTYPE svg PUBLIC "-//W3C//DTD SVG 1.1//EN" "http://www.w3.org/Graphics/SVG/1.1/DTD/svg11.dtd">
<svg version="1.1" id="svg1920" xmlns:svg="http://www.w3.org/2000/svg"
	 xmlns="http://www.w3.org/2000/svg" xmlns:xlink="http://www.w3.org/1999/xlink" x="0px" y="0px" width="395.089px"
	 height="395.041px" viewBox="103.476 17.723 395.089 395.041" enable-background="new 103.476 17.723 395.089 395.041"
	 xml:space="preserve">
<g id="Layer_x0020_1" transform="matrix(3.543307e-5,0,0,3.543307e-5,-3.580221e-4,6.911696e-3)">
	<g id="_84203480">
		<path id="_49116176" fill="#007D7A" d="M108.987,215.244c0-105.865,86.145-192.007,192.035-192.007
			c105.864,0,192,86.143,192,192.007c0,105.89-86.136,192.009-192,192.009C195.131,407.252,108.987,321.133,108.987,215.244z
			 M103.476,215.244c0,108.925,88.622,197.521,197.546,197.521c108.921,0,197.543-88.596,197.543-197.521
			c0-108.921-88.622-197.521-197.543-197.521C192.098,17.723,103.476,106.322,103.476,215.244z"/>
		<path id="_48873840" fill="#007D7A" d="M430.798,247.371c-5.395,5.005-13.009,5.079-19.174,9.147
			c-2.817,2.817-2.114,6.049-0.96,9.611c2.285,4.5,1.416,4.046-1.758,5.105c-7.441,2.477-7.367,10.623-16.331,9.271
			c-0.506,0.143-2.596-0.913-1.345,0.604c0.963,1.131,1.345,0.457,3.249,0.674c3.183,0.165,4.385-1.16,6.622-2.678
			c3.18-2.693,2.793-3.705,6.745-5.585c0.937-0.24,3.248-0.911,4.549-0.454c0.868,0.795,0.895,0.818,1.036,1.54
			c-0.506,2.188-3.682,3.996-4.914,4.741c1.689,1.232,4.821,3.305,4.29,5.035c-0.728,1.154-0.679,1.352-1.93,1.949
			c-1.78,0.868-5.319,0.722-8.668-1.758c-0.506,0.168-1.06-0.96-2.477,0.39c3.248,3.349,7.799,2.595,8.477,3.273
			c0.696,0.671-2.435,4.716-2.554,5.585c-2.195,5.807,0.482,11.152-0.678,17.193c-0.721,4.698-2.146,6.938-6.256,9.926
			c-7.59,5.248-12.911,6.766-21.389,8.14c-22.299,1.515-36.365-6.142-52.4-18.138c-16.066-11.992-22.208-18.347-27.213-25.092
			c-0.074-2.768,1.948-4.865,0.217-7.848c-1.449,0.506-1.303,2.404-2.172,3.488c-1.251,1.756-4.211,3.033-6.331,2.818
			c-6.597-2.238-6.96-9.993-11.103-14.428c-8.836-8.717-11.319-21.287-6.597-31.81c1.659-3.25,4.648-6.382,7.995-7.541
			c4.119-0.647,8.982-0.647,11.678,3.349c3.181,3.038,5.154,7.971,5.948,12.329c1.301,2.097-0.288,4.507,1.881,6.239
			c3.779,0.363,7.027,1.301,10.665-1.011c2.7,0.363,3.059,3.349,5.104,4.648l3.611,2.169c3.854,1.585,8.817,1.585,12.065-1.232
			c6.098-6.232,4.772-12.662,6.869-19.554c5.825-5.149,9.679-12.522,9.604-19.724c-0.356-4.425-1.947-9.006-4.574-13.415
			c0.432-2.619,1.904-4.574,2.743-6.911c0.746-0.431,1.689-0.431,2.483-0.573c6.476-1.375,12.356-7.249,14.883-13.44l0.58-0.58
			c7.416-0.503,16.639-3.132,20.9-10.879c0.893-3.348,4.648-0.869,6.983-1.666c3.929-0.214,7.848-2.409,10.814-4.937
			c0.861-0.289,1.517,0.652,2.045,1.085c1.734,5.8,4.914,11.392,6.746,17.292c2.236,4.408,3.057,8.619,2.236,13.125
			c0.939,6.888,4.892,13.365,7.634,20.325c2.749,7.344,7.034,14.735,10.166,22.299C431.371,242.505,432.671,244.917,430.798,247.371
			z M432.315,234.702c-5.229-12.065-11.103-22.418-15.388-34.555c-3.057-4.36-1.3-8.982-1.689-13.657
			c-1.947-7.249-5.007-12.836-7.896-19.894c-0.82-2.022,1.442-2.595,2.237-4.045c1.3-3.563,0.389-7.557-1.226-10.979
			c-0.648-1.955,1.682-3.323,1.226-5.345c-0.068-3.131-2.817-5.252-5.005-6.911c-3.281-4.723-4.798-7.2-8.866-11.466v-0.82
			c2.046-1.806,3.712-4.933,3.663-7.607c-0.82-3.034-1.468-5.875-4.386-7.997c-4.648-2.601-9.364,1.468-13.051,3.565
			c-1.034,0.72-1.54,1.449-2.989,1.326c-0.937-0.34-1.899-0.696-2.91-1.06c-0.943,1.083-2.12,2.244-3.54,3.372l4.502,1.832
			c0.146,0.124,0.215,0.214,0.215,0.387c0,0.067-0.049,0.217-0.049,0.333c-0.308,0.266-10.448,9.155-10.448,9.155
			c-0.025,0.019-18.257,18.009-18.257,18.009c0,0.023-5.202,5.327-5.202,5.327c-0.042,0.023-16.227,18.685-16.227,18.685
			c-8.477,9.828-21.004,25.936-28.513,37.735c-3.927,5.394-7.83,11.394-11.467,17.077c-0.382,0.625-1.128,0.573-2.312,0.433
			c-0.794-0.1-1.634-0.167-2.36,0.073h0.023l-0.166,0.044c0.049-0.019,0.099-0.019,0.143-0.044
			c-4.119,0.457-7.128,1.832-10.327,4.716c-4.143,4.915-6.239,10.839-6.239,17.245c0,4.408,0.987,9.055,3.008,13.703
			c-0.844,2.504-2.791,4.699-4.549,6.647l-0.987,1.083l-1.251,1.252c-0.795,0.748-1.738,1.636-2.387,2.479l-0.072,0.075
			l-0.051,0.116c-0.067,0.266-0.116,0.771,0.704,1.158l0.19,0.119l0.217-0.045c3.828-0.918,6.237-3.809,8.574-6.601
			c0,0,1.469-1.685,1.683-1.95c0.363-0.049,0.655,0.143,1.135,0.58c0.266,0.217,0.573,0.408,0.913,0.573c0,0.101,0,0.198,0,0.198
			s-0.049,1.251-0.049,1.539c-9.075,8.96-16.474,14.014-26.152,19.699l-1.615,0.937l1.881,0.198
			c3.761,0.383,7.349-1.74,10.813-3.787l4.167-2.287c3.828-1.972,7.391-4.979,10.862-7.871c0,0,3.102-2.603,3.439-2.892
			c0.34,0.075,0.696,0.479,0.962,0.819c0,0,0.222,0.215,0.363,0.364c0.049,0.093,2.892,5.728,3.06,6.065
			c-0.647,2.651-0.913,5.322-0.913,7.996c0,5.803,1.251,11.609,2.479,17.269c1.226,5.585,2.478,11.338,2.478,16.998
			c0,0.387,0,0.745-0.023,1.109c0,1.757-1.899,4.067-3.514,4.813c-3.614,0.604-8.022,0.654-12.646,0.703
			c-5.701,0.043-11.602,0.092-16.134,1.319c-1.441,0.173-3.131,0.653-4.765,1.109c-1.592,0.431-3.255,0.918-4.798,1.111
			l-0.142,0.023l-0.191,0.142l-0.555,0.389c-0.505,0.309-1.157,0.721-1.3,1.467c0,0.074-0.025,0.143-0.025,0.217
			c0,0.407,0.19,0.918,0.53,1.225c0.315,0.341,0.697,0.482,1.109,0.465c1.368,0,2.91-0.581,4.402-1.109
			c1.036-0.389,2.12-0.771,3.107-0.944c9.47-1.61,19.82-1.296,26.854-0.722c3.465-0.049,9.148-0.166,11.196-5.104
			c0.745-1.999,1.011-3.854,1.011-5.637c0-1.971-0.31-3.852-0.622-5.799l-0.629-4.797c-0.407-2.911-1.037-5.826-1.636-8.668
			c-1.061-4.982-2.144-10.137-2.144-15.363c0-1.061,0.049-2.122,0.143-3.183c0.098-0.142,0.214-0.289,0.363-0.308
			c0.289-0.049,0.819,0.383,1.251,0.723c0.479,0.355,0.985,0.745,1.54,0.888c0.629,0.454,1.326,0.604,1.974,0.678
			c0.918,0.116,1.4,0.24,1.689,0.937c0.382,4.574,1.974,9.32,3.514,13.92c1.061,3.15,2.146,6.406,2.843,9.605
			c1.251,5.568,2.503,11.226,2.503,16.813c0,3.324-0.432,6.621-1.61,9.853c-2.409,4.425-7.729,4.425-12.834,4.45h-1.543
			l-12.575-0.771c-10.765-0.771-21.91-1.565-33.33,0.266c0.075,0-2.551,0.289-2.551,0.289c-1.417,0.217-2.742,0.389-4.169,0.049
			c-0.528-0.431-0.96-1.158-0.96-1.952c0-0.243,0.049-0.483,0.147-0.723c2.048-4.499,3.059-8.57,3.059-12.182
			c0-2.917-0.678-5.518-2.004-7.829c-2.959-5.66-6.209-9.581-10.21-12.33c-4.914-4.889-9.099-9.248-12.834-13.482
			c-2.164-0.266-3.49-0.703-3.663-0.748l-0.479-0.172l-2.165,2.7c2.817,2.671,5.443,5.37,8.619,8.263
			c4.862,2.619,8.791,7.342,12.279,10.548c4.218,4.907,5.229,10.134,4.334,15.961c-0.548,6.893-6.861,9.875-11.145,14.426
			c-1.757,3.273-2.843,7.2-0.457,10.233c1.54,4.075,8.064,3.349,8.859,6.695c1.806,7.374,14.593,11.633,17.101,11.801
			c2.479,0.173,5.056,2.941,5.056,2.941c5.08,3.709,11.751,2.791,15.265,2.262c3.495-0.531,9.758,2.312,13.705,1.731
			c5.851-2.337,10.672-1.251,16.763-1.757c19.167,0.289,40.941-0.143,60.54,2.337c3.637-0.431,7.972,2.386,11.392,0.652
			c0.888-1.473,0.217-2.7,0-3.927c-9.369-14.739-10.763-31.28-5.443-47.32l3.514,0.19c12.743,1.397,24.303-0.266,37.212-7.731
			c6.449-3.564,9.847-11.869,9.556-17.916c-0.215-3.902-1.566-8.525-0.911-12.664c0.24-1.854,1.442-4.671,3.057-5.54
			c0.647-0.382,3.034-1.999,3.779-4.071c1.229-3.346-1.394-4.938-2.164-5.395c2.071-0.843,4.045-5.029,2.164-8.309
			c-1.202-1.277-2.626-6.382-2.768-8.039c-0.457-2.41-0.529-4.865,1.733-6.404c5.079-2.678,9.875-3.33,15.171-5.66
			c3.638-1.523,5.518-5.303,5.371-8.701L432.315,234.702z M224.778,354.389c-0.654,1.184-0.58,1.952-0.871,3.346
			c-0.363,0.654-2.17-0.215-2.742-0.573c-2.244-1.207-2.098-0.578-2.75-2.675c-0.356-1.4-0.333-3.034,2.004-4.26
			c1.442-0.82,4.359-1.806,5.297,0C226.003,351.453,224.561,353.018,224.778,354.389z M237.151,370.091
			c-2.984,0.072-5.057-1.565-6.424-5.057c-1.4-4.48-1.881-8.401-0.918-13.027c0.312-0.555,0.96-0.941,1.397-0.745l4.143-1.424
			c1.394-0.555,2.555-0.746,3.873-0.432l0.82,0.839c-0.051,2.409-0.647,4.192-0.697,6.429c-0.242,5.618-0.722,7.301,0.889,12.646
			C239.635,370.744,238.432,370.065,237.151,370.091z M407.746,161.276c-0.405,0.432-0.911,0.937-1.584,0.769
			c-1.54-1.083-0.967-2.453-0.869-3.753c0.314-0.314,0.363-0.48,0.869-0.48c0.722-0.149,1.128,0.405,1.394,0.794
			C408.012,159.445,408.087,160.407,407.746,161.276z M289.966,229.257c10.159-18.229,22.49-34.049,35.713-50.307l18.52-21.047
			c13.193-14.085,27.791-28.537,43.976-39.707c2.046-1.161,2.934-3.565,5.03-1.881l1.904,1.757c1.276,1.447,0.168,5.566-1.135,6.72
			c-1.061,0.87-2.071,1.689-3.081,2.526c3.155,3.131,7.729,9.083,11.46,12.934c1.641,1.685,1.135,3.446,4.075,4.791
			c1.468,0.704,1.898,2.312,1.011,3.687c-2.603,3.348-6.937,2.842-10.356,3.711c-12.718,2.817-22.978,6.45-37.039,13.268
			c-11.245,5.975-20.228,12.571-28.39,22.804c-3.108,3.854-6.604,6.769-9.206,11.392c-7.414,9.514-13.291,18.447-19.19,28.25
			c-2.098,3.083-2.768,4.623-5.734,7.391c-1.417,1.375-2.693-1.468-3.589-2.454c-0.09-0.098-0.165-0.247-0.239-0.34
			c-0.289,0.051-0.597-0.023-0.911-0.214C291.987,231.5,289.51,231.063,289.966,229.257z M401.921,158.865
			c-0.19,3.521-4.888,6.431-8.816,7.515c-1.657,0.265-3.199,0.172-4.69,0.172c-0.39-0.263-0.82-0.604-0.771-0.99
			c0.266-1.66,0.531-2.647,0.647-4.138l0.963-0.727c3.469-0.697,7.705-1.443,11.2-2.356
			C400.959,158.434,401.607,158.385,401.921,158.865z M365.438,168.046l0.629-0.82c2.858-1.352,5.487-2.412,8.642-3.3l3.779-0.985
			c1.012-0.918,2.769-1.664,3.806-0.363c0.049,4.888-3.607,10.788-9.027,13.027c-1.712,0.745-3.975,0.985-5.997,1.498
			c-0.506-0.438-2.146,0.48-2.651-0.753C364.932,173.896,365.868,170.233,365.438,168.046z M326.691,254.911
			c-1.012,0.573-9.803-2.775-8.769-1.857c-2.095-2.236,1.326-2.989-6.429-5.899l-1.88,0.19c-0.24,0.218-0.914,0.581-1.61-0.381
			c-0.072-1.184,1.468-1.016,1.948-2.461c2.768-6.237,1.228-11.077,0.962-17.531l2.048-5.296c3.901-4.674,3.878-5.345,6.527-7.896
			c2.628-3.711,3.183-4.003,6.72-7.034c0.58-0.506,1.636-0.888,2.337-0.315c1.659,1.3,1.757,2.169,2.239,3.829
			c0.82,6.165-2.918,10.406-7.417,13.754c-3.183,2.742-6.239,7.034-5.543,11.245l0.266,0.263c1.473-1.203,3.304-1.922,3.926-3.446
			c2.436-5.436,8.983-7.92,12.646-12.638c1.615-2.84,0.622-7.729,0-11.003c0,0.091,4.814-2.295,3.514-1.449
			c2.288,0.962,1.997,2.601,3.106,4.697c2.171,5.443,1.974,10.376-1.35,15.099l-9.147,11.417
			C330.642,243.997,332.227,251.488,326.691,254.911z M338.755,199.665c-2.194,1.011-4.457,1.228-6.888,0.093
			c-0.629-0.82-2.626-1.517-1.831-2.742c1.76-2.869,4.742-5.229,6.573-8.046l0.869-0.457c3.705-4.476,9.586-8.26,15.147-11.634
			l3.349-1.466c0.745-0.722,2.453-2.239,3.105-0.673c0.143,5.851-2.337,12.114-7.922,16.252c-3.371,2.507-4.84,2.027-7.854,2.218
			l-1.566,2.794C341.381,197.397,340.154,198.821,338.755,199.665z M307.954,233.066l-0.146,4.143
			c-0.383,3.779-2.116,8.139-5.679,10.233c-2.12-0.503-1.352-3.057-1.88-4.795c1.374-3.754,3.993-6.885,6.188-10.233
			c0.314-0.217,0.599-0.359,0.913-0.217L307.954,233.066z M257.408,377.002c-1.473,1.517-2.312,0.82-3.811,0.967
			c-4.284-1.184-6.787-3.016-7.989-7.855c-1.592-6.742-1.523-14.159,0-21.07l0.671-0.531c3.009-0.333,7.54-0.937,8.791-0.266
			c1.229,0.68-1.325,12.813-1.325,12.813c-0.098,2.41,1.086,8.575,2.19,11.756C256.157,373.297,258.634,375.75,257.408,377.002z
			 M288.424,369.51c-0.457,4.342-5.9,8.145-8.575,8.916c-2.67,0.771-10.615,0.381-12.903-0.413
			c-2.312-0.797-7.904-11.702-7.249-17.361c0-4.697,1.274-12.114,3.15-12.718c1.88-0.575,6.841-0.284,6.841-0.284
			c2.071-0.149,3.663,0.356,5.487,0.573c1.277,0.506,0.389,2.121,0.82,3.057c0.604,2.412,0.745,5.038,2.243,7.443
			c2.091,4.049,5.919,6.453,9.729,7.877C288.806,367.395,288.326,368.458,288.424,369.51z M282.307,351.19
			c0-0.872,0.052-1.229,0.697-1.518h3.588c3.206,0.117,7.301,1.151,10.285-1.93c1.706,0.072,1.854,2.096,2.312,3.688
			c0.405,2.188,0.314,3.588,0.314,5.559c-0.723,1.566-1.517,3.952-3.132,4.963c-2.576,1.203-5.18,0.963-7.658,0
			C284.978,359.739,282.258,356.195,282.307,351.19z M355.807,334.042c-4.795,16.642-7.083,25.209,0.408,42.335
			c0.072,0.648,0.794,2.794,0,3.06c-8.286-1.666-10.477-2.386-18.257-2.94c-7.174-1.252-19.122,0.745-27.087,0.678
			c-6.239,0.215-12.577,0.432-19.1,1.227c-1.954-1.012-0.431-3.207-0.291-4.648c0.723-2.238,0.797-3.398,1.012-6.023
			c1.011-1.08,2.262-0.506,3.49-1.012c4.191-0.646,7.755-4.357,8.766-8.279c1.326-4.117-0.116-8.697-2.022-12.619
			c-0.356-1.158-1.948-2.046-1.3-3.207c5.153-9.652,1.517-19.455-0.215-28.869c-1.809-6.697-4.576-14.095-5.686-21.146
			c0.24-0.722-0.696-2.411,0.895-2.528l0.578,0.117c5.514,6.693,21.313,20.83,27.231,25.43c5.906,4.6,21.194,13.515,31.14,15.894
			C356.313,332.304,356.166,332.959,355.807,334.042z"/>
		<path id="_48164760" fill="#007D7A" d="M397.753,189.499c1.012,1.326,1.689,2.486,0.869,3.712
			c-1.88,0.142-2.169-2.237-3.754-3.034c-2.626-1.3-4.963,0.067-7.563,0.722c-6.596,2.843-12.113,8.5-18.52,11.459
			c-0.797,0-1.517-0.072-2.022-0.646c1.084-1.086,2.841-1.303,4.216-2.195c6.599-4.333,13.004-11.146,21.264-12.398
			C394.431,186.971,396.386,187.768,397.753,189.499z"/>
		<path id="_82784152" fill="#007D7A" d="M397.25,200.702c-0.506-1.615-0.432-4.218-2.379-4.581c-0.438,1.016,0,2.121-0.438,3.064
			c-0.597,0.72-1.614,1.584-2.768,1.295c-7.995,0.51-13.946,7.538-20.757,11.175c-2.337,1.303-4.939,2.048-7.416,2.696
			c-0.217,0.364-0.149,0.869,0.214,1.083c7.559,0.797,15.024,1.517,22.516,2.312l8.335-0.937c0.24-1.083-1.086-2.022-0.869-3.274
			c0.962-3.395,1.251-7.107,0.314-10.306C394.65,201.496,397.111,202.792,397.25,200.702z M391.425,213.58
			c-1.035,1.522-2.651,0.198-4.068,0.39c-3.273-0.39-8.791,0.382-12.405-0.075c-0.555-0.315-0.937-0.864-0.627-1.37
			c0.555-0.918,2.071-0.967,3.013-1.664c3.947-2.453,8.09-4.813,12.597-5.874c0.82-0.123,1.491,0.555,1.633,1.133
			C392.096,208.209,391.765,211.558,391.425,213.58z"/>
		<path id="_81751608" fill="#007D7A" d="M401.491,238.123c0.24-0.389,0.555-0.82,0.911-0.846c0.457,0.175,0.723,0.389,0.797,1.277
			c-0.074,1.4-0.408,2.866-0.797,4.434c-0.431,1.757-0.888,3.586-0.888,5.368c0,0.771,0.093,1.566,0.31,2.338
			c1.035,1.299,2.676,1.614,4.604,0.936c0.044-0.025,3.322-1.898,3.322-1.898c2.843-1.689,5.511-3.297,10.525-4.574
			c0.091-0.025,0.116,0.02,0.14,0.043c0.101,0.074,0.124,0.265,0.124,0.505c0,0.415-0.124,1.011-0.338,1.476
			c-0.191,0.09-4.791,2.139-4.791,2.139c-3.611,1.589-7.372,3.229-10.889,5.252c-1.034,0.191-1.996-0.363-2.915-0.918l-0.24-0.117
			c-1.325-1.831-1.756-3.588-1.756-5.371c0-1.591,0.338-3.18,0.696-4.813c0.314-1.517,0.678-3.083,0.746-4.749
			C401.177,238.486,401.491,238.123,401.491,238.123z"/>
		<path id="_111035472" fill="#007D7A" d="M288.351,236.631c2.626,5.369-0.14,10.447,0,16.033c0.434,1.592,3.564,1.809,2.626,3.712
			c-0.72,0.506-1.757,0.647-2.552,0.075c-1.442-0.944-1.955-1.664-2.312-3.35c-0.389-4.911,3.54-10.671,0.075-15.32
			c-1.012-1.009-2.486-2.02-3.929-2.095c-3.132,0.581-4.721,3.926-5.807,6.387c-1.659,6.522-2.115,13.433,3.638,18.662
			c3.348,1.948,7.397,4.068,7.638,8.286c0.482,0.72,1.491,1.416,2.312,1.012c1.011-0.075,1.153-2.99,2.596-1.592l0.438,0.987
			c-0.363,1.177-0.72,3.204-2.601,3.271c-0.938,0.218-1.973-0.288-2.744-0.862c-2.046-2.097-0.462-5.301-3.878-6.67
			c-5.659-1.758-9.371-7.707-9.949-13.299c-0.358-5.368-0.118-11.245,4.507-15.96c1.829-1.375,4.21-2.27,6.547-1.521
			C286.256,234.609,287.773,235.52,288.351,236.631z"/>
		<path id="_111045264" fill="#007D7A" d="M217.381,275.883c-10.326,4.791-13.484,17.119-13.626,17.625l-0.266,1.109l1.056,0.363
			c0.412,0.119,9.998,3.273,21.726-2.484c11.799-5.775,14.228-17.482,14.327-17.988l0.24-1.228l-1.251-0.19
			C239.105,272.993,227.547,271.186,217.381,275.883z M218.416,278.121c7.54-3.514,16.163-3.106,19.414-2.792
			c-0.918,2.982-4.068,10.764-12.646,14.98c-8.594,4.211-15.991,3.199-18.686,2.626
			C207.511,289.946,210.834,281.641,218.416,278.121z"/>
		<path id="_111057648" fill="#007D7A" d="M227.687,252.69c-10.35,4.674-14.178,16.861-14.327,17.393l-0.356,1.152l1.153,0.363
			c0.405,0.117,9.968,2.982,21.719-2.625c11.849-5.686,14.377-16.98,14.475-17.459l0.266-1.229l-1.252-0.222
			C248.907,249.971,237.879,248.09,227.687,252.69z M228.698,254.911c7.517-3.396,15.729-2.967,18.883-2.628
			c-0.985,2.936-4.192,10.376-12.759,14.47c-8.529,4.075-15.876,3.304-18.669,2.799
			C217.337,266.494,221.116,258.325,228.698,254.911z"/>
		<path id="_82872168" fill="#007D7A" d="M241.153,230.342c-10.383,4.555-14.882,16.639-15.05,17.145l-0.462,1.232l1.277,0.359
			c0.412,0.123,9.949,2.675,21.7-2.819c11.916-5.534,14.519-16.422,14.642-16.902l0.266-1.228l-1.228-0.24
			C261.86,227.814,251.386,225.841,241.153,230.342z M242.115,232.586c7.515-3.304,15.295-2.843,18.353-2.484
			c-1.012,2.84-4.309,9.968-12.86,13.945c-8.451,3.953-15.726,3.395-18.643,2.933C230.365,243.899,234.579,235.909,242.115,232.586z
			"/>
		<path id="_111066936" fill="#007D7A" d="M254.492,208.261c-10.381,4.455-15.534,16.396-15.726,16.902l-0.58,1.326l1.4,0.341
			c0.405,0.098,9.919,2.385,21.718-2.967c11.973-5.413,14.643-15.917,14.767-16.373l0.314-1.228l-1.251-0.264
			C274.72,205.897,264.8,203.875,254.492,208.261z M255.454,210.523c7.466-3.176,14.859-2.696,17.8-2.337
			c-1.061,2.773-4.408,9.586-12.96,13.44c-8.354,3.803-15.579,3.47-18.587,3.083C243.318,221.551,247.94,213.727,255.454,210.523z"
			/>
		<path id="_111358368" fill="#007D7A" d="M272.989,186.176c-10.406,4.334-16.208,16.159-16.448,16.665l-0.673,1.397l1.517,0.34
			c0.382,0.068,9.87,2.065,21.721-3.131c11.99-5.304,14.789-15.414,14.905-15.852l0.315-1.2l-1.226-0.314
			C292.71,184.011,283.346,181.891,272.989,186.176z M273.925,188.438c7.442-3.083,14.402-2.577,17.245-2.188
			c-1.104,2.719-4.502,9.173-13.053,12.953c-8.335,3.661-15.461,3.521-18.543,3.206
			C261.429,199.204,266.434,191.547,273.925,188.438z"/>
		<path id="_111528120" fill="#007D7A" d="M293.388,164.865c-10.432,4.215-16.911,15.942-17.175,16.448l-0.79,1.465l1.634,0.315
			c0.412,0.075,9.877,1.783,21.726-3.323c12.064-5.154,14.949-14.856,15.073-15.264l0.34-1.233l-1.232-0.289
			C312.604,162.891,303.764,160.671,293.388,164.865z M294.302,167.128c7.365-2.959,13.942-2.431,16.688-2.023
			c-1.153,2.626-4.648,8.792-13.174,12.429c-8.237,3.537-15.29,3.563-18.471,3.346C281.416,177.625,286.834,170.166,294.302,167.128
			z"/>
		<path id="_114230976" fill="#007D7A" d="M315.156,144.735c-10.448,4.068-17.58,15.695-17.871,16.201l-0.938,1.542l1.783,0.289
			c0.412,0.049,9.851,1.491,21.726-3.465c12.106-5.037,15.073-14.353,15.189-14.74l0.39-1.203l-1.203-0.34
			C333.892,142.93,325.582,140.635,315.156,144.735L315.156,144.735z M316.043,146.998c7.301-2.843,13.515-2.312,16.159-1.906
			c-1.226,2.554-4.765,8.405-13.291,11.949c-8.113,3.39-15.122,3.612-18.396,3.465C302.851,157.206,308.629,149.908,316.043,146.998
			L316.043,146.998z"/>
		<path id="_48808752" fill="#007D7A" d="M337.794,126.142c-10.48,3.97-18.253,15.485-18.568,15.968l-1.111,1.657l1.98,0.243
			c0.383,0.049,9.796,1.184,21.719-3.638c12.14-4.907,15.223-13.822,15.339-14.204l0.39-1.16l-1.184-0.382
			C356.048,124.527,348.294,122.141,337.794,126.142z M338.656,128.404c7.252-2.742,13.077-2.188,15.611-1.757
			c-1.276,2.479-4.914,8.046-13.367,11.462c-8.069,3.255-14.98,3.637-18.328,3.586C325.15,138.349,331.266,131.221,338.656,128.404z
			"/>
		<path id="_48137184" fill="#007D7A" d="M360.789,109.477c-10.499,3.88-18.901,15.29-19.265,15.771l-1.277,1.715l2.146,0.216
			c0.382,0.049,9.776,0.888,21.719-3.805c12.212-4.795,15.361-13.298,15.485-13.655l0.408-1.16l-1.154-0.382
			C378.563,108.053,371.337,105.6,360.789,109.477z M361.633,111.765c7.177-2.626,12.646-2.097,15.05-1.64
			c-1.326,2.385-5.007,7.656-13.459,10.979c-7.971,3.131-14.788,3.663-18.23,3.688C347.811,121.418,354.286,114.484,361.633,111.765
			z"/>
		<path id="_82940240" fill="#007D7A" d="M200.864,252.525c-0.314,0.382-7.489,9.702-8.234,20.924
			c-0.748,11.44,8.593,20.157,9.006,20.523l0.82,0.769l0.838-0.769c0.315-0.266,7.706-7.226,8.261-20.327
			c0.605-13.197-8.567-20.98-8.957-21.312l-0.962-0.797L200.864,252.525z M195.031,274.723c0-0.355,0.025-0.72,0.051-1.102
			c0.529-8.41,5.08-15.803,6.911-18.471c2.12,2.188,7.155,8.305,7.155,17.336c0,0.338,0,0.696-0.022,1.061
			c-0.438,9.635-4.865,15.652-6.697,17.748C200.358,289.081,195.031,282.627,195.031,274.723z"/>
		<path id="_82893400" fill="#007D7A" d="M215.431,227.383c-0.24,0.266-6.091,6.72-8.574,15.968
			c-0.334,1.274-0.599,2.596-0.771,3.993c-1.343,11.08,6.652,20.16,7.011,20.543l0.77,0.895l0.92-0.771
			c0.333-0.266,7.871-6.818,9.414-19.557c1.54-12.859-6.671-20.805-7.035-21.119l-0.888-0.869L215.431,227.383z M208.38,249.848
			c0-0.721,0.042-1.443,0.14-2.188c0.143-1.276,0.385-2.503,0.697-3.663c1.782-6.645,5.494-11.823,7.153-13.92
			c1.762,2.072,5.566,7.515,5.566,15.271c0,0.888-0.049,1.855-0.173,2.816c-1.104,9.271-5.728,15.025-7.656,17.096
			C212.373,262.973,208.38,256.957,208.38,249.848z"/>
		<path id="_82889776" fill="#007D7A" d="M231.781,203.808c-0.266,0.24-6.406,5.944-9.512,15.147
			c-0.382,1.177-0.723,2.431-0.988,3.873c-1.922,10.721,4.749,20.134,5.012,20.546l0.748,1.03l1.01-0.79
			c0.314-0.263,8.046-6.429,10.524-18.783c2.503-12.503-4.765-20.617-5.079-20.957l-0.82-0.888L231.781,203.808z M223.405,226.78
			c0-1.153,0.098-2.363,0.313-3.539c0.217-1.3,0.505-2.435,0.864-3.495c2.218-6.548,6.146-11.271,7.927-13.17
			c1.394,1.948,4.139,6.671,4.139,13.151c0,1.468-0.143,3.008-0.482,4.642c-1.78,8.889-6.546,14.358-8.617,16.406
			C226.17,238.46,223.405,233.017,223.405,226.78z"/>
		<path id="_82869456" fill="#007D7A" d="M249.746,181.768c-0.285,0.216-6.69,5.203-10.451,14.334
			c-0.431,1.053-0.817,2.288-1.15,3.705c-2.535,10.357,2.742,20.134,2.982,20.542l0.647,1.203l1.135-0.813
			c0.338-0.224,8.212-6.023,11.657-17.965c3.465-12.14-2.843-20.449-3.105-20.789l-0.746-0.962L249.746,181.768z M239.925,205.59
			c0-1.689,0.167-3.472,0.573-5.203c0.314-1.3,0.678-2.411,1.06-3.371c2.651-6.406,6.771-10.69,8.675-12.429
			c1.037,1.781,2.885,5.709,2.885,10.984c0,1.999-0.24,4.187-0.911,6.524c-2.46,8.5-7.367,13.704-9.586,15.703
			C241.658,215.607,239.925,210.936,239.925,205.59z"/>
		<path id="_82898896" fill="#007D7A" d="M269.209,161.251c-0.289,0.173-6.96,4.432-11.368,13.489
			c-0.506,1.011-0.963,2.139-1.398,3.588c-3.108,9.994,0.817,20.085,1.009,20.517l0.557,1.375l1.251-0.82
			c0.339-0.24,8.358-5.634,12.744-17.193c4.45-11.781-0.896-20.232-1.135-20.591l-0.648-1.011L269.209,161.251z M257.717,186.49
			c0-2.386,0.291-4.937,1.061-7.439c0.415-1.303,0.797-2.337,1.251-3.232c3.083-6.331,7.424-10.185,9.397-11.725
			c0.745,1.54,1.898,4.6,1.898,8.717c0,2.502-0.433,5.371-1.609,8.502c-3.058,8.118-8.144,13.051-10.5,15.055
			C258.612,194.364,257.717,190.727,257.717,186.49z"/>
		<path id="_117735336" fill="#007D7A" d="M290.04,142.226c-0.289,0.149-7.2,3.663-12.329,12.646
			c-0.531,0.985-1.037,2.071-1.565,3.446c-3.712,9.628-1.111,20.037-0.988,20.467l0.408,1.589l1.4-0.869
			c0.331-0.191,8.519-5.227,13.845-16.399c5.42-11.392,1.037-19.985,0.839-20.348l-0.555-1.063L290.04,142.226L290.04,142.226z
			 M276.625,169.826c0-3.23,0.408-7.033,1.783-10.646c0.506-1.251,0.937-2.237,1.442-3.106c3.537-6.191,8.045-9.63,10.14-10.982
			c0.457,1.277,1.087,3.498,1.087,6.555c0,2.885-0.581,6.447-2.484,10.425c-3.682,7.755-8.91,12.403-11.413,14.302
			C276.914,174.882,276.625,172.57,276.625,169.826z"/>
		<path id="_47326760" fill="#007D7A" d="M312.148,124.673c-0.315,0.119-7.44,2.91-13.272,11.8
			c-0.599,0.939-1.179,2.022-1.782,3.299c-4.259,9.271-3.008,19.987-2.959,20.418l0.217,1.782l1.589-0.864
			c0.358-0.191,8.668-4.814,14.934-15.602c6.405-11.035,2.982-19.778,2.835-20.137l-0.456-1.135L312.148,124.673z M296.373,155.98
			c0-3.805,0.479-9.852,2.94-15.197c0.548-1.184,1.078-2.146,1.607-2.966c4.001-6.09,8.693-9.099,10.862-10.283
			c0.24,0.993,0.483,2.435,0.483,4.36c0,3.204-0.723,7.563-3.491,12.377c-4.314,7.398-9.686,11.757-12.354,13.607
			C296.397,157.348,296.373,156.726,296.373,155.98z"/>
		<path id="_81988928" fill="#007D7A" d="M335.435,108.584c-0.315,0.072-7.659,2.169-14.212,10.96
			c-0.671,0.888-1.349,1.925-1.974,3.102c-4.862,8.915-4.938,19.943-4.938,20.425l0.026,1.948l1.731-0.865
			c0.389-0.191,8.865-4.458,16.065-14.856c7.318-10.623,4.888-19.507,4.79-19.871l-0.34-1.177L335.435,108.584z M321.396,123.83
			c0.573-1.086,1.177-1.997,1.782-2.843c4.476-5.974,9.364-8.6,11.627-9.563c0.049,0.58,0.124,1.253,0.124,2.146
			c0,3.274-0.797,8.526-4.816,14.354c-4.889,7.034-10.406,11.126-13.249,12.934C317.129,137.27,318.047,129.921,321.396,123.83z"/>
		<path id="_82907120" fill="#007D7A" d="M359.681,93.917c-0.311,0.049-7.825,1.449-15.148,10.068
			c-7.244,8.6-8.959,22.76-9.026,23.359l-0.24,2.12l1.948-0.869c0.363-0.165,9.008-4.044,17.121-14.087
			c8.286-10.208,6.817-19.239,6.769-19.603l-0.216-1.202L359.681,93.917z M346.413,105.576c4.963-5.851,10.017-8.095,12.354-8.866
			c0.025,0.049,0.025,0.075,0.025,0.147c0,2.843-0.746,9.199-6.356,16.133c-5.443,6.72-11.154,10.525-14.113,12.256
			C339.12,120.89,341.333,111.574,346.413,105.576z"/>
		<path id="_82162616" fill="#007D7A" d="M127.415,215.244c0,59.173,32.001,116.075,83.535,148.565l2.146,1.324l1.541-2.002
			c0.431-0.557,0.603-1.105,0.603-1.592c0-1.277-1.083-2.262-1.689-2.836l-2.982-2.865c-10.646-12.065-13.488-23.509-13.488-32.3
			c0-9.728,3.495-16.227,3.784-16.714l0.938-1.731l-1.302-1.468c-21.794-24.295-33.278-54.838-33.278-88.382
			c0-73.789,60.011-133.798,133.8-133.798c20.516,0,40.188,4.5,58.491,13.415l1.906,0.937l26.873-30.683l-2.96-1.659
			c-25.651-14.279-54.813-21.816-84.311-21.816C205.272,41.639,127.415,119.52,127.415,215.244L127.415,215.244z M132.902,215.244
			c0-92.69,75.428-168.094,168.12-168.094c27.401,0,54.498,6.795,78.554,19.531c-3.54,4.027-17.437,19.92-19.605,22.348
			c-18.494-8.668-38.309-13.1-58.948-13.1c-76.822,0-139.343,62.495-139.343,139.315c0,34.271,11.61,65.552,33.55,90.645
			c-1.276,2.915-3.521,9.297-3.521,17.748c0,6.985,1.615,15.364,6.555,24.279C157.587,315.523,132.902,266.247,132.902,215.244z"/>
		<path id="_49059128" fill="#007D7A" d="M361.923,89.923c-19.073-9.297-39.543-13.995-60.903-13.995
			c-76.822,0-139.343,62.495-139.343,139.315c0,34.896,11.997,66.755,34.704,92.068l2.386,2.645l10.598-15.984l-0.555-0.655
			c-0.962-0.115-1.733-0.266-2.312-0.382c0.14-0.438,0.356-1.011,0.597-1.64c-0.813-0.986-1.657-1.998-2.454-3.009
			c-0.843,1.368-1.656,2.356-2.213,3.009c-2.071-2.215-7.398-8.668-7.398-16.572c0-0.24,0.026-0.506,0.026-0.745
			c-9.896-17.435-14.932-37.107-14.932-58.734c0-66.654,54.232-120.889,120.896-120.889c16.348,0,32.125,3.199,46.981,9.488
			c1.592-1.664,3.157-2.966,4.625-3.975c-16.257-7.277-33.593-11.031-51.606-11.031c-69.72,0-126.432,56.712-126.432,126.407
			c0,30.221,9.439,56.786,27.907,79.085c-1.053,1.615-2.575,3.902-4.283,6.504c-20.227-23.84-30.992-53.297-30.992-85.589
			c0-73.789,60.012-133.798,133.8-133.798c19.604,0,38.407,4.167,56.016,12.305c-0.748,1.589-1.45,3.158-2.195,4.723
			c1.638-0.92,2.989-1.475,3.926-1.764c0.026,0.049,0.026,0.075,0.026,0.147c0,2.071-0.408,6-2.794,10.667l0.622,0.314l7.73-16.763
			L361.923,89.923L361.923,89.923z"/>
		<path id="_122255456" fill="#007D7A" d="M360.672,62.586l-13.323,16.863c1.233,0.405,2.436,0.836,3.638,1.3l13.223-16.713
			C363.052,63.53,361.875,63.05,360.672,62.586z"/>
		<path id="_111525640" fill="#007D7A" d="M334.615,54.832l-7.78,19.246c1.232,0.217,2.458,0.457,3.66,0.723l7.757-19.174
			C337.023,55.342,335.817,55.095,334.615,54.832z"/>
		<path id="_81748496" fill="#007D7A" d="M303.599,51.367l-1.906,20.4c1.226,0,2.461,0.019,3.663,0.042l1.922-20.344
			C306.052,51.439,304.824,51.391,303.599,51.367z"/>
		<path id="_48970056" fill="#007D7A" d="M273.37,53.678l3.878,20.037c1.209-0.191,2.411-0.389,3.637-0.555l-3.877-20.062
			C275.782,53.271,274.58,53.462,273.37,53.678z"/>
		<path id="_47284000" fill="#007D7A" d="M244.068,61.526l9.174,18.403c1.153-0.413,2.313-0.794,3.49-1.184l-9.199-18.445
			C246.381,60.713,245.221,61.118,244.068,61.526z"/>
		<path id="_48122368" fill="#007D7A" d="M216.251,74.992l13.68,15.628c1.079-0.623,2.165-1.228,3.274-1.832l-13.753-15.702
			C218.374,73.715,217.312,74.362,216.251,74.992z"/>
		<path id="_82943656" fill="#007D7A" d="M190.989,93.849l17.269,11.991c0.96-0.82,1.947-1.615,2.94-2.435l-17.393-12.065
			C192.869,92.16,191.906,93.006,190.989,93.849z"/>
		<path id="_111743952" fill="#007D7A" d="M169.485,117.518l19.845,7.729c0.813-1.012,1.634-1.997,2.453-2.959l-19.986-7.804
			C171.027,115.495,170.255,116.507,169.485,117.518z"/>
		<path id="_81670368" fill="#007D7A" d="M152.894,145.092l21.355,2.985c0.605-1.177,1.232-2.311,1.88-3.439l-21.553-3.011
			C153.998,142.781,153.418,143.941,152.894,145.092z"/>
		<path id="_82778632" fill="#007D7A" d="M142.008,175.338l21.768-2.09c0.412-1.258,0.82-2.535,1.228-3.786l-21.986,2.097
			C142.654,172.811,142.323,174.062,142.008,175.338z"/>
		<path id="_49035160" fill="#007D7A" d="M137.285,207.007l21.07-7.316c0.149-1.352,0.314-2.701,0.482-4.05l-21.313,7.415
			C137.432,204.357,137.36,205.683,137.285,207.007L137.285,207.007z"/>
		<path id="_82868520" fill="#007D7A" d="M138.925,239.01l19.025-12.496c-0.101-1.394-0.191-2.794-0.266-4.21l-19.34,12.687
			C138.536,236.34,138.709,237.666,138.925,239.01z"/>
		<path id="_82947392" fill="#007D7A" d="M147.038,270.322l15.438-17.003c-0.383-1.424-0.723-2.865-1.061-4.291l-15.771,17.367
			C146.1,267.721,146.557,269.022,147.038,270.322z"/>
		<path id="_82847744" fill="#007D7A" d="M161.562,300.229l10.931-20.782c-0.671-1.35-1.368-2.694-1.997-4.069l-11.128,21.172
			C160.089,297.775,160.817,299.026,161.562,300.229z"/>
		<path id="_47020472" fill="#007D7A" d="M180.175,325.153l5.854-24.055c-0.967-1.277-1.929-2.578-2.84-3.878l-5.948,24.587
			C178.201,322.94,179.189,324.043,180.175,325.153z"/>
		<path id="_48970168" fill="#007D7A" d="M357.948,109.064c0.506,0.314,1.012,0.654,1.491,0.993
			c0.464-0.198,0.896-0.413,1.352-0.581c0.529-0.191,1.061-0.363,1.592-0.528c-1.135-0.746-2.19-1.592-3.206-2.484
			C358.842,107.308,358.405,108.177,357.948,109.064z"/>
	</g>
</g>
</svg>
