<?xml version="1.0" encoding="utf-8"?>
<!-- Generator: Adobe Illustrator 15.0.2, SVG Export Plug-In . SVG Version: 6.00 Build 0)  -->
<!DOCTYPE svg PUBLIC "-//W3C//DTD SVG 1.1//EN" "http://www.w3.org/Graphics/SVG/1.1/DTD/svg11.dtd">
<svg version="1.1" id="Layer_2" xmlns="http://www.w3.org/2000/svg" xmlns:xlink="http://www.w3.org/1999/xlink" x="0px" y="0px"
	 width="655.333px" height="102.587px" viewBox="0 0 655.333 102.587" enable-background="new 0 0 655.333 102.587"
	 xml:space="preserve">
<g>
	<polygon fill="#D84E2B" points="53.833,6.065 54.271,20.667 96.904,20.667 96.904,15.667 59.654,15.875 59.654,10.792 
		96.904,10.917 96.904,6.065 	"/>
	<polygon fill="#D84E2B" points="44.151,97.131 49.146,97.131 49.146,75.063 44.458,76.06 	"/>
	<polygon fill="#D84E2B" points="54.271,97.065 60.021,97.065 59.833,62.354 76.646,62.354 76.333,32.065 81.333,32.065 
		81.646,54.979 96.904,55.042 96.904,25.815 91.083,25.815 91.202,50.065 86.083,50.065 86.146,25.815 71.154,25.815 70.776,56.292 
		54.271,56.31 	"/>
	<polygon fill="#D84E2B" points="5.904,97.065 39.333,97.065 39.333,87.604 5.904,95.808 	"/>
	<polygon fill="#D84E2B" points="65.083,97.065 65.083,86.917 82.146,86.917 88,97.065 76.542,97.131 76.542,91.226 73.333,91.146 
		73.333,97.065 	"/>
	<rect x="5.904" y="6.065" fill="#D84E2B" width="5.929" height="12.727"/>
	<polygon fill="#D84E2B" points="5.904,23.815 11.833,23.815 11.833,35.292 65.896,35.292 65.896,41.104 11.458,41.104 
		11.333,53.815 5.904,53.815 	"/>
	<polygon fill="#D84E2B" points="5.904,58.979 11.333,58.979 11.333,84.042 39.333,77.417 39.333,82.976 5.907,91.146 	"/>
	<polyline fill="#D84E2B" points="96.904,97.065 94.021,97.065 85.401,82.261 65.083,82.261 64.927,67.354 81.708,67.354 
		81.646,60.104 96.904,60.104 96.904,71.761 91.739,71.761 91.583,65.565 86.583,65.565 86.583,71.761 71.154,71.823 71.154,76.823 
		96.904,76.854 96.904,82.479 93.071,82.386 93.071,87.417 96.904,87.479 	"/>
	<polygon fill="#D84E2B" points="16.396,77.604 22.396,76.167 22.364,51.315 65.896,51.315 65.896,46.042 16.396,46.042 	"/>
	<polygon fill="#D84E2B" points="27.396,75.063 49.146,69.761 49.146,56.292 27.396,56.292 27.396,64.667 43.708,61.073 
		44.771,66.042 27.396,69.792 	"/>
	<polygon fill="#D84E2B" points="27.404,21.375 27.404,17.209 37.625,17.209 37.625,30.25 16.917,30.25 16.917,6.112 48.875,6.065 
		49.042,25.815 66.166,25.815 66.166,30.25 42.667,30.25 42.75,12.292 22.404,12.375 22.404,26.292 32.404,26.334 32.404,21.375 	
		"/>
</g>
<g>
	<path fill="#FFFFFF" d="M221.016,39.412c-1.252-3.248-3.326-6.424-6.225-9.525c-2.502-2.699-4.5-4.875-6-6.524
		c-1.5-1.65-2.651-3-3.451-4.05c-0.801-1.051-1.326-1.85-1.574-2.4c-0.251-0.549-0.375-1.073-0.375-1.575
		c0-0.899,0.648-1.898,1.949-3c1.299-1.099,2.9-1.649,4.801-1.649c0.3,0,0.623,0.074,0.975,0.225c0.35,0.15,0.998,0.6,1.95,1.35
		c0.949,0.75,2.273,1.901,3.976,3.45c1.699,1.552,3.998,3.727,6.899,6.525c7.898,7.701,15.173,14.451,21.825,20.25
		c6.648,5.801,13.174,11.051,19.574,15.75c6.398,4.701,12.875,9.025,19.426,12.975c6.549,3.951,13.674,7.926,21.375,11.924
		c0.199-2.197,0.375-4.148,0.525-5.85c0.148-1.699,0.273-3.299,0.375-4.799c0.098-1.5,0.172-3.023,0.225-4.576
		c0.049-1.549,0.074-3.225,0.074-5.025c0-6.6-0.1-12.648-0.299-18.149c-0.203-5.499-0.402-11.101-0.602-16.8
		c-0.1-2-0.4-3.601-0.898-4.801c-0.502-1.199-1.027-2.198-1.576-3c-0.551-0.799-1.049-1.5-1.5-2.1c-0.449-0.6-0.674-1.299-0.674-2.1
		c0-0.9,0.398-1.65,1.199-2.25c0.799-0.601,1.773-1.074,2.926-1.426c1.148-0.349,2.348-0.623,3.6-0.824
		c1.248-0.199,2.324-0.301,3.225-0.301c1.1,0,2.199,0.176,3.301,0.525c1.098,0.352,1.648,1.177,1.648,2.475
		c0,0.802-0.125,1.901-0.375,3.301c-0.25,1.401-0.551,3.876-0.898,7.425c-0.352,3.551-0.652,8.602-0.9,15.149
		c-0.252,6.551-0.375,15.427-0.375,26.625c0,3.402,0.074,6.375,0.225,8.926s0.35,4.801,0.6,6.75c0.248,1.949,0.451,3.676,0.6,5.176
		c0.15,1.5,0.227,2.949,0.227,4.35c0,1.301-0.402,2.451-1.201,3.449c-0.801,1.002-1.725,1.826-2.775,2.475
		c-1.049,0.65-2.125,1.125-3.225,1.426c-1.102,0.301-2.002,0.449-2.699,0.449c-0.6,0-1.125-0.426-1.576-1.273
		c-0.449-0.85-0.975-1.85-1.574-3c-0.6-1.148-1.326-2.375-2.176-3.676c-0.85-1.299-2.023-2.4-3.523-3.301
		c-8.002-4.598-14.951-8.625-20.851-12.074c-5.901-3.449-11.001-6.5-15.3-9.15c-4.301-2.648-7.95-4.973-10.95-6.975
		c-3-2-5.625-3.848-7.875-5.551c-2.25-1.699-4.274-3.323-6.075-4.875c-1.8-1.549-3.6-3.173-5.4-4.875
		c-0.299,2.201-0.576,5.201-0.824,9c-0.251,3.803-0.525,7.928-0.825,12.375c-0.3,4.451-0.675,8.926-1.125,13.426
		s-1.026,8.551-1.726,12.15c-0.501,2.301-1.301,4-2.399,5.1c-1.102,1.1-2.25,1.65-3.45,1.65c-0.502,0-1.125-0.102-1.875-0.301
		c-0.75-0.201-1.451-0.502-2.1-0.9c-0.652-0.398-1.2-0.848-1.65-1.35c-0.449-0.498-0.675-1.049-0.675-1.65
		c0-0.998,0.425-2.523,1.274-4.574c0.85-2.049,1.749-4.801,2.701-8.25c0.949-3.449,1.849-7.65,2.699-12.6
		c0.849-4.951,1.275-10.775,1.275-17.475C222.891,46.687,222.265,42.663,221.016,39.412z"/>
	<path fill="#FFFFFF" d="M342.289,41.586c1.399-5.1,3.649-9.75,6.75-13.95c3.099-4.199,7.073-7.624,11.925-10.274
		c4.85-2.648,10.726-3.976,17.625-3.976c3.999,0,7.801,0.776,11.4,2.325c3.6,1.552,6.75,3.952,9.45,7.2
		c2.7,3.251,4.849,7.401,6.45,12.45c1.598,5.051,2.399,11.024,2.399,17.925c0,6.599-1.026,12.451-3.075,17.55
		c-2.051,5.1-4.776,9.375-8.175,12.824c-3.4,3.451-7.274,6.076-11.625,7.875c-4.35,1.801-8.876,2.701-13.575,2.701
		c-3.7,0-7.45-0.801-11.25-2.4c-3.801-1.6-7.199-3.975-10.199-7.125s-5.452-7.074-7.351-11.775c-1.9-4.699-2.85-10.148-2.85-16.35
		C340.189,51.688,340.888,46.687,342.289,41.586z M352.039,61.987c0.698,3.4,1.974,6.775,3.825,10.125
		c1.85,3.352,4.373,6.275,7.575,8.773c3.199,2.502,7.298,3.75,12.3,3.75c2.1,0,4.448-0.398,7.05-1.199
		c2.6-0.799,5.074-2.299,7.425-4.5c2.349-2.199,4.299-5.225,5.851-9.074c1.549-3.85,2.325-8.775,2.325-14.775
		c0-6.2-0.652-11.4-1.95-15.6c-1.301-4.2-3-7.575-5.101-10.125c-2.1-2.55-4.5-4.399-7.199-5.55c-2.7-1.148-5.501-1.726-8.4-1.726
		c-3.9,0-7.401,0.877-10.5,2.625c-3.101,1.751-5.7,4.076-7.8,6.976c-2.101,2.901-3.701,6.3-4.8,10.199
		c-1.102,3.9-1.65,8.002-1.65,12.3C350.989,55.987,351.339,58.589,352.039,61.987z"/>
	<path fill="#FFFFFF" d="M426.813,89.062c0.45-0.449,0.923-0.676,1.425-0.676c1.399,0,3.049,0.477,4.95,1.426
		c1.898,0.951,4.249,1.426,7.05,1.426c2.7,0,4.875-0.924,6.525-2.775c1.649-1.85,2.475-3.875,2.475-6.076
		c0-1.998-0.476-4.35-1.425-7.049c-0.952-2.701-2.126-5.574-3.525-8.625c-1.401-3.049-2.925-6.199-4.575-9.451
		c-1.649-3.248-3.176-6.398-4.574-9.449c-1.402-3.05-2.576-5.926-3.525-8.625c-0.951-2.7-1.425-5-1.425-6.9
		c0-1.699,0.675-4.125,2.024-7.275c1.351-3.149,3.15-6.323,5.4-9.524c2.25-3.199,4.85-5.975,7.8-8.325
		c2.948-2.349,6.023-3.525,9.226-3.525c0.698,0,1.725,0.075,3.074,0.225c1.351,0.15,2.675,0.4,3.976,0.75
		c1.298,0.352,2.449,0.801,3.45,1.35c0.998,0.551,1.5,1.226,1.5,2.025c0,2.001-0.375,3.3-1.125,3.899
		c-0.75,0.601-2.527,0.952-5.325,1.051c-6.601,0.201-11.351,1.725-14.25,4.574c-2.901,2.851-4.351,6.375-4.351,10.575
		c0,2.602,0.849,5.876,2.551,9.825c1.699,3.951,3.574,8.201,5.625,12.75c2.048,4.552,3.923,9.251,5.625,14.099
		c1.699,4.852,2.55,9.477,2.55,13.875c0,0.803-0.251,2.453-0.75,4.951c-0.502,2.5-1.425,5.076-2.775,7.725
		c-1.35,2.65-3.149,5.025-5.399,7.125s-5.176,3.15-8.775,3.15c-0.9,0-2.051-0.15-3.45-0.451c-1.401-0.299-2.774-0.699-4.125-1.199
		c-1.35-0.502-2.55-1.027-3.6-1.574c-1.05-0.551-1.676-1.074-1.875-1.576c-0.3-0.9-0.551-1.773-0.75-2.625
		c-0.202-0.848-0.3-1.773-0.3-2.775C426.138,90.288,426.362,89.511,426.813,89.062z"/>
	<path fill="#FFFFFF" d="M477.661,89.062c0.45-0.449,0.923-0.676,1.425-0.676c1.399,0,3.049,0.477,4.95,1.426
		c1.898,0.951,4.249,1.426,7.05,1.426c2.7,0,4.875-0.924,6.525-2.775c1.649-1.85,2.475-3.875,2.475-6.076
		c0-1.998-0.476-4.35-1.425-7.049c-0.952-2.701-2.126-5.574-3.525-8.625c-1.401-3.049-2.925-6.199-4.575-9.451
		c-1.649-3.248-3.176-6.398-4.574-9.449c-1.402-3.05-2.576-5.926-3.525-8.625c-0.951-2.7-1.425-5-1.425-6.9
		c0-1.699,0.675-4.125,2.024-7.275c1.351-3.149,3.15-6.323,5.4-9.524c2.25-3.199,4.85-5.975,7.8-8.325
		c2.948-2.349,6.023-3.525,9.226-3.525c0.698,0,1.725,0.075,3.074,0.225c1.351,0.15,2.675,0.4,3.976,0.75
		c1.298,0.352,2.449,0.801,3.45,1.35c0.998,0.551,1.5,1.226,1.5,2.025c0,2.001-0.375,3.3-1.125,3.899
		c-0.75,0.601-2.527,0.952-5.325,1.051c-6.601,0.201-11.351,1.725-14.25,4.574c-2.901,2.851-4.351,6.375-4.351,10.575
		c0,2.602,0.849,5.876,2.551,9.825c1.699,3.951,3.574,8.201,5.625,12.75c2.048,4.552,3.923,9.251,5.625,14.099
		c1.699,4.852,2.55,9.477,2.55,13.875c0,0.803-0.251,2.453-0.75,4.951c-0.502,2.5-1.425,5.076-2.775,7.725
		c-1.35,2.65-3.149,5.025-5.399,7.125s-5.176,3.15-8.775,3.15c-0.9,0-2.051-0.15-3.45-0.451c-1.401-0.299-2.774-0.699-4.125-1.199
		c-1.35-0.502-2.55-1.027-3.6-1.574c-1.05-0.551-1.676-1.074-1.875-1.576c-0.3-0.9-0.551-1.773-0.75-2.625
		c-0.202-0.848-0.3-1.773-0.3-2.775C476.986,90.288,477.211,89.511,477.661,89.062z"/>
	<path fill="#FFFFFF" d="M530.984,41.586c1.399-5.1,3.649-9.75,6.75-13.95c3.099-4.199,7.073-7.624,11.925-10.274
		c4.85-2.648,10.726-3.976,17.625-3.976c3.999,0,7.801,0.776,11.4,2.325c3.6,1.552,6.75,3.952,9.45,7.2
		c2.7,3.251,4.849,7.401,6.45,12.45c1.598,5.051,2.399,11.024,2.399,17.925c0,6.599-1.026,12.451-3.075,17.55
		c-2.051,5.1-4.776,9.375-8.175,12.824c-3.4,3.451-7.274,6.076-11.625,7.875c-4.35,1.801-8.876,2.701-13.575,2.701
		c-3.7,0-7.45-0.801-11.25-2.4c-3.801-1.6-7.199-3.975-10.199-7.125s-5.452-7.074-7.351-11.775c-1.9-4.699-2.85-10.148-2.85-16.35
		C528.885,51.688,529.583,46.687,530.984,41.586z M540.734,61.987c0.698,3.4,1.974,6.775,3.825,10.125
		c1.85,3.352,4.373,6.275,7.575,8.773c3.199,2.502,7.298,3.75,12.3,3.75c2.1,0,4.448-0.398,7.05-1.199
		c2.6-0.799,5.074-2.299,7.425-4.5c2.349-2.199,4.299-5.225,5.851-9.074c1.549-3.85,2.325-8.775,2.325-14.775
		c0-6.2-0.652-11.4-1.95-15.6c-1.301-4.2-3-7.575-5.101-10.125c-2.1-2.55-4.5-4.399-7.199-5.55c-2.7-1.148-5.501-1.726-8.4-1.726
		c-3.9,0-7.401,0.877-10.5,2.625c-3.101,1.751-5.7,4.076-7.8,6.976c-2.101,2.901-3.701,6.3-4.8,10.199
		c-1.102,3.9-1.65,8.002-1.65,12.3C539.685,55.987,540.034,58.589,540.734,61.987z"/>
	<path fill="#FFFFFF" d="M615.508,89.062c0.45-0.449,0.923-0.676,1.425-0.676c1.399,0,3.049,0.477,4.95,1.426
		c1.898,0.951,4.249,1.426,7.05,1.426c2.7,0,4.875-0.924,6.525-2.775c1.649-1.85,2.475-3.875,2.475-6.076
		c0-1.998-0.476-4.35-1.425-7.049c-0.952-2.701-2.126-5.574-3.525-8.625c-1.401-3.049-2.925-6.199-4.575-9.451
		c-1.649-3.248-3.176-6.398-4.574-9.449c-1.402-3.05-2.576-5.926-3.525-8.625c-0.951-2.7-1.425-5-1.425-6.9
		c0-1.699,0.675-4.125,2.024-7.275c1.351-3.149,3.15-6.323,5.4-9.524c2.25-3.199,4.85-5.975,7.8-8.325
		c2.948-2.349,6.023-3.525,9.226-3.525c0.698,0,1.725,0.075,3.074,0.225c1.351,0.15,2.675,0.4,3.976,0.75
		c1.298,0.352,2.449,0.801,3.45,1.35c0.998,0.551,1.5,1.226,1.5,2.025c0,2.001-0.375,3.3-1.125,3.899
		c-0.75,0.601-2.527,0.952-5.325,1.051c-6.601,0.201-11.351,1.725-14.25,4.574c-2.901,2.851-4.351,6.375-4.351,10.575
		c0,2.602,0.849,5.876,2.551,9.825c1.699,3.951,3.574,8.201,5.625,12.75c2.048,4.552,3.923,9.251,5.625,14.099
		c1.699,4.852,2.55,9.477,2.55,13.875c0,0.803-0.251,2.453-0.75,4.951c-0.502,2.5-1.425,5.076-2.775,7.725
		c-1.35,2.65-3.149,5.025-5.399,7.125s-5.176,3.15-8.775,3.15c-0.9,0-2.051-0.15-3.45-0.451c-1.401-0.299-2.774-0.699-4.125-1.199
		c-1.35-0.502-2.55-1.027-3.6-1.574c-1.05-0.551-1.676-1.074-1.875-1.576c-0.3-0.9-0.551-1.773-0.75-2.625
		c-0.202-0.848-0.3-1.773-0.3-2.775C614.833,90.288,615.058,89.511,615.508,89.062z"/>
	<path fill="#FFFFFF" d="M197.767,88.987c-0.45-0.5-1.376-0.85-2.775-1.051c-2.302-0.398-4.776-1.426-7.425-3.074
		c-2.65-1.65-5.351-3.602-8.1-5.852c-2.752-2.25-5.501-4.672-8.25-7.273c-2.752-2.6-5.352-5-7.801-7.201
		c-2.451-2.197-4.725-4.049-6.824-5.549c-2.101-1.5-3.9-2.35-5.4-2.551v-0.301c1.8-0.998,4.125-2.774,6.975-5.324
		c2.851-2.551,5.899-5.4,9.15-8.551c3.248-3.149,6.525-6.349,9.825-9.6c3.3-3.248,6.3-6.023,9-8.325
		c0.698-0.6,1.575-1.099,2.625-1.5c1.05-0.398,2.048-0.75,3-1.05c0.949-0.3,1.774-0.623,2.475-0.975
		c0.698-0.35,1.05-0.773,1.05-1.275c0-0.3-0.375-0.874-1.125-1.725c-0.75-0.849-1.626-1.726-2.625-2.625
		c-1-0.9-2.024-1.699-3.074-2.4c-1.051-0.698-1.875-1.05-2.476-1.05c-0.501,0-1.875,1.075-4.125,3.225
		c-2.25,2.151-4.927,4.8-8.024,7.95c-3.102,3.15-6.427,6.6-9.976,10.35c-3.551,3.75-6.876,7.2-9.975,10.351
		c-3.101,3.149-5.775,5.801-8.025,7.95c-2.25,2.152-3.626,3.224-4.125,3.224c-0.6,0-0.975-0.248-1.125-0.75
		c-0.149-0.499-0.225-1.298-0.225-2.4c0-1.298,0.023-2.699,0.075-4.199c0.049-1.5,0.734-18.891,0.885-21.74
		c0.149-2.85,0.525-6.373,0.534-6.479c0.642-8.125,2.638-8.313,0.285-10.688c-4.166-4.206-13.761,0.313-17.04,3.25
		c-2.795,2.502,3.065,4.125,4.206,8l0.134,0.422c1.666,8.75,1.396,18.886,1.546,24.084c0.149,5.201,0.225,10.402,0.225,15.599
		c0,3.502-0.052,7.051-0.149,10.65c-0.102,3.6-0.226,7.002-0.375,10.201c-0.15,3.201-0.301,6.051-0.45,8.549
		c-0.15,2.502-0.226,4.402-0.226,5.701c0,1.102,0.5,1.975,1.5,2.625c0.999,0.648,1.749,0.975,2.25,0.975
		c0.301,0,0.8-0.102,1.5-0.301c0.699-0.201,1.374-0.475,2.025-0.824c0.649-0.35,1.249-0.773,1.8-1.275
		c0.549-0.5,0.825-1.051,0.825-1.65V83.587c0-3.5,0.023-7.051,0.075-10.65c0.049-3.6,0.124-7.199,0.225-10.801
		c0.398-0.098,0.9-0.199,1.5-0.299c0.601-0.1,1.399-0.15,2.4-0.15c0.698,0,1.474,0.225,2.325,0.676
		c0.848,0.449,2.148,1.424,3.899,2.924c1.749,1.5,4.125,3.652,7.125,6.451c3,2.801,6.949,6.5,11.851,11.1
		c1.999,1.9,3.874,3.727,5.625,5.475c1.748,1.75,3.323,3.301,4.725,4.65c1.399,1.35,2.625,2.451,3.675,3.299
		c1.05,0.852,1.875,1.275,2.476,1.275c0.6,0,1.574-0.225,2.925-0.674c1.35-0.451,2.749-1,4.2-1.65c1.448-0.65,2.723-1.35,3.824-2.1
		c1.1-0.75,1.65-1.375,1.65-1.875C198.441,90.237,198.217,89.487,197.767,88.987z"/>
</g>
</svg>
