<?xml version="1.0" standalone="no"?>
<!DOCTYPE svg PUBLIC "-//W3C//DTD SVG 1.1//EN" "http://www.w3.org/Graphics/SVG/1.1/DTD/svg11.dtd">
<svg width="50px" height="50px" version="1.1" xmlns="http://www.w3.org/2000/svg" xmlns:xlink="http://www.w3.org/1999/xlink" xml:space="preserve" style="fill-rule:evenodd;clip-rule:evenodd;stroke-linejoin:round;stroke-miterlimit:1.41421;">
    <g>
        <g id="Layer1">
            <g>
                <g>
                    <path d="M26.2808,1.00042L26.2808,8.70248L48.9998,8.70248L48.9998,6.17486L29.3517,6.17486L29.3517,3.89463L48.9998,3.89463L48.9998,1.00042L26.2808,1.00042Z" style="fill:rgb(163,174,192);fill-rule:nonzero;"/>
                </g>
                <g>
                    <path d="M21.2551,49.0344L23.8086,49.0344L23.8086,37.3942L21.2551,37.9201L21.2551,49.0344Z" style="fill:rgb(163,174,192);fill-rule:nonzero;"/>
                </g>
                <g>
                    <path d="M26.5116,49.0344L29.5443,49.0344L29.5443,30.6911L38.3135,30.6911L38.3135,14.7148L40.8765,14.7148L40.8765,26.8175L49,26.8175L49,11.4181L45.9608,11.4181L45.9608,24.2093L43.308,24.2093L43.308,11.4181L35.3175,11.4181L35.3175,27.4954L26.5116,27.4954L26.5116,49.0344Z" style="fill:rgb(163,174,192);fill-rule:nonzero;"/>
                </g>
                <g>
                    <path d="M1.00026,49.0344L18.6329,49.0344L18.6329,44.0097L1.00026,48.3366L1.00026,49.0344Z" style="fill:rgb(163,174,192);fill-rule:nonzero;"/>
                </g>
                <g>
                    <path d="M32.2148,49.0344L32.2148,43.7872L41.2148,43.7872L44.3031,49.0344L38.2589,49.0344L38.2589,45.8986L36.5663,45.8986L36.5663,49.0344L32.2148,49.0344Z" style="fill:rgb(163,174,192);fill-rule:nonzero;"/>
                </g>
                <g>
                    <path d="M1.00026,10.3629L4.01208,10.3629L4.01208,16.4167L32.6909,16.4167L32.6909,19.4823L4.01208,19.4823L4.01208,26.1869L1.00026,26.1869L1.00026,10.3629Z" style="fill:rgb(163,174,192);fill-rule:nonzero;"/>
                </g>
                <g>
                    <path d="M1.00026,28.9107L4.01208,28.9107L4.01208,42.1306L18.6329,38.6362L18.6329,41.5679L1.00026,45.8773L1.00026,28.9107Z" style="fill:rgb(163,174,192);fill-rule:nonzero;"/>
                </g>
                <g>
                    <path d="M48.9998,49.0344L47.4782,49.0344L42.932,41.2225L32.1737,41.2225L32.1737,33.3286L40.8769,33.3286L40.8769,29.5045L48.9998,29.5045L48.9998,35.661L46.2339,35.661L46.2339,32.3849L43.5553,32.3849L43.5553,35.661L35.4177,35.661L35.4177,38.3311L48.9998,38.3311L48.9998,41.2225L46.9775,41.2225" style="fill:rgb(163,174,192);fill-rule:nonzero;"/>
                </g>
                <g>
                    <path d="M6.80881,38.7349L9.69036,37.9763L9.69036,24.8683L32.6904,24.8683L32.6904,22.0864L6.80881,22.0864L6.80881,38.7349Z" style="fill:rgb(163,174,192);fill-rule:nonzero;"/>
                </g>
                <g>
                    <path d="M12.3361,37.394L23.8086,34.5975L23.8086,27.4952L12.3361,27.4952L12.3361,31.9105L20.9407,30.0154L21.5008,32.6358L12.3361,34.6138L12.3361,37.394Z" style="fill:rgb(163,174,192);fill-rule:nonzero;"/>
                </g>
                <g>
                    <rect x="1" y="1" width="3.01183" height="6.71305" style="fill:rgb(163,174,192);"/>
                </g>
                <g>
                    <path d="M12.3408,9.07598L12.3408,6.17492L17.7315,6.17492L17.7315,13.7572L6.80871,13.7572L6.80871,1.00047L23.7535,1.00047L23.7535,11.4179L32.6909,11.4179L32.6909,13.7572L20.4131,13.7572L20.4131,3.89467L9.70344,3.89467L9.70344,11.4179L14.9781,11.4179L14.9781,9.07598L12.3408,9.07598Z" style="fill:rgb(163,174,192);fill-rule:nonzero;"/>
                </g>
            </g>
        </g>
    </g>
</svg>
