<?xml version="1.0" standalone="no"?>
<!DOCTYPE svg PUBLIC "-//W3C//DTD SVG 1.1//EN" "http://www.w3.org/Graphics/SVG/1.1/DTD/svg11.dtd">
<svg width="23px" height="23px" version="1.1" xmlns="http://www.w3.org/2000/svg" xmlns:xlink="http://www.w3.org/1999/xlink" xml:space="preserve" style="fill-rule:evenodd;clip-rule:evenodd;stroke-linejoin:round;stroke-miterlimit:1.41421;">
    <g>
        <g>
            <path d="M23,5.78412C23,2.61477 20.5541,0.0454991 17.5368,0.0454991L5.46317,0.0454991C2.44595,0.0454991 0,2.61477 0,5.78412L0,17.2614C0,20.4307 2.44595,23 5.46317,23L17.5368,23C20.5541,23 23,20.4307 23,17.2614L23,5.78412Z" style="fill:rgb(176,32,52);"/>
            <clipPath id="tag1">
                <path d="M23,5.78412C23,2.61477 20.5541,0.0454991 17.5368,0.0454991L5.46317,0.0454991C2.44595,0.0454991 0,2.61477 0,5.78412L0,17.2614C0,20.4307 2.44595,23 5.46317,23L17.5368,23C20.5541,23 23,20.4307 23,17.2614L23,5.78412Z"/>
            </clipPath>
            <g clip-path="url(#tag1)">
                <g>
                    <path d="M11.9371,3.30425L19.6899,4.2919L18.7655,5.21536L19.6899,5.93258L18.6529,6.8593L19.69,12.1144L18.7594,13.0313L19.6899,15.1322L18.7751,16.0519L19.6899,17.0301L18.9698,17.7482L19.6899,19.6959L16.2217,23.1527L-2.01481,24.199L-1.77636e-15,6.63684L3.30998,3.3041L4.33777,4.27438L5.29221,3.30427L9.70836,4.05634L10.7922,4.44952L11.9371,3.30425Z" style="fill:black;fill-opacity:0.329412;"/>
                </g>
            </g>
        </g>
        <g>
            <g>
                <path d="M11.9371,3.30425L11.9371,5.93258L19.6899,5.93258L19.6899,5.07003L12.985,5.07003L12.985,4.2919L19.6899,4.2919L19.6899,3.30425Z" style="fill:rgb(241,229,227);fill-rule:nonzero;"/>
            </g>
            <g>
                <path d="M10.2221,19.6959L11.0934,19.6959L11.0934,15.7237L10.2221,15.9031Z" style="fill:rgb(241,229,227);fill-rule:nonzero;"/>
            </g>
            <g>
                <path d="M12.0158,19.6959L13.0508,19.6959L13.0508,13.4362L16.0433,13.4362L16.0433,7.98429L16.9179,7.98429L16.9179,12.1144L19.69,12.1144L19.69,6.8593L18.6529,6.8593L18.6529,11.2243L17.7476,11.2243L17.7476,6.8593L15.0209,6.8593L15.0209,12.3457L12.0158,12.3457Z" style="fill:rgb(241,229,227);fill-rule:nonzero;"/>
            </g>
            <g>
                <path d="M3.31007,19.6959L9.32722,19.6959L9.32722,17.9812L3.31007,19.4577Z" style="fill:rgb(241,229,227);fill-rule:nonzero;"/>
            </g>
            <g>
                <path d="M13.9621,19.6959L13.9621,17.9053L17.0333,17.9053L18.0872,19.6959L16.0246,19.6959L16.0246,18.6258L15.447,18.6258L15.447,19.6959Z" style="fill:rgb(241,229,227);fill-rule:nonzero;"/>
            </g>
            <g>
                <path d="M3.31007,6.49922L4.33786,6.49922L4.33786,8.56505L14.1245,8.56505L14.1245,9.6112L4.33786,9.6112L4.33786,11.8991L3.31007,11.8991Z" style="fill:rgb(241,229,227);fill-rule:nonzero;"/>
            </g>
            <g>
                <path d="M3.31007,12.8287L4.33786,12.8287L4.33786,17.3399L9.32722,16.1475L9.32722,17.1479L3.31007,18.6185Z" style="fill:rgb(241,229,227);fill-rule:nonzero;"/>
            </g>
            <g>
                <path d="M19.6899,19.6959L19.1707,19.6959L17.6193,17.0301L13.948,17.0301L13.948,14.3363L16.918,14.3363L16.918,13.0313L19.6899,13.0313L19.6899,15.1322L18.7461,15.1322L18.7461,14.0142L17.832,14.0142L17.832,15.1322L15.055,15.1322L15.055,16.0434L19.6899,16.0434L19.6899,17.0301" style="fill:rgb(241,229,227);fill-rule:nonzero;"/>
            </g>
            <g>
                <path d="M5.29224,16.1812L6.27557,15.9223L6.27557,11.4492L14.1244,11.4492L14.1244,10.4999L5.29224,10.4999Z" style="fill:rgb(241,229,227);fill-rule:nonzero;"/>
            </g>
            <g>
                <path d="M7.17845,15.7236L11.0934,14.7693L11.0934,12.3456L7.17845,12.3456L7.17845,13.8524L10.1148,13.2056L10.3059,14.0998L7.17845,14.7748Z" style="fill:rgb(241,229,227);fill-rule:nonzero;"/>
            </g>
            <g>
                <rect x="3.30998" y="3.3041" width="1.02779" height="2.29083" style="fill:rgb(241,229,227);"/>
            </g>
            <g>
                <path d="M7.18003,6.06004L7.18003,5.07005L9.01961,5.07005L9.01961,7.65752L5.29221,7.65752L5.29221,3.30427L11.0746,3.30427L11.0746,6.85923L14.1245,6.85923L14.1245,7.65752L9.93472,7.65752L9.93472,4.29191L6.28004,4.29191L6.28004,6.85923L8.08002,6.85923L8.08002,6.06004Z" style="fill:rgb(241,229,227);fill-rule:nonzero;"/>
            </g>
        </g>
    </g>
</svg>
