<?xml version="1.0" standalone="no"?>
<!DOCTYPE svg PUBLIC "-//W3C//DTD SVG 1.1//EN" "http://www.w3.org/Graphics/SVG/1.1/DTD/svg11.dtd">
<svg width="23px" height="23px" version="1.1" xmlns="http://www.w3.org/2000/svg" xmlns:xlink="http://www.w3.org/1999/xlink" xml:space="preserve" style="fill-rule:evenodd;clip-rule:evenodd;stroke-linejoin:round;stroke-miterlimit:1.41421;">
    <g>
        <path d="M12.1137,0.000202195L12.1137,3.69077L22.9999,3.69077L22.9999,2.47962L13.5852,2.47962L13.5852,1.38701L22.9999,1.38701L22.9999,0.000202195Z" style="fill:rgb(127,29,59);fill-rule:nonzero;"/>
        <path d="M9.70559,23.0165L10.9291,23.0165L10.9291,17.4389L9.70559,17.6909Z" style="fill:rgb(127,29,59);fill-rule:nonzero;"/>
        <path d="M12.2243,23.0165L13.6775,23.0165L13.6775,14.227L17.8794,14.227L17.8794,6.57167L19.1075,6.57167L19.1075,12.3709L23,12.3709L23,4.99202L21.5437,4.99202L21.5437,11.1211L20.2726,11.1211L20.2726,4.99202L16.4438,4.99202L16.4438,12.6957L12.2243,12.6957Z" style="fill:rgb(127,29,59);fill-rule:nonzero;"/>
        <path d="M0.000126372,23.0165L8.4491,23.0165L8.4491,20.6088L0.000126372,22.6821Z" style="fill:rgb(127,29,59);fill-rule:nonzero;"/>
        <path d="M14.9571,23.0165L14.9571,20.5022L19.2696,20.5022L20.7494,23.0165L17.8532,23.0165L17.8532,21.5139L17.0422,21.5139L17.0422,23.0165Z" style="fill:rgb(127,29,59);fill-rule:nonzero;"/>
        <path d="M0.000126372,4.48641L1.44329,4.48641L1.44329,7.38715L15.1852,7.38715L15.1852,8.8561L1.44329,8.8561L1.44329,12.0687L0.000126372,12.0687Z" style="fill:rgb(127,29,59);fill-rule:nonzero;"/>
        <path d="M0.000126372,13.3739L1.44329,13.3739L1.44329,19.7084L8.4491,18.034L8.4491,19.4388L0.000126372,21.5037Z" style="fill:rgb(127,29,59);fill-rule:nonzero;"/>
        <path d="M22.9999,23.0165L22.2708,23.0165L20.0924,19.2733L14.9374,19.2733L14.9374,15.4908L19.1077,15.4908L19.1077,13.6584L22.9999,13.6584L22.9999,16.6084L21.6746,16.6084L21.6746,15.0386L20.3911,15.0386L20.3911,16.6084L16.4918,16.6084L16.4918,17.8878L22.9999,17.8878L22.9999,19.2733L22.0309,19.2733" style="fill:rgb(127,29,59);fill-rule:nonzero;"/>
        <path d="M2.78339,18.0813L4.16413,17.7178L4.16413,11.4369L15.185,11.4369L15.185,10.1039L2.78339,10.1039Z" style="fill:rgb(127,29,59);fill-rule:nonzero;"/>
        <path d="M5.4319,17.4388L10.9291,16.0988L10.9291,12.6956L5.4319,12.6956L5.4319,14.8113L9.55491,13.9032L9.82332,15.1588L5.4319,16.1066Z" style="fill:rgb(127,29,59);fill-rule:nonzero;"/>
        <rect x="0" y="7.10543e-15" width="1.44317" height="3.21667" style="fill:rgb(127,29,59);"/>
        <path d="M5.43412,3.86974L5.43412,2.47965L8.01716,2.47965L8.01716,6.11284L2.78334,6.11284L2.78334,0.00022747L10.9027,0.00022747L10.9027,4.99192L15.1852,4.99192L15.1852,6.11284L9.30211,6.11284L9.30211,1.38703L4.1704,1.38703L4.1704,4.99192L6.69784,4.99192L6.69784,3.86974Z" style="fill:rgb(127,29,59);fill-rule:nonzero;"/>
    </g>
</svg>
