<?xml version="1.0" standalone="no"?>
<!DOCTYPE svg PUBLIC "-//W3C//DTD SVG 1.1//EN" "http://www.w3.org/Graphics/SVG/1.1/DTD/svg11.dtd">
<svg width="50px" height="50px" version="1.1" xmlns="http://www.w3.org/2000/svg" xmlns:xlink="http://www.w3.org/1999/xlink" xml:space="preserve" style="fill-rule:evenodd;clip-rule:evenodd;stroke-linejoin:round;stroke-miterlimit:1.41421;">
    <g>
        <g id="_84203480">
            <path id="_49116176" d="M1.66954,25C1.66954,12.1368 12.1354,1.66998 25.0002,1.66998C37.8618,1.66998 48.3266,12.1369 48.3266,25C48.3266,37.8663 37.8618,48.3303 25.0002,48.3303C12.1353,48.3301 1.66954,37.8662 1.66954,25ZM1,25C1,38.235 11.7668,49 25.0002,49C38.2332,49 49,38.235 49,25C49,11.7654 38.2332,1 25.0002,1C11.7668,1 1,11.7653 1,25Z" style="fill:rgb(163,174,192);fill-rule:nonzero;"/>
            <path id="_48873840" d="M40.7669,28.9036C40.1114,29.5118 39.1864,29.5208 38.4374,30.015C38.0952,30.3573 38.1806,30.75 38.3208,31.1828C38.5984,31.7296 38.4928,31.6744 38.1072,31.8031C37.2032,32.1041 37.2122,33.0939 36.1231,32.9296C36.0616,32.947 35.8077,32.8187 35.9597,33.003C36.0767,33.1404 36.1231,33.0585 36.3544,33.0849C36.7411,33.1049 36.8872,32.9439 37.1589,32.7595C37.5453,32.4323 37.4983,32.3093 37.9784,32.0809C38.0922,32.0517 38.373,31.9702 38.5311,32.0257C38.6365,32.1223 38.6398,32.1251 38.6569,32.2128C38.5955,32.4787 38.2096,32.6984 38.0599,32.7889C38.2651,32.9386 38.6456,33.1905 38.5811,33.4007C38.4927,33.5409 38.4986,33.565 38.3466,33.6375C38.1304,33.743 37.7004,33.7252 37.2936,33.4239C37.2321,33.4443 37.1648,33.3072 36.9926,33.4713C37.3872,33.8782 37.9401,33.7866 38.0225,33.869C38.1071,33.9505 37.7267,34.442 37.7122,34.5476C37.4455,35.2532 37.7708,35.9026 37.6298,36.6366C37.5422,37.2075 37.3691,37.4796 36.8698,37.8427C35.9477,38.4804 35.3012,38.6648 34.2712,38.8318C31.5621,39.0158 29.8532,38.0855 27.905,36.6279C25.9532,35.1708 25.207,34.3986 24.5989,33.5791C24.5899,33.2427 24.8356,32.9879 24.6253,32.6255C24.4492,32.687 24.467,32.9176 24.3614,33.0493C24.2094,33.2627 23.8498,33.4178 23.5922,33.3917C22.7907,33.1198 22.7466,32.1775 22.2433,31.6386C21.1698,30.5794 20.8681,29.0521 21.4418,27.7735C21.6434,27.3786 22.0065,26.998 22.4131,26.8572C22.9136,26.7786 23.5044,26.7786 23.8319,27.2641C24.2184,27.6333 24.4581,28.2327 24.5546,28.7622C24.7126,29.017 24.5196,29.3098 24.7831,29.5203C25.2422,29.5644 25.6368,29.6783 26.0788,29.3974C26.4068,29.4415 26.4504,29.8043 26.6989,29.9622L27.1376,30.2257C27.6058,30.4183 28.2088,30.4183 28.6034,30.076C29.3442,29.3188 29.1831,28.5375 29.4379,27.7001C30.1456,27.0745 30.6138,26.1786 30.6047,25.3035C30.5615,24.7659 30.3682,24.2092 30.049,23.6735C30.1015,23.3553 30.2803,23.1177 30.3823,22.8338C30.4729,22.7814 30.5875,22.7814 30.6839,22.7642C31.4707,22.5971 32.1851,21.8834 32.4921,21.1311L32.5625,21.0607C33.4635,20.9995 34.584,20.6801 35.1017,19.7388C35.2102,19.332 35.6664,19.6332 35.9501,19.5364C36.4274,19.5104 36.9036,19.2437 37.2639,18.9365C37.3685,18.9014 37.4482,19.0157 37.5124,19.0683C37.723,19.7731 38.1094,20.4525 38.3319,21.1694C38.6036,21.705 38.7033,22.2167 38.6036,22.7642C38.7177,23.6011 39.1979,24.3881 39.5311,25.2338C39.865,26.1261 40.3856,27.0242 40.7661,27.9432C40.8365,28.3124 40.9944,28.6054 40.7669,28.9036ZM40.9512,27.3643C40.3159,25.8983 39.6023,24.6403 39.0817,23.1656C38.7103,22.6359 38.9237,22.0743 38.8765,21.5062C38.6399,20.6254 38.2682,19.9466 37.9172,19.089C37.8175,18.8433 38.0924,18.7737 38.1889,18.5975C38.3469,18.1646 38.2362,17.6793 38.04,17.2635C37.9613,17.0259 38.2443,16.8597 38.1889,16.614C38.1807,16.2336 37.8467,15.9759 37.5809,15.7743C37.1823,15.2004 36.998,14.8994 36.5037,14.3811L36.5037,14.2815C36.7523,14.062 36.9547,13.6821 36.9488,13.3572C36.8491,12.9885 36.7704,12.6433 36.4159,12.3855C35.8512,12.0694 35.2783,12.5639 34.8303,12.8187C34.7047,12.9061 34.6432,12.9947 34.4672,12.9798C34.3533,12.9385 34.2365,12.8952 34.1136,12.851C33.9991,12.9826 33.8561,13.1236 33.6836,13.2607L34.2305,13.4833C34.2482,13.4984 34.2566,13.5093 34.2566,13.5303C34.2566,13.5385 34.2507,13.5567 34.2507,13.5708C34.2133,13.6031 32.9813,14.6832 32.9813,14.6832C32.9783,14.6855 30.7633,16.8714 30.7633,16.8714C30.7633,16.8742 30.1313,17.5186 30.1313,17.5186C30.1262,17.5214 28.1598,19.789 28.1598,19.789C27.1299,20.9831 25.608,22.9404 24.6957,24.374C24.2186,25.0294 23.7444,25.7584 23.3026,26.449C23.2562,26.5249 23.1655,26.5186 23.0217,26.5016C22.9252,26.4894 22.8232,26.4813 22.735,26.5104L22.7378,26.5104L22.7176,26.5158C22.7236,26.5135 22.7296,26.5135 22.735,26.5104C22.2345,26.566 21.869,26.733 21.4803,27.0835C20.977,27.6807 20.7223,28.4005 20.7223,29.1788C20.7223,29.7144 20.8423,30.2791 21.0878,30.8438C20.9852,31.1481 20.7487,31.4148 20.5351,31.6515L20.4152,31.7831L20.2632,31.9352C20.1666,32.0261 20.0521,32.134 19.9732,32.2364L19.9645,32.2455L19.9583,32.2596C19.9501,32.2919 19.9442,32.3533 20.0438,32.4003L20.0669,32.4148L20.0933,32.4093C20.5583,32.2978 20.851,31.9465 21.1349,31.6073C21.1349,31.6073 21.3134,31.4025 21.3394,31.3703C21.3835,31.3644 21.419,31.3877 21.4773,31.4408C21.5096,31.4672 21.5469,31.4904 21.5882,31.5104C21.5882,31.5227 21.5882,31.5345 21.5882,31.5345C21.5882,31.5345 21.5823,31.6865 21.5823,31.7215C20.4797,32.8102 19.5808,33.4243 18.405,34.115L18.2088,34.2289L18.4373,34.2529C18.8943,34.2995 19.3302,34.0415 19.751,33.7928L20.2573,33.5149C20.7223,33.2753 21.1552,32.9099 21.5769,32.5585C21.5769,32.5585 21.9538,32.2422 21.9947,32.2071C22.036,32.2162 22.0793,32.2653 22.1116,32.3066C22.1116,32.3066 22.1386,32.3328 22.1557,32.3509C22.1617,32.3622 22.5071,33.0469 22.5275,33.0878C22.4489,33.4099 22.4165,33.7345 22.4165,34.0594C22.4165,34.7645 22.5685,35.4699 22.7177,36.1577C22.8667,36.8363 23.0188,37.5353 23.0188,38.223C23.0188,38.27 23.0188,38.3135 23.016,38.3578C23.016,38.5713 22.7853,38.8519 22.5891,38.9426C22.15,39.016 21.6145,39.022 21.0527,39.028C20.3601,39.0332 19.6431,39.0392 19.0925,39.1883C18.9175,39.2093 18.7121,39.2676 18.5136,39.323C18.3202,39.3754 18.1182,39.4346 17.9307,39.458L17.9135,39.4608L17.8903,39.4781L17.8228,39.5253C17.7615,39.5629 17.6823,39.6129 17.6649,39.7036C17.6649,39.7126 17.6618,39.7209 17.6618,39.7299C17.6618,39.7794 17.6849,39.8415 17.7262,39.8788C17.7645,39.9202 17.8109,39.9373 17.861,39.9353C18.0272,39.9353 18.2145,39.8647 18.3958,39.8005C18.5216,39.7533 18.6533,39.7069 18.7733,39.6858C19.9238,39.4902 21.1812,39.5284 22.0358,39.5981C22.4568,39.5921 23.1472,39.5779 23.396,38.9779C23.4865,38.735 23.5188,38.5097 23.5188,38.293C23.5188,38.0535 23.4812,37.825 23.4433,37.5884L23.3668,37.0055C23.3174,36.6518 23.2409,36.2976 23.1681,35.9523C23.0392,35.347 22.9076,34.7206 22.9076,34.0856C22.9076,33.9567 22.9136,33.8278 22.925,33.6989C22.9369,33.6816 22.951,33.6637 22.9691,33.6614C23.0042,33.6555 23.0686,33.708 23.1211,33.7493C23.1793,33.7924 23.2407,33.8398 23.3082,33.8572C23.3846,33.9123 23.4693,33.9306 23.548,33.9396C23.6595,33.9537 23.7181,33.9687 23.7532,34.0534C23.7996,34.6092 23.993,35.1859 24.1801,35.7448C24.309,36.1275 24.4408,36.5231 24.5255,36.9118C24.6775,37.5884 24.8296,38.2759 24.8296,38.9547C24.8296,39.3586 24.7771,39.7592 24.634,40.1519C24.3413,40.6896 23.695,40.6896 23.0748,40.6926L22.8873,40.6926L21.3596,40.5989C20.0517,40.5053 18.6977,40.4088 17.3102,40.6313C17.3194,40.6313 17.0003,40.6664 17.0003,40.6664C16.8282,40.6928 16.6672,40.7137 16.4938,40.6723C16.4297,40.62 16.3772,40.5316 16.3772,40.4352C16.3772,40.4056 16.3831,40.3765 16.3951,40.3473C16.6439,39.8007 16.7667,39.306 16.7667,38.8671C16.7667,38.5127 16.6843,38.1967 16.5232,37.9159C16.1637,37.2281 15.7689,36.7517 15.2828,36.4177C14.6858,35.8236 14.1773,35.294 13.7236,34.7795C13.4607,34.7472 13.2996,34.6941 13.2785,34.6887L13.2204,34.6678L12.9573,34.9958C13.2996,35.3204 13.6186,35.6483 14.0045,35.9998C14.5952,36.318 15.0725,36.8919 15.4963,37.2815C16.0087,37.8777 16.1315,38.5128 16.0228,39.2208C15.9562,40.0584 15.1892,40.4207 14.6688,40.9737C14.4553,41.3714 14.3234,41.8485 14.6133,42.217C14.8004,42.7122 15.593,42.624 15.6896,43.0305C15.909,43.9265 17.4625,44.444 17.7672,44.4644C18.0684,44.4854 18.3814,44.8218 18.3814,44.8218C18.9986,45.2724 19.8091,45.1609 20.236,45.0966C20.6606,45.0321 21.4215,45.3775 21.9011,45.3069C22.6119,45.023 23.1976,45.1549 23.9376,45.0935C26.2662,45.1286 28.9116,45.0761 31.2927,45.3774C31.7346,45.325 32.2612,45.6673 32.6768,45.4566C32.7846,45.2777 32.7031,45.1286 32.6768,44.9795C31.5385,43.1886 31.3691,41.1788 32.0155,39.2298L32.4424,39.2529C33.9906,39.4226 35.395,39.2206 36.9633,38.3135C37.7468,37.8805 38.1597,36.8714 38.1243,36.1366C38.0982,35.6625 37.9341,35.1008 38.0136,34.5979C38.0428,34.3726 38.1888,34.0303 38.385,33.9247C38.4636,33.8783 38.7536,33.6819 38.8442,33.4301C38.9935,33.0235 38.6748,32.8301 38.5812,32.7746C38.8329,32.6721 39.0727,32.1635 38.8442,31.765C38.6981,31.6098 38.5251,30.9895 38.5079,30.7882C38.4523,30.4954 38.4436,30.1971 38.7184,30.0101C39.3355,29.6847 39.9181,29.6054 40.5616,29.3223C41.0035,29.1373 41.2319,28.678 41.2141,28.2651ZM15.7372,41.907C15.6577,42.0508 15.6667,42.1441 15.6314,42.3135C15.5873,42.393 15.3677,42.2874 15.2982,42.2439C15.0256,42.0972 15.0433,42.1737 14.9641,41.9189C14.9209,41.7488 14.9237,41.5502 15.2076,41.4013C15.3828,41.3016 15.7372,41.1818 15.8511,41.4013C15.886,41.5502 15.7108,41.7404 15.7372,41.907ZM17.2404,43.8149C16.8779,43.8236 16.626,43.6247 16.4599,43.2004C16.2898,42.656 16.2314,42.1796 16.3484,41.6175C16.3863,41.5501 16.465,41.5032 16.5181,41.527L17.0215,41.354C17.1908,41.2866 17.3319,41.2633 17.492,41.3015L17.5916,41.4034C17.5854,41.6961 17.513,41.9128 17.5069,42.1846C17.4775,42.8672 17.4192,43.0717 17.615,43.7212C17.5422,43.8942 17.396,43.8117 17.2404,43.8149ZM37.9663,18.4426C37.917,18.4951 37.8556,18.5564 37.7738,18.536C37.5867,18.4044 37.6563,18.2379 37.6682,18.08C37.7064,18.0418 37.7123,18.0217 37.7738,18.0217C37.8615,18.0036 37.9109,18.0709 37.9432,18.1181C37.9986,18.2201 38.0077,18.337 37.9663,18.4426ZM23.657,26.7027C24.8912,24.4877 26.3893,22.5655 27.9958,20.5901L30.2458,18.0327C31.8487,16.3213 33.6222,14.5653 35.5885,13.2081C35.8371,13.067 35.945,12.7749 36.1996,12.9795L36.431,13.193C36.586,13.3688 36.4514,13.8693 36.2931,14.0095C36.1642,14.1152 36.0415,14.2148 35.9188,14.3165C36.3021,14.6969 36.8578,15.4201 37.311,15.888C37.5104,16.0928 37.4489,16.3067 37.8061,16.4702C37.9845,16.5557 38.0367,16.7511 37.929,16.9181C37.6127,17.3249 37.0862,17.2635 36.6708,17.3691C35.1257,17.7113 33.8792,18.1528 32.1709,18.9812C30.8047,19.7072 29.7133,20.5086 28.7217,21.752C28.3441,22.2203 27.9194,22.5745 27.6033,23.1362C26.7025,24.2922 25.9885,25.3776 25.2718,26.5688C25.0169,26.9434 24.9355,27.1305 24.5752,27.4668C24.4031,27.6339 24.248,27.2884 24.1392,27.1686C24.1282,27.1567 24.1191,27.1386 24.1101,27.1273C24.075,27.1335 24.0376,27.1245 23.9995,27.1013C23.9025,26.9752 23.6016,26.9221 23.657,26.7027ZM37.2586,18.1496C37.2355,18.5774 36.6647,18.931 36.1875,19.0627C35.9862,19.0949 35.7988,19.0836 35.6177,19.0836C35.5703,19.0517 35.5181,19.0102 35.524,18.9633C35.5563,18.7616 35.5885,18.6417 35.6026,18.4605L35.7196,18.3722C36.1411,18.2875 36.6557,18.1969 37.0803,18.0859C37.1417,18.0972 37.2204,18.0913 37.2586,18.1496ZM32.8262,19.2652L32.9026,19.1655C33.2498,19.0012 33.5692,18.8724 33.9525,18.7646L34.4117,18.6449C34.5346,18.5333 34.7481,18.4427 34.874,18.6008C34.88,19.1947 34.4358,19.9116 33.7773,20.1836C33.5694,20.2741 33.2944,20.3033 33.0488,20.3656C32.9873,20.3124 32.788,20.424 32.7267,20.2741C32.7647,19.976 32.8784,19.5309 32.8262,19.2652ZM28.1188,29.8198C27.9958,29.8894 26.9278,29.4826 27.0534,29.5941C26.7989,29.3225 27.2145,29.231 26.2723,28.8774L26.0439,28.9005C26.0148,28.927 25.9329,28.9711 25.8483,28.8542C25.8396,28.7103 26.0267,28.7307 26.085,28.5551C26.4213,27.7973 26.2342,27.2092 26.2019,26.425L26.4507,25.7815C26.9246,25.2136 26.9218,25.1321 27.2436,24.8221C27.5629,24.3712 27.6304,24.3357 28.0601,23.9674C28.1305,23.906 28.2588,23.8595 28.344,23.9292C28.5456,24.0871 28.5575,24.1927 28.616,24.3944C28.7156,25.1435 28.2615,25.6588 27.7149,26.0656C27.3282,26.3988 26.9569,26.9203 27.0415,27.4319L27.0738,27.4639C27.2528,27.3177 27.4752,27.2304 27.5508,27.0452C27.8467,26.3847 28.6421,26.0829 29.0872,25.5096C29.2834,25.1645 29.1627,24.5705 29.0872,24.1727C29.0872,24.1837 29.672,23.8938 29.5141,23.9966C29.7921,24.1135 29.7567,24.3126 29.8914,24.5673C30.1552,25.2287 30.1313,25.8281 29.7274,26.4019L28.6161,27.7892C28.5988,28.4937 28.7913,29.4039 28.1188,29.8198ZM29.5844,23.1071C29.3179,23.2299 29.0429,23.2563 28.7476,23.1184C28.6712,23.0187 28.4286,22.934 28.5251,22.7852C28.739,22.4366 29.1013,22.1498 29.3237,21.8075L29.4293,21.752C29.8794,21.2082 30.5939,20.7484 31.2695,20.3384L31.6764,20.1603C31.7669,20.0726 31.9744,19.8882 32.0536,20.0785C32.071,20.7895 31.7697,21.5504 31.0912,22.0532C30.6816,22.3579 30.5031,22.2995 30.137,22.3227L29.9467,22.6622C29.9035,22.8315 29.7544,23.0045 29.5844,23.1071ZM25.8424,27.1655L25.8246,27.6689C25.7781,28.1281 25.5675,28.6578 25.1347,28.9123C24.8771,28.8511 24.9704,28.5408 24.9063,28.3296C25.0732,27.8735 25.3914,27.4931 25.6581,27.0863C25.6962,27.0599 25.7308,27.0426 25.769,27.0599ZM19.7014,44.6546C19.5225,44.8389 19.4206,44.7542 19.2384,44.7721C18.718,44.6282 18.4139,44.4056 18.2678,43.8176C18.0744,42.9985 18.0828,42.0972 18.2678,41.2575L18.3494,41.193C18.7149,41.1525 19.2654,41.0791 19.4174,41.1607C19.5667,41.2433 19.2564,42.7175 19.2564,42.7175C19.2445,43.0104 19.3884,43.7594 19.5225,44.146C19.5495,44.2044 19.8504,44.5025 19.7014,44.6546ZM23.4696,43.7443C23.4141,44.2718 22.7528,44.7339 22.4278,44.8276C22.1035,44.9213 21.1382,44.8739 20.8602,44.7774C20.5793,44.6806 19.9,43.3556 19.9795,42.668C19.9795,42.0972 20.1343,41.196 20.3622,41.1226C20.5906,41.0528 21.1934,41.0881 21.1934,41.0881C21.445,41.07 21.6384,41.1314 21.86,41.1578C22.0151,41.2192 21.9072,41.4155 21.9596,41.5292C22.033,41.8223 22.0501,42.1413 22.2321,42.4336C22.4862,42.9255 22.9512,43.2176 23.4141,43.3907C23.516,43.4873 23.4577,43.6164 23.4696,43.7443ZM22.7265,41.5183C22.7265,41.4123 22.7328,41.3689 22.8111,41.3338L23.2471,41.3338C23.6366,41.348 24.1341,41.4737 24.4966,41.0993C24.7039,41.1081 24.7218,41.354 24.7775,41.5474C24.8267,41.8133 24.8156,41.9834 24.8156,42.2229C24.7278,42.4132 24.6313,42.7031 24.4351,42.8259C24.1222,42.9721 23.8058,42.9429 23.5047,42.8259C23.051,42.557 22.7205,42.1264 22.7265,41.5183ZM31.6561,39.4347C31.0735,41.4568 30.7956,42.4977 31.7057,44.5786C31.7144,44.6574 31.8021,44.9181 31.7057,44.9504C30.699,44.748 30.4328,44.6605 29.4876,44.5932C28.616,44.4411 27.1644,44.6837 26.1968,44.6756C25.4388,44.7017 24.6688,44.7281 23.8763,44.8247C23.6389,44.7017 23.8239,44.435 23.8409,44.2599C23.9287,43.988 23.9377,43.847 23.9639,43.5281C24.0867,43.3969 24.2387,43.4666 24.3879,43.4051C24.897,43.3266 25.33,42.8757 25.4529,42.3992C25.614,41.8989 25.4388,41.3424 25.2072,40.8659C25.164,40.7252 24.9705,40.6173 25.0493,40.4762C25.6753,39.3035 25.2336,38.1123 25.0231,36.9685C24.8034,36.1547 24.4672,35.2558 24.3323,34.3991C24.3615,34.3114 24.2478,34.1062 24.4411,34.0919L24.5113,34.1062C25.1812,34.9194 27.1007,36.6371 27.8196,37.1961C28.5372,37.755 30.3945,38.8382 31.6029,39.1273C31.7176,39.2235 31.6997,39.3031 31.6561,39.4347Z" style="fill:rgb(163,174,192);fill-rule:nonzero;"/>
            <path id="_48164760" d="M36.7522,21.8718C36.8751,22.0329 36.9574,22.1739 36.8578,22.3229C36.6294,22.3401 36.5942,22.051 36.4017,21.9542C36.0826,21.7962 35.7987,21.9623 35.4828,22.0419C34.6815,22.3874 34.0112,23.0747 33.2328,23.4343C33.136,23.4343 33.0485,23.4255 32.9872,23.3558C33.1189,23.2238 33.3323,23.1975 33.4994,23.0891C34.3011,22.5626 35.0792,21.7348 36.0828,21.5826C36.3486,21.5647 36.5861,21.6615 36.7522,21.8718Z" style="fill:rgb(163,174,192);fill-rule:nonzero;"/>
            <path id="_82784152" d="M36.6911,23.2331C36.6296,23.0368 36.6386,22.7205 36.402,22.6764C36.3488,22.7999 36.402,22.9342 36.3488,23.0487C36.2763,23.1362 36.1527,23.2412 36.0125,23.2061C35.0412,23.2681 34.3182,24.122 33.4907,24.5639C33.2068,24.7222 32.8907,24.8128 32.5898,24.8915C32.5634,24.9357 32.5717,24.9971 32.6158,25.0231C33.5341,25.1199 34.4411,25.2074 35.3513,25.304L36.3639,25.1902C36.3931,25.0586 36.232,24.9445 36.2583,24.7923C36.3752,24.3798 36.4103,23.9288 36.2965,23.5401C36.3752,23.3295 36.6742,23.487 36.6911,23.2331ZM35.9834,24.7978C35.8576,24.9827 35.6613,24.8219 35.4892,24.8452C35.0915,24.7978 34.4211,24.8916 33.9821,24.8361C33.9146,24.7978 33.8682,24.7311 33.9059,24.6696C33.9733,24.5581 34.1575,24.5521 34.2719,24.4674C34.7515,24.1694 35.2548,23.8826 35.8024,23.7537C35.902,23.7388 35.9835,23.8211 36.0008,23.8914C36.0649,24.1452 36.0247,24.5521 35.9834,24.7978Z" style="fill:rgb(163,174,192);fill-rule:nonzero;"/>
            <path id="_81751608" d="M37.2063,27.7799C37.2355,27.7327 37.2738,27.6803 37.317,27.6771C37.3725,27.6984 37.4048,27.7244 37.4138,27.8323C37.4048,28.0024 37.3643,28.1805 37.317,28.3711C37.2646,28.5846 37.2091,28.8068 37.2091,29.0233C37.2091,29.117 37.2204,29.2136 37.2468,29.3074C37.3725,29.4652 37.5719,29.5035 37.8061,29.4211C37.8115,29.4181 38.2097,29.1905 38.2097,29.1905C38.5551,28.9853 38.8793,28.7899 39.4884,28.6347C39.4995,28.6317 39.5025,28.6372 39.5054,28.64C39.5177,28.6489 39.5205,28.6722 39.5205,28.7013C39.5205,28.7517 39.5054,28.8242 39.4794,28.8807C39.4562,28.8916 38.8974,29.1406 38.8974,29.1406C38.4587,29.3336 38.0017,29.5329 37.5744,29.7787C37.4488,29.8019 37.3319,29.7346 37.2203,29.6672L37.1911,29.653C37.0302,29.4305 36.9778,29.217 36.9778,29.0003C36.9778,28.807 37.0189,28.614 37.0624,28.4155C37.1005,28.2312 37.1447,28.0409 37.153,27.8385C37.1682,27.824 37.2063,27.7799 37.2063,27.7799Z" style="fill:rgb(163,174,192);fill-rule:nonzero;"/>
            <path id="_111035472" d="M23.4608,27.5987C23.7798,28.251 23.4438,28.868 23.4608,29.5468C23.5135,29.7402 23.8938,29.7666 23.7798,29.9978C23.6923,30.0593 23.5663,30.0764 23.4698,30.0069C23.2946,29.8922 23.2322,29.8047 23.1889,29.5999C23.1416,29.0031 23.6189,28.3033 23.198,27.7384C23.075,27.6158 22.8959,27.4929 22.7206,27.4838C22.3401,27.5544 22.1471,27.9609 22.0151,28.2599C21.8136,29.0523 21.7582,29.8921 22.4571,30.5274C22.8639,30.7641 23.3558,31.0217 23.3851,31.5342C23.4436,31.6217 23.5662,31.7063 23.666,31.6572C23.7888,31.6481 23.806,31.2939 23.9814,31.4638L24.0346,31.5837C23.9905,31.7267 23.9471,31.973 23.7186,31.9811C23.6046,32.0076 23.4789,31.9461 23.3852,31.8764C23.1366,31.6216 23.3291,31.2323 22.914,31.0659C22.2265,30.8523 21.7756,30.1295 21.7053,29.45C21.6618,28.7978 21.691,28.0837 22.2529,27.5108C22.4751,27.3437 22.7644,27.235 23.0483,27.326C23.2062,27.353 23.3905,27.4637 23.4608,27.5987Z" style="fill:rgb(163,174,192);fill-rule:nonzero;"/>
            <path id="_111045264" d="M14.8385,32.368C13.584,32.9501 13.2003,34.4481 13.1831,34.5096L13.1507,34.6443L13.279,34.6884C13.3291,34.7029 14.4937,35.0861 15.9186,34.3866C17.352,33.6849 17.6471,32.2624 17.6592,32.2009L17.6883,32.0517L17.5363,32.0286C17.4778,32.0169 16.0736,31.7973 14.8385,32.368ZM14.9642,32.6399C15.8803,32.213 16.9279,32.2625 17.3229,32.3007C17.2114,32.663 16.8287,33.6086 15.7865,34.1209C14.7424,34.6325 13.8437,34.5096 13.5163,34.4399C13.6394,34.0767 14.0431,33.0676 14.9642,32.6399Z" style="fill:rgb(163,174,192);fill-rule:nonzero;"/>
            <path id="_111057648" d="M16.0906,29.5499C14.8332,30.1178 14.3681,31.5986 14.35,31.6633L14.3067,31.8032L14.4468,31.8474C14.496,31.8616 15.6578,32.2097 17.0855,31.5284C18.525,30.8375 18.8322,29.4652 18.8441,29.407L18.8764,29.2577L18.7243,29.2307C18.6686,29.2195 17.3288,28.991 16.0906,29.5499ZM16.2134,29.8198C17.1267,29.4071 18.1244,29.4593 18.5075,29.5005C18.3879,29.8572 17.9983,30.7612 16.9574,31.2587C15.9212,31.7538 15.0286,31.6601 14.6893,31.5988C14.8332,31.2272 15.2923,30.2346 16.2134,29.8198Z" style="fill:rgb(163,174,192);fill-rule:nonzero;"/>
            <path id="_82872168" d="M17.7266,26.8345C16.4652,27.388 15.9186,28.8562 15.8982,28.9177L15.842,29.0674L15.9972,29.111C16.0472,29.126 17.2059,29.4361 18.6335,28.7685C20.0812,28.0961 20.3975,26.7731 20.4124,26.7148L20.4447,26.5656L20.2955,26.5364C20.2423,26.5273 18.9698,26.2876 17.7266,26.8345ZM17.8435,27.1072C18.7565,26.7057 19.7017,26.7617 20.0732,26.8053C19.9503,27.1504 19.5497,28.0165 18.5108,28.4997C17.4841,28.9801 16.6003,28.9123 16.2459,28.8561C16.4159,28.4818 16.9279,27.5109 17.8435,27.1072Z" style="fill:rgb(163,174,192);fill-rule:nonzero;"/>
            <path id="_111066936" d="M19.3472,24.1515C18.086,24.6928 17.4599,26.1437 17.4366,26.2052L17.3661,26.3663L17.5362,26.4078C17.5854,26.4197 18.7413,26.6976 20.1748,26.0473C21.6294,25.3895 21.9538,24.1132 21.9688,24.0578L22.007,23.9086L21.855,23.8766C21.8047,23.8643 20.5995,23.6186 19.3472,24.1515ZM19.4641,24.4264C20.3711,24.0405 21.2693,24.0988 21.6266,24.1424C21.4977,24.4793 21.0911,25.3072 20.0521,25.7755C19.0371,26.2375 18.1594,26.1971 17.7939,26.1501C17.9896,25.7663 18.5512,24.8157 19.4641,24.4264Z" style="fill:rgb(163,174,192);fill-rule:nonzero;"/>
            <path id="_111358368" d="M21.5944,21.4681C20.3302,21.9947 19.6253,23.4315 19.5961,23.493L19.5143,23.6627L19.6987,23.704C19.7451,23.7123 20.8978,23.9549 22.3376,23.3236C23.7943,22.6791 24.1343,21.4507 24.1484,21.3975L24.1867,21.2517L24.0377,21.2135C23.9903,21.205 22.8527,20.9474 21.5944,21.4681ZM21.7081,21.7429C22.6123,21.3683 23.4578,21.4298 23.8032,21.4771C23.6691,21.8074 23.2563,22.5916 22.2174,23.0509C21.2048,23.4958 20.339,23.4787 19.9646,23.4405C20.19,23.051 20.798,22.1207 21.7081,21.7429Z" style="fill:rgb(163,174,192);fill-rule:nonzero;"/>
            <path id="_111528120" d="M24.0727,18.8786C22.8053,19.3908 22.0182,20.8157 21.9861,20.8772L21.8901,21.0552L22.0886,21.0935C22.1387,21.1026 23.2886,21.3101 24.7282,20.6897C26.1938,20.0635 26.5443,18.8846 26.5594,18.835L26.6007,18.6852L26.451,18.6501C26.4073,18.6388 25.3333,18.369 24.0727,18.8786ZM24.1838,19.1536C25.0785,18.7941 25.8776,18.8582 26.2112,18.9078C26.0711,19.2269 25.6465,19.9761 24.6107,20.418C23.61,20.8478 22.7531,20.8509 22.3666,20.8246C22.6182,20.4291 23.2765,19.5227 24.1838,19.1536Z" style="fill:rgb(163,174,192);fill-rule:nonzero;"/>
            <path id="_114230976" d="M26.7173,16.4327C25.448,16.927 24.5815,18.3398 24.5462,18.4012L24.4322,18.5886L24.6488,18.6237C24.6989,18.6297 25.8456,18.8049 27.2884,18.2027C28.7591,17.5907 29.1196,16.4587 29.1337,16.4117L29.1811,16.2655L29.0349,16.2242C28.9936,16.2134 27.984,15.9346 26.7173,16.4327ZM26.8251,16.7077C27.7121,16.3623 28.4671,16.4268 28.7883,16.4761C28.6393,16.7864 28.2094,17.4974 27.1735,17.928C26.1879,18.3399 25.3363,18.3669 24.9386,18.349C25.2224,17.948 25.9244,17.0613 26.8251,16.7077Z" style="fill:rgb(163,174,192);fill-rule:nonzero;"/>
            <path id="_48808752" d="M29.4677,14.1736C28.1944,14.6559 27.2501,16.0551 27.2118,16.1138L27.0768,16.3151L27.3174,16.3446C27.3639,16.3506 28.5075,16.4885 29.9561,15.9026C31.431,15.3064 31.8055,14.2231 31.8196,14.1767L31.867,14.0358L31.7232,13.9894C31.6854,13.9773 30.7433,13.6874 29.4677,14.1736ZM29.5724,14.4484C30.4535,14.1152 31.1611,14.1826 31.469,14.2349C31.314,14.5361 30.872,15.2126 29.845,15.6276C28.8647,16.0231 28.0251,16.0695 27.6183,16.0634C27.9315,15.6568 28.6746,14.7907 29.5724,14.4484Z" style="fill:rgb(163,174,192);fill-rule:nonzero;"/>
            <path id="_48137184" d="M32.2614,12.1487C30.9858,12.6201 29.9651,14.0065 29.9208,14.0649L29.7657,14.2733L30.0264,14.2996C30.0728,14.3055 31.2141,14.4075 32.6651,13.8372C34.1487,13.2546 34.5313,12.2214 34.5464,12.1781L34.596,12.0371L34.4558,11.9907C34.4208,11.9756 33.5429,11.6776 32.2614,12.1487ZM32.3639,12.4267C33.2359,12.1076 33.9003,12.1719 34.1924,12.2274C34.0313,12.5172 33.5841,13.1577 32.5572,13.5614C31.5888,13.9419 30.7606,14.0065 30.3424,14.0095C30.6847,13.5996 31.4713,12.757 32.3639,12.4267Z" style="fill:rgb(163,174,192);fill-rule:nonzero;"/>
            <path id="_82940240" d="M12.8318,29.5299C12.7937,29.5763 11.922,30.7087 11.8315,32.0723C11.7406,33.4623 12.8754,34.5215 12.9256,34.5659L13.0252,34.6594L13.127,34.5659C13.1653,34.5336 14.0633,33.6879 14.1307,32.0961C14.2042,30.4926 13.0899,29.5469 13.0425,29.5065L12.9256,29.4097ZM12.1232,32.2271C12.1232,32.1839 12.1262,32.1396 12.1294,32.0932C12.1936,31.0713 12.7465,30.173 12.969,29.8488C13.2266,30.1147 13.8383,30.8579 13.8383,31.9553C13.8383,31.9963 13.8383,32.0398 13.8356,32.0842C13.7824,33.2549 13.2445,33.986 13.022,34.2407C12.7704,33.9716 12.1232,33.1874 12.1232,32.2271Z" style="fill:rgb(163,174,192);fill-rule:nonzero;"/>
            <path id="_82893400" d="M14.6016,26.475C14.5724,26.5073 13.8616,27.2915 13.5599,28.4152C13.5193,28.57 13.4872,28.7306 13.4663,28.9003C13.3031,30.2466 14.2744,31.3499 14.318,31.3964L14.4116,31.5052L14.5234,31.4115C14.5638,31.3792 15.4796,30.5831 15.6671,29.0352C15.8542,27.4728 14.8566,26.5073 14.8124,26.4691L14.7045,26.3635ZM13.745,29.2046C13.745,29.117 13.7501,29.0293 13.762,28.9387C13.7793,28.7837 13.8087,28.6346 13.8466,28.4937C14.0631,27.6863 14.5141,27.0571 14.7157,26.8023C14.9297,27.0541 15.3919,27.7154 15.3919,28.6578C15.3919,28.7657 15.3859,28.8832 15.3709,29C15.2368,30.1265 14.675,30.8256 14.4407,31.0772C14.2301,30.7994 13.745,30.0684 13.745,29.2046Z" style="fill:rgb(163,174,192);fill-rule:nonzero;"/>
            <path id="_82889776" d="M16.588,23.6105C16.5557,23.6396 15.8097,24.3327 15.4324,25.4509C15.3859,25.5939 15.3445,25.7463 15.3123,25.9215C15.0788,27.2242 15.8893,28.3679 15.9212,28.418L16.0121,28.5431L16.1348,28.4471C16.173,28.4152 17.1123,27.666 17.4134,26.1649C17.7175,24.6457 16.8345,23.6598 16.7963,23.6185L16.6967,23.5106ZM15.5704,26.4017C15.5704,26.2616 15.5823,26.1146 15.6084,25.9717C15.6348,25.8137 15.6697,25.6758 15.7134,25.547C15.9828,24.7514 16.4601,24.1775 16.6764,23.9468C16.8458,24.1835 17.1793,24.7574 17.1793,25.5447C17.1793,25.7231 17.1619,25.9102 17.1207,26.1087C16.9045,27.1888 16.3254,27.8533 16.0738,28.1022C15.9063,27.8209 15.5704,27.1595 15.5704,26.4017Z" style="fill:rgb(163,174,192);fill-rule:nonzero;"/>
            <path id="_82869456" d="M18.7706,20.9325C18.736,20.9587 17.9578,21.5647 17.5009,22.6741C17.4485,22.8021 17.4016,22.9521 17.3612,23.1243C17.0532,24.3827 17.6943,25.5707 17.7234,25.6203L17.802,25.7665L17.9399,25.6677C17.981,25.6405 18.9376,24.9358 19.3562,23.4848C19.7771,22.0097 19.0108,21.0001 18.9789,20.9588L18.8883,20.8419ZM17.5774,23.827C17.5774,23.6218 17.5977,23.4051 17.647,23.1948C17.6852,23.0368 17.7294,22.9018 17.7758,22.7852C18.0979,22.0068 18.5984,21.4863 18.8297,21.275C18.9557,21.4914 19.1802,21.9687 19.1802,22.6096C19.1802,22.8525 19.1511,23.1184 19.0696,23.4023C18.7707,24.4351 18.1745,25.0674 17.905,25.3103C17.788,25.0441 17.5774,24.4766 17.5774,23.827Z" style="fill:rgb(163,174,192);fill-rule:nonzero;"/>
            <path id="_82898896" d="M21.1352,18.4395C21.1001,18.4605 20.2896,18.978 19.7541,20.0785C19.6926,20.2014 19.6371,20.3384 19.5842,20.5145C19.2066,21.7288 19.6835,22.9549 19.7068,23.0074L19.7745,23.1745L19.9264,23.0749C19.9676,23.0457 20.9419,22.3903 21.4747,20.9858C22.0154,19.5543 21.3659,18.5275 21.3368,18.4839L21.2581,18.361ZM19.739,21.5062C19.739,21.2163 19.7743,20.9063 19.8679,20.6023C19.9183,20.444 19.9647,20.3184 20.0199,20.2096C20.3944,19.4404 20.9218,18.9721 21.1615,18.785C21.252,18.9721 21.3921,19.3439 21.3921,19.8441C21.3921,20.1481 21.3395,20.4967 21.1966,20.8772C20.8251,21.8636 20.2072,22.463 19.921,22.7065C19.8477,22.463 19.739,22.021 19.739,21.5062Z" style="fill:rgb(163,174,192);fill-rule:nonzero;"/>
            <path id="_117735336" d="M23.666,16.1279C23.6309,16.146 22.7912,16.5729 22.1681,17.6644C22.1036,17.7841 22.0421,17.9161 21.978,18.0831C21.527,19.253 21.843,20.5178 21.8579,20.57L21.9075,20.7631L22.0776,20.6575C22.1178,20.6343 23.1126,20.0224 23.7596,18.6649C24.4181,17.2807 23.8856,16.2366 23.8616,16.1925L23.7941,16.0634ZM22.0362,19.4814C22.0362,19.089 22.0857,18.6269 22.2528,18.1879C22.3142,18.0359 22.3666,17.9161 22.428,17.8105C22.8577,17.0582 23.4054,16.6404 23.6599,16.4761C23.7154,16.6313 23.7919,16.9011 23.7919,17.2726C23.7919,17.6231 23.7214,18.0559 23.4902,18.5393C23.0428,19.4816 22.4077,20.0463 22.1036,20.2771C22.0713,20.0958 22.0362,19.8149 22.0362,19.4814Z" style="fill:rgb(163,174,192);fill-rule:nonzero;"/>
            <path id="_47326760" d="M26.3519,13.9951C26.3136,14.0095 25.448,14.3487 24.7395,15.4288C24.6667,15.5429 24.5962,15.6745 24.523,15.8297C24.0055,16.9562 24.1575,18.2582 24.1635,18.3106L24.1898,18.5271L24.3829,18.4221C24.4264,18.3989 25.436,17.8372 26.1972,16.5264C26.9754,15.1856 26.5595,14.1233 26.5417,14.0796L26.4863,13.9417ZM24.4354,17.7991C24.4354,17.3367 24.4936,16.602 24.7926,15.9525C24.8591,15.8087 24.9235,15.6918 24.9878,15.5921C25.4739,14.8522 26.0439,14.4866 26.3074,14.3427C26.3366,14.4634 26.3661,14.6386 26.3661,14.8725C26.3661,15.2618 26.2783,15.7914 25.942,16.3763C25.4179,17.2753 24.7652,17.8049 24.4411,18.0297C24.4383,17.9653 24.4354,17.8897 24.4354,17.7991Z" style="fill:rgb(163,174,192);fill-rule:nonzero;"/>
            <path id="_81988928" d="M29.1811,12.0402C29.1428,12.0489 28.2506,12.3037 27.4544,13.3719C27.3729,13.4798 27.2905,13.6058 27.2146,13.7488C26.6239,14.832 26.6147,16.172 26.6147,16.2305L26.6178,16.4672L26.8281,16.3621C26.8754,16.3389 27.9052,15.8205 28.7799,14.557C29.669,13.2663 29.3738,12.1868 29.3619,12.1426L29.3205,11.9996ZM27.4755,13.8926C27.5451,13.7607 27.6184,13.65 27.692,13.5472C28.2357,12.8213 28.8296,12.5023 29.1045,12.3852C29.1105,12.4557 29.1196,12.5375 29.1196,12.646C29.1196,13.0438 29.0228,13.682 28.5345,14.3901C27.9405,15.2448 27.2703,15.742 26.9249,15.9616C26.957,15.5257 27.0686,14.6327 27.4755,13.8926Z" style="fill:rgb(163,174,192);fill-rule:nonzero;"/>
            <path id="_82907120" d="M32.1268,10.258C32.089,10.264 31.1761,10.4341 30.2864,11.4814C29.4063,12.5263 29.198,14.2468 29.1898,14.3196L29.1607,14.5772L29.3973,14.4716C29.4414,14.4516 30.4917,13.9803 31.4774,12.76C32.4841,11.5196 32.3056,10.4223 32.2998,10.3781L32.2735,10.232ZM30.5148,11.6747C31.1178,10.9637 31.7318,10.6911 32.0157,10.5974C32.0188,10.6034 32.0188,10.6065 32.0188,10.6153C32.0188,10.9607 31.9281,11.733 31.2466,12.5755C30.5853,13.392 29.8914,13.8544 29.5319,14.0647C29.6288,13.5354 29.8976,12.4035 30.5148,11.6747Z" style="fill:rgb(163,174,192);fill-rule:nonzero;"/>
            <path id="_82162616" d="M3.90839,25C3.90839,32.1899 7.79624,39.1038 14.0572,43.0515L14.3179,43.2124L14.5051,42.9692C14.5575,42.9015 14.5784,42.8349 14.5784,42.7757C14.5784,42.6206 14.4468,42.5009 14.3732,42.4311L14.0109,42.083C12.7175,40.6171 12.3722,39.2265 12.3722,38.1584C12.3722,36.9764 12.7968,36.1867 12.8319,36.1275L12.9459,35.9172L12.7877,35.7388C10.1399,32.7868 8.74473,29.0757 8.74473,24.9999C8.74473,16.0341 16.0356,8.74261 25.0003,8.74261C27.4928,8.74261 29.8828,9.28939 32.1065,10.3726L32.338,10.4865L35.6029,6.75829L35.2433,6.55672C32.1269,4.82173 28.5839,3.90594 25.0002,3.90594C13.3674,3.90594 3.90839,13.369 3.90839,25ZM4.57501,25C4.57501,13.7376 13.7389,4.57556 25.0002,4.57556C28.3292,4.57556 31.6212,5.40119 34.5438,6.94869C34.1138,7.438 32.4254,9.36909 32.162,9.66411C29.9151,8.6109 27.5078,8.07238 25.0003,8.07238C15.6671,8.07238 8.0713,15.6659 8.0713,25C8.0713,29.1641 9.48182,32.965 12.1473,36.0139C11.9923,36.3681 11.7196,37.1436 11.7196,38.1704C11.7196,39.0191 11.9158,40.0372 12.5159,41.1205C7.57403,37.1845 4.57501,31.1972 4.57501,25Z" style="fill:rgb(163,174,192);fill-rule:nonzero;"/>
            <path id="_49059128" d="M32.3991,9.77274C30.0819,8.6431 27.595,8.07226 24.9999,8.07226C15.6667,8.07226 8.07093,15.6658 8.07093,24.9999C8.07093,29.24 9.52847,33.111 12.2872,36.1867L12.5771,36.5081L13.8646,34.5659L13.7972,34.4863C13.6803,34.4724 13.5867,34.454 13.5163,34.4399C13.5333,34.3867 13.5596,34.3171 13.5888,34.2407C13.4901,34.1209 13.3875,33.9979 13.2907,33.875C13.1883,34.0413 13.0895,34.1613 13.0218,34.2407C12.7702,33.9715 12.123,33.1874 12.123,32.2271C12.123,32.1979 12.1262,32.1656 12.1262,32.1365C10.9239,30.0181 10.3121,27.6278 10.3121,25C10.3121,16.9011 16.9008,10.3113 24.9999,10.3113C26.9861,10.3113 28.9029,10.7 30.7077,11.4641C30.9012,11.2619 31.0913,11.1037 31.2696,10.9811C29.2945,10.0969 27.1884,9.64078 24.9999,9.64078C16.5295,9.64078 9.63951,16.5316 9.63951,25C9.63951,28.672 10.7863,31.8998 13.03,34.6093C12.902,34.8055 12.7171,35.0834 12.5096,35.3996C10.0522,32.5029 8.74436,28.9237 8.74436,25C8.74436,16.0342 16.0353,8.74273 24.9999,8.74273C27.3817,8.74273 29.6661,9.24905 31.8054,10.2379C31.7145,10.4309 31.6293,10.6216 31.5387,10.8117C31.7377,10.7 31.9019,10.6325 32.0157,10.5974C32.0189,10.6034 32.0189,10.6065 32.0189,10.6153C32.0189,10.8669 31.9693,11.3443 31.6794,11.9114L31.755,11.9495L32.6941,9.91271Z" style="fill:rgb(163,174,192);fill-rule:nonzero;"/>
            <path id="_122255456" d="M32.2472,6.45113L30.6285,8.50008C30.7783,8.54929 30.9245,8.60166 31.0705,8.65804L32.677,6.62731C32.5363,6.56583 32.3933,6.50751 32.2472,6.45113Z" style="fill:rgb(163,174,192);fill-rule:nonzero;"/>
            <path id="_111525640" d="M29.0815,5.50897L28.1362,7.84747C28.2859,7.87384 28.4349,7.903 28.5809,7.93532L29.5233,5.60557C29.374,5.57094 29.2275,5.54092 29.0815,5.50897Z" style="fill:rgb(163,174,192);fill-rule:nonzero;"/>
            <path id="_81748496" d="M25.3133,5.08795L25.0817,7.56667C25.2307,7.56667 25.3807,7.56898 25.5267,7.57178L25.7602,5.09986C25.6113,5.0967 25.4621,5.09087 25.3133,5.08795Z" style="fill:rgb(163,174,192);fill-rule:nonzero;"/>
            <path id="_48970056" d="M21.6407,5.36875L22.1118,7.80337C22.2587,7.78016 22.4048,7.7561 22.5537,7.73593L22.0827,5.29828C21.9337,5.3193 21.7877,5.34251 21.6407,5.36875Z" style="fill:rgb(163,174,192);fill-rule:nonzero;"/>
            <path id="_47284000" d="M18.0807,6.32233L19.1953,8.55841C19.3354,8.50822 19.4763,8.46193 19.6193,8.41454L18.5017,6.17336C18.3618,6.22355 18.2208,6.27276 18.0807,6.32233Z" style="fill:rgb(163,174,192);fill-rule:nonzero;"/>
            <path id="_48122368" d="M14.7012,7.95853L16.3632,9.85743C16.4943,9.78173 16.6263,9.70822 16.761,9.63483L15.0901,7.72694C14.9591,7.80337 14.8301,7.88198 14.7012,7.95853Z" style="fill:rgb(163,174,192);fill-rule:nonzero;"/>
            <path id="_82943656" d="M11.6321,10.2498L13.7301,11.7068C13.8468,11.6071 13.9667,11.5105 14.0873,11.4109L11.9742,9.94491C11.8605,10.0445 11.7435,10.1473 11.6321,10.2498Z" style="fill:rgb(163,174,192);fill-rule:nonzero;"/>
            <path id="_111743952" d="M9.01954,13.1257L11.4305,14.0648C11.5293,13.9419 11.6291,13.8222 11.7286,13.7053L9.30043,12.757C9.20688,12.8799 9.11309,13.0029 9.01954,13.1257Z" style="fill:rgb(163,174,192);fill-rule:nonzero;"/>
            <path id="_81670368" d="M7.00387,16.4761L9.59833,16.8388C9.67183,16.6958 9.748,16.558 9.82673,16.4209L7.20822,16.0551C7.138,16.1953 7.06753,16.3363 7.00387,16.4761Z" style="fill:rgb(163,174,192);fill-rule:nonzero;"/>
            <path id="_82778632" d="M5.68131,20.1512L8.32594,19.8972C8.376,19.7444 8.42557,19.5892 8.47514,19.4372L5.80402,19.692C5.7598,19.8441 5.71958,19.9961 5.68131,20.1512Z" style="fill:rgb(163,174,192);fill-rule:nonzero;"/>
            <path id="_49035160" d="M5.10751,23.9992L7.66734,23.1102C7.68544,22.9459 7.70549,22.782 7.7259,22.6181L5.13655,23.5191C5.12537,23.6772 5.11662,23.8383 5.10751,23.9992Z" style="fill:rgb(163,174,192);fill-rule:nonzero;"/>
            <path id="_82868520" d="M5.30676,27.8877L7.61813,26.3694C7.60586,26.2 7.59493,26.0299 7.58582,25.8578L5.23617,27.3994C5.2595,27.5633 5.28051,27.7244 5.30676,27.8877Z" style="fill:rgb(163,174,192);fill-rule:nonzero;"/>
            <path id="_82947392" d="M6.29242,31.6923L8.16801,29.6263C8.12147,29.4533 8.08017,29.2782 8.0391,29.105L6.12306,31.2152C6.17846,31.3763 6.23398,31.5344 6.29242,31.6923Z" style="fill:rgb(163,174,192);fill-rule:nonzero;"/>
            <path id="_82847744" d="M8.05696,35.3262L9.38499,32.8011C9.30347,32.637 9.21879,32.4737 9.14237,32.3066L7.79041,34.8792C7.878,35.028 7.96645,35.18 8.05696,35.3262Z" style="fill:rgb(163,174,192);fill-rule:nonzero;"/>
            <path id="_47020472" d="M10.3183,38.3546L11.0295,35.4318C10.912,35.2766 10.7951,35.1185 10.6845,34.9606L9.96183,37.9481C10.0785,38.0857 10.1985,38.2197 10.3183,38.3546Z" style="fill:rgb(163,174,192);fill-rule:nonzero;"/>
            <path id="_48970168" d="M31.9162,12.0985C31.9777,12.1366 32.0392,12.178 32.0974,12.2191C32.1537,12.1951 32.2062,12.169 32.2616,12.1485C32.3259,12.1253 32.3905,12.1044 32.455,12.0844C32.3171,11.9937 32.189,11.891 32.0655,11.7826C32.0248,11.8851 31.9717,11.9907 31.9162,12.0985Z" style="fill:rgb(163,174,192);fill-rule:nonzero;"/>
        </g>
    </g>
</svg>
