<?xml version="1.0" standalone="no"?>
<!DOCTYPE svg PUBLIC "-//W3C//DTD SVG 1.1//EN" "http://www.w3.org/Graphics/SVG/1.1/DTD/svg11.dtd">
<svg width="48px" height="48px" version="1.1" xmlns="http://www.w3.org/2000/svg" xmlns:xlink="http://www.w3.org/1999/xlink" xml:space="preserve" style="fill-rule:evenodd;clip-rule:evenodd;stroke-miterlimit:1.41421;">
    <g>
        <g>
            <g>
                <path d="M0.669502,24C0.669502,11.1368 11.1353,0.66996 24,0.66996C36.8616,0.66996 47.3265,11.1368 47.3265,24C47.3265,36.8662 36.8617,47.3302 24,47.3302C11.1353,47.3302 0.669502,36.8662 0.669502,24ZM1.95399e-14,24C1.95399e-14,37.235 10.7668,48 24.0001,48C37.2332,48 48,37.2351 48,24C48,10.7654 37.2332,-9.54792e-15 24.0001,-9.54792e-15C10.7667,-8.71525e-15 1.95399e-14,10.7654 1.95399e-14,24Z" style="fill:white;fill-rule:nonzero;stroke-width:0.47px;stroke:white;"/>
            </g>
            <g>
                <path d="M39.7669,27.9036C39.1115,28.5117 38.1865,28.5208 37.4374,29.0151C37.0952,29.3574 37.1806,29.75 37.3208,30.1829C37.5984,30.7296 37.4929,30.6745 37.1072,30.8032C36.2032,31.1041 36.2122,32.0939 35.1232,31.9297C35.0617,31.9471 34.8078,31.8188 34.9598,32.003C35.0768,32.1404 35.1232,32.0586 35.3546,32.0849C35.7413,32.1049 35.8874,31.9439 36.1592,31.7596C36.5454,31.4324 36.4985,31.3094 36.9786,31.0809C37.0924,31.0516 37.3734,30.9702 37.5313,31.0257C37.6367,31.1223 37.64,31.1252 37.6572,31.2128C37.5957,31.4787 37.2099,31.6985 37.0602,31.789C37.2656,31.9387 37.646,32.1904 37.5815,32.4008C37.4931,32.541 37.499,32.5649 37.3471,32.6377C37.1309,32.7431 36.7008,32.7254 36.2941,32.4241C36.2327,32.4445 36.1653,32.3075 35.9931,32.4714C36.3878,32.8783 36.9406,32.7867 37.023,32.8692C37.1075,32.9506 36.7271,33.4421 36.7127,33.5478C36.446,34.2534 36.7712,34.9028 36.6304,35.6368C36.5427,36.2077 36.3694,36.4798 35.8703,36.8429C34.9482,37.4806 34.3017,37.665 33.2717,37.8319C30.5625,38.016 28.8536,37.0858 26.9055,35.6281C24.9536,34.171 24.2073,33.3989 23.5994,32.5793C23.5902,32.243 23.836,31.9881 23.6257,31.6258C23.4496,31.6872 23.4674,31.9179 23.3618,32.0495C23.2098,32.263 22.8503,32.4181 22.5926,32.392C21.7912,32.12 21.7471,31.1777 21.2437,30.6389C20.1703,29.5798 19.8684,28.0525 20.4423,26.7738C20.6438,26.3789 21.0071,25.9984 21.4137,25.8577C21.9141,25.779 22.505,25.779 22.8324,26.2645C23.219,26.6337 23.4587,27.2332 23.5551,27.7626C23.7131,28.0173 23.5201,28.3101 23.7835,28.5207C24.2427,28.5648 24.6373,28.6787 25.0793,28.3978C25.4074,28.4419 25.4509,28.8047 25.6994,28.9627L26.1383,29.2262C26.6064,29.4187 27.2094,29.4187 27.6041,29.0764C28.345,28.3191 28.1839,27.538 28.4387,26.7005C29.1464,26.075 29.6144,25.179 29.6056,24.3039C29.5622,23.7664 29.3689,23.2097 29.0499,22.6741C29.1023,22.3559 29.2811,22.1183 29.383,21.8343C29.4737,21.7819 29.5884,21.7819 29.6847,21.7647C30.4715,21.5976 31.1859,20.8838 31.493,20.1316L31.5633,20.0611C32.4644,20 33.5848,19.6805 34.1026,18.7391C34.211,18.3323 34.6674,18.6336 34.951,18.5367C35.4283,18.5107 35.9045,18.244 36.2649,17.9368C36.3694,17.9017 36.449,18.0161 36.5133,18.0687C36.7239,18.7734 37.1103,19.4528 37.3329,20.1698C37.6045,20.7054 37.7043,21.217 37.6045,21.7646C37.7187,22.6015 38.1988,23.3885 38.532,24.2342C38.866,25.1266 39.3866,26.0245 39.7671,26.9437C39.8365,27.3124 39.9944,27.6055 39.7669,27.9036ZM39.9511,26.3643C39.3158,24.8982 38.6022,23.6404 38.0817,22.1657C37.7102,21.6359 37.9236,21.0742 37.8763,20.5063C37.6398,19.6256 37.2681,18.9466 36.917,18.0891C36.8173,17.8433 37.0922,17.7737 37.1889,17.5976C37.3468,17.1647 37.2361,16.6795 37.04,16.2635C36.9612,16.026 37.2443,15.8598 37.1889,15.614C37.1806,15.2335 36.8466,14.9759 36.5808,14.7744C36.1821,14.2005 35.9979,13.8995 35.5036,13.3812L35.5036,13.2815C35.7522,13.062 35.9545,12.6821 35.9487,12.3571C35.849,11.9884 35.7703,11.6433 35.4159,11.3854C34.851,11.0694 34.2781,11.5637 33.8303,11.8186C33.7047,11.906 33.6433,11.9947 33.4671,11.9796C33.3533,11.9384 33.2363,11.8951 33.1136,11.8509C32.9989,11.9825 32.8559,12.1235 32.6835,12.2605L33.2303,12.483C33.2481,12.4981 33.2564,12.5091 33.2564,12.5301C33.2564,12.5382 33.2505,12.5563 33.2505,12.5705C33.213,12.6028 31.9811,13.6829 31.9811,13.6829C31.978,13.6852 29.7629,15.8712 29.7629,15.8712C29.7629,15.874 29.131,16.5184 29.131,16.5184C29.1258,16.5212 27.1597,18.7887 27.1597,18.7887C26.1299,19.983 24.6079,21.9401 23.6957,23.3738C23.2186,24.0293 22.7444,24.7582 22.3024,25.4488C22.2561,25.5247 22.1656,25.5185 22.0217,25.5014C21.9252,25.4893 21.8232,25.4811 21.735,25.5104L21.7378,25.5104L21.7175,25.5157C21.7234,25.5135 21.7296,25.5135 21.735,25.5104C21.2345,25.5658 20.8689,25.7328 20.4802,26.0832C19.977,26.6804 19.7222,27.4003 19.7222,28.1787C19.7222,28.7144 19.8422,29.2789 20.0877,29.8437C19.9852,30.148 19.7486,30.4147 19.5351,30.6514L19.4151,30.783L19.2632,30.9351C19.1666,31.026 19.0519,31.1339 18.9733,31.2363L18.9645,31.2455L18.9583,31.2596C18.9502,31.2918 18.9443,31.3533 19.0439,31.4003L19.0671,31.4147L19.0934,31.4092C19.5584,31.2978 19.8512,30.9465 20.135,30.6072C20.135,30.6072 20.3136,30.4026 20.3395,30.3702C20.3838,30.3643 20.4191,30.3877 20.4775,30.4407C20.5097,30.467 20.547,30.4903 20.5884,30.5104C20.5884,30.5226 20.5884,30.5345 20.5884,30.5345C20.5884,30.5345 20.5824,30.6865 20.5824,30.7214C19.4798,31.81 18.5809,32.4242 17.4051,33.1151L17.2089,33.2288L17.4373,33.2529C17.8941,33.2994 18.3301,33.0415 18.751,32.7927L19.2572,32.5149C19.7223,32.2753 20.1552,31.9099 20.577,31.5585C20.577,31.5585 20.9536,31.2423 20.9948,31.2072C21.0361,31.2163 21.0794,31.2654 21.1116,31.3067C21.1116,31.3067 21.1385,31.3327 21.1557,31.351C21.1617,31.3623 21.5071,32.0469 21.5275,32.088C21.4489,32.4102 21.4165,32.7347 21.4165,33.0596C21.4165,33.7646 21.5685,34.4702 21.7177,35.1578C21.8666,35.8365 22.0187,36.5354 22.0187,37.2232C22.0187,37.2701 22.0187,37.3136 22.0159,37.3579C22.0159,37.5714 21.7852,37.8521 21.5891,37.9428C21.1499,38.0161 20.6144,38.0223 20.0527,38.0283C19.36,38.0334 18.6432,38.0394 18.0925,38.1885C17.9174,38.2095 17.7122,38.268 17.5137,38.3233C17.3202,38.3757 17.1183,38.4349 16.9308,38.4584L16.9135,38.4612L16.8903,38.4785L16.823,38.5256C16.7616,38.5631 16.6824,38.6133 16.665,38.7039C16.665,38.713 16.662,38.7213 16.662,38.7302C16.662,38.7797 16.6851,38.8418 16.7264,38.879C16.7647,38.9203 16.811,38.9375 16.8612,38.9356C17.0274,38.9356 17.2148,38.8649 17.396,38.8007C17.5219,38.7535 17.6536,38.707 17.7736,38.6859C18.9241,38.4903 20.1816,38.5284 21.0362,38.5982C21.4571,38.5922 22.1477,38.578 22.3963,37.9781C22.4869,37.7353 22.5192,37.5099 22.5192,37.2932C22.5192,37.0538 22.4816,36.8252 22.4436,36.5886L22.3671,36.0058C22.3177,35.6521 22.2411,35.2979 22.1684,34.9526C22.0396,34.3473 21.9079,33.7209 21.9079,33.0859C21.9079,32.957 21.9139,32.8281 21.9254,32.6992C21.9372,32.6819 21.9513,32.664 21.9695,32.6618C22.0046,32.6558 22.0691,32.7083 22.1214,32.7496C22.1797,32.7928 22.2411,32.8402 22.3085,32.8575C22.3849,32.9127 22.4696,32.9309 22.5483,32.9399C22.6598,32.954 22.7184,32.9691 22.7535,33.0537C22.7999,33.6095 22.9933,34.1861 23.1804,34.7451C23.3092,35.1278 23.4411,35.5234 23.5258,35.9122C23.6777,36.5887 23.8299,37.2762 23.8299,37.955C23.8299,38.3588 23.7774,38.7595 23.6343,39.1521C23.3415,39.6897 22.6952,39.6897 22.0751,39.6929L21.8876,39.6929L20.3599,39.5992C19.052,39.5055 17.6979,39.4089 16.3106,39.6315C16.3197,39.6315 16.0006,39.6666 16.0006,39.6666C15.8285,39.6929 15.6675,39.7138 15.4941,39.6726C15.4299,39.6203 15.3775,39.5319 15.3775,39.4354C15.3775,39.4058 15.3834,39.3767 15.3953,39.3475C15.6442,38.8009 15.767,38.3062 15.767,37.8674C15.767,37.513 15.6846,37.1969 15.5235,36.9161C15.164,36.2284 14.7692,35.7519 14.2832,35.418C13.6861,34.824 13.1777,34.2942 12.7239,33.7798C12.461,33.7474 12.3,33.6943 12.2789,33.6889L12.2207,33.6679L11.9576,33.996C12.3,34.3207 12.6189,34.6486 13.0048,35.0001C13.5955,35.3183 14.0729,35.8921 14.4967,36.2816C15.0091,36.8779 15.1319,37.513 15.0232,38.2209C14.9566,39.0584 14.1896,39.4208 13.6693,39.9738C13.4558,40.3715 13.3239,40.8487 13.6137,41.2172C13.8008,41.7124 14.5935,41.6242 14.69,42.0307C14.9095,42.9266 16.4629,43.4442 16.7677,43.4646C17.0689,43.4856 17.3818,43.822 17.3818,43.822C17.999,44.2727 18.8095,44.1612 19.2364,44.0967C19.661,44.0322 20.4218,44.3776 20.9014,44.3072C21.6122,44.0232 22.198,44.1552 22.9379,44.0937C25.2665,44.1288 27.9119,44.0763 30.293,44.3776C30.7348,44.3253 31.2615,44.6675 31.677,44.4569C31.7849,44.2779 31.7032,44.1288 31.677,43.9798C30.5387,42.1888 30.3693,40.179 31.0157,38.2302L31.4425,38.2532C32.9908,38.4231 34.3951,38.2209 35.9634,37.3138C36.7469,36.8807 37.1597,35.8716 37.1243,35.137C37.0983,34.6628 36.934,34.101 37.0136,33.5983C37.0429,33.3729 37.1889,33.0306 37.3851,32.9251C37.4637,32.8787 37.7537,32.6822 37.8441,32.4304C37.9935,32.0238 37.6748,31.8304 37.5813,31.7749C37.8329,31.6725 38.0726,31.1638 37.8441,30.7653C37.6981,30.61 37.5252,29.9899 37.508,29.7884C37.4523,29.4956 37.4436,29.1974 37.7186,29.0104C38.3356,28.685 38.9182,28.6057 39.5616,28.3227C40.0037,28.1375 40.2321,27.6784 40.2142,27.2655ZM14.7372,40.9071C14.6576,41.0508 14.6667,41.1442 14.6313,41.3135C14.5872,41.3931 14.3676,41.2875 14.2981,41.244C14.0254,41.0973 14.0432,41.1737 13.964,40.919C13.9207,40.7487 13.9235,40.5503 14.2075,40.4013C14.3827,40.3016 14.7372,40.182 14.851,40.4013C14.8861,40.5502 14.7108,40.7403 14.7372,40.9071ZM16.2404,42.815C15.8778,42.8238 15.626,42.6248 15.46,42.2006C15.2898,41.6561 15.2314,41.1797 15.3484,40.6177C15.3863,40.5502 15.465,40.5033 15.5181,40.5272L16.0215,40.3541C16.1908,40.2867 16.3318,40.2635 16.492,40.3016L16.5917,40.4036C16.5855,40.6963 16.513,40.913 16.507,41.1847C16.4776,41.8674 16.4194,42.0718 16.615,42.7213C16.5422,42.8941 16.396,42.8116 16.2404,42.815ZM36.9662,17.4427C36.917,17.4951 36.8556,17.5565 36.7738,17.5361C36.5867,17.4044 36.6563,17.238 36.6683,17.0801C36.7064,17.0418 36.7124,17.0217 36.7738,17.0217C36.8615,17.0035 36.9108,17.0709 36.9432,17.1181C36.9985,17.2202 37.0077,17.337 36.9662,17.4427ZM22.657,25.7027C23.8912,23.4878 25.3894,21.5654 26.9958,19.59L29.2458,17.0326C30.8487,15.3212 32.622,13.5653 34.5885,12.2081C34.8371,12.067 34.9449,11.7749 35.1996,11.9795L35.4309,12.1931C35.586,12.3689 35.4514,12.8695 35.2931,13.0096C35.1642,13.1153 35.0415,13.2149 34.9187,13.3165C35.302,13.697 35.8578,14.4202 36.311,14.8881C36.5103,15.0929 36.4488,15.3069 36.8061,15.4702C36.9844,15.5557 37.0368,15.7511 36.929,15.9181C36.6127,16.325 36.0862,16.2635 35.6708,16.3691C34.1257,16.7114 32.8792,17.1527 31.1708,17.9812C29.8045,18.7072 28.7133,19.5087 27.7217,20.752C27.344,21.2205 26.9194,21.5746 26.6031,22.1363C25.7025,23.2922 24.9885,24.3778 24.2717,25.5688C24.0169,25.9434 23.9354,26.1305 23.575,26.4669C23.4028,26.6339 23.2477,26.2884 23.1391,26.1688C23.1281,26.1569 23.1188,26.1388 23.1099,26.1274C23.0748,26.1336 23.0374,26.1245 22.9991,26.1014C22.9024,25.9752 22.6016,25.9221 22.657,25.7027ZM36.2585,17.1497C36.2354,17.5775 35.6647,17.9311 35.1874,18.0629C34.986,18.0951 34.7988,18.0837 34.6176,18.0837C34.5703,18.0518 34.5179,18.0103 34.5239,17.9635C34.5562,17.7618 34.5885,17.6418 34.6026,17.4606L34.7194,17.3723C35.1409,17.2876 35.6556,17.1969 36.0802,17.086C36.1417,17.0973 36.2203,17.0913 36.2585,17.1497ZM31.8261,18.2651L31.9025,18.1655C32.2498,18.0013 32.5692,17.8725 32.9524,17.7645L33.4115,17.6447C33.5344,17.5331 33.7479,17.4425 33.8739,17.6006C33.8799,18.1946 33.4356,18.9114 32.7773,19.1835C32.5692,19.274 32.2943,19.3032 32.0486,19.3655C31.9872,19.3123 31.7878,19.4238 31.7266,19.274C31.7646,18.9761 31.8785,18.531 31.8261,18.2651ZM27.1187,28.8198C26.9958,28.8895 25.9278,28.4826 26.0534,28.5941C25.799,28.3224 26.2145,28.2308 25.2724,27.8773L25.0439,27.9004C25.0147,27.9268 24.9328,27.971 24.8484,27.8541C24.8396,27.7104 25.0266,27.7307 25.085,27.555C25.4213,26.7972 25.2342,26.2091 25.2019,25.425L25.4506,24.7813C25.9247,24.2133 25.9217,24.1319 26.2438,23.8218C26.5631,23.3709 26.6304,23.3355 27.0602,22.9671C27.1307,22.9057 27.2589,22.8591 27.3441,22.929C27.5457,23.0869 27.5576,23.1925 27.6162,23.3941C27.7159,24.1432 27.2616,24.6585 26.7151,25.0653C26.3284,25.3985 25.9571,25.92 26.0417,26.4317L26.0739,26.4638C26.2529,26.3176 26.4753,26.2301 26.5509,26.0449C26.8469,25.3844 27.6423,25.0826 28.0872,24.5093C28.2835,24.1642 28.1628,23.5702 28.0872,23.1724C28.0872,23.1835 28.6721,22.8935 28.5142,22.9963C28.7921,23.1132 28.7568,23.3124 28.8916,23.5671C29.1553,24.2285 29.1313,24.8278 28.7277,25.4017L27.6163,26.789C27.5987,27.4936 27.7913,28.4038 27.1187,28.8198ZM28.5844,22.1071C28.3178,22.2299 28.0429,22.2562 27.7476,22.1183C27.6713,22.0187 27.4287,21.9341 27.5253,21.7852C27.739,21.4367 28.1015,21.1498 28.3238,20.8075L28.4294,20.752C28.8796,20.2082 29.594,19.7483 30.2697,19.3384L30.6766,19.1603C30.7671,19.0726 30.9746,18.8882 31.0539,19.0785C31.0711,19.7895 30.7699,20.5505 30.0914,21.0533C29.6819,21.358 29.5033,21.2996 29.1371,21.3228L28.9467,21.6623C28.9036,21.8316 28.7543,22.0046 28.5844,22.1071ZM24.8423,26.1656L24.8246,26.669C24.7781,27.1282 24.5674,27.6579 24.1347,27.9124C23.877,27.8513 23.9705,27.5408 23.9062,27.3298C24.0733,26.8736 24.3914,26.4931 24.6581,26.0863C24.6963,26.06 24.7309,26.0427 24.769,26.06ZM18.7015,43.6547C18.5225,43.8389 18.4206,43.7543 18.2385,43.7721C17.718,43.6284 17.4139,43.4057 17.2678,42.8177C17.0744,41.9983 17.0827,41.0972 17.2678,40.2573L17.3493,40.1928C17.7148,40.1523 18.2654,40.079 18.4173,40.1605C18.5667,40.2431 18.2563,41.7173 18.2563,41.7173C18.2444,42.0102 18.3882,42.7592 18.5224,43.1458C18.5495,43.2046 18.8504,43.5025 18.7015,43.6547ZM22.4696,42.7442C22.4141,43.2718 21.7527,43.7339 21.4278,43.8277C21.1033,43.9214 20.1382,43.8739 19.8601,43.7775C19.5793,43.6807 18.8998,42.3556 18.9795,41.668C18.9795,41.0973 19.1343,40.1961 19.3622,40.1227C19.5906,40.0529 20.1933,40.0883 20.1933,40.0883C20.4448,40.0701 20.6384,40.1315 20.8599,40.1578C21.0151,40.2193 20.9071,40.4156 20.9597,40.5293C21.033,40.8224 21.0502,41.1415 21.2322,41.4337C21.4861,41.9257 21.9513,42.2178 22.4142,42.3908C22.5159,42.4874 22.4577,42.6164 22.4696,42.7442ZM21.7264,40.5184C21.7264,40.4124 21.7327,40.3691 21.8111,40.334L22.247,40.334C22.6364,40.3481 23.134,40.4738 23.4965,40.0996C23.7039,40.1083 23.7218,40.3541 23.7774,40.5475C23.8266,40.8134 23.8155,40.9834 23.8155,41.2229C23.7278,41.4132 23.6313,41.7031 23.4351,41.826C23.1221,41.9722 22.8059,41.9429 22.5047,41.826C22.0509,41.557 21.7204,41.1264 21.7264,40.5184ZM30.656,38.4348C30.0735,40.4568 29.7955,41.4979 30.7056,43.5787C30.7143,43.6575 30.802,43.9183 30.7056,43.9505C29.6989,43.748 29.4328,43.6606 28.4875,43.5932C27.6159,43.4411 26.1642,43.6838 25.1966,43.6756C24.4387,43.7016 23.6686,43.7281 22.8761,43.8246C22.6387,43.7016 22.8237,43.4349 22.8408,43.2597C22.9287,42.9877 22.9376,42.8468 22.9637,42.5278C23.0865,42.3966 23.2385,42.4664 23.3877,42.4049C23.897,42.3265 24.3299,41.8754 24.4526,41.3989C24.6138,40.8988 24.4386,40.3422 24.2068,39.8656C24.1636,39.7249 23.9702,39.617 24.049,39.476C24.675,38.3031 24.2332,37.112 24.0228,35.9682C23.8032,35.1544 23.467,34.2556 23.3322,33.3989C23.3613,33.3111 23.2475,33.1058 23.4407,33.0917L23.511,33.1058C24.1809,33.9191 26.1004,35.6368 26.8194,36.1957C27.5369,36.7547 29.3943,37.8379 30.6025,38.1268C30.7176,38.2235 30.6997,38.3032 30.656,38.4348Z" style="fill:white;fill-rule:nonzero;stroke-width:0.47px;stroke:white;"/>
            </g>
            <g>
                <path d="M35.7522,20.8718C35.8751,21.0329 35.9575,21.1739 35.8578,21.3228C35.6294,21.3401 35.5942,21.0511 35.4018,20.9542C35.0827,20.7963 34.7988,20.9625 34.4827,21.042C33.6815,21.3874 33.0111,22.0749 32.2328,22.4344C32.1361,22.4344 32.0486,22.4256 31.9871,22.3559C32.1188,22.2241 32.3322,22.1977 32.4993,22.0892C33.301,21.5627 34.0792,20.7349 35.0827,20.5828C35.3485,20.5647 35.586,20.6614 35.7522,20.8718Z" style="fill:white;fill-rule:nonzero;stroke-width:0.47px;stroke:white;"/>
            </g>
            <g>
                <path d="M35.6911,22.233C35.6296,22.0369 35.6386,21.7206 35.402,21.6764C35.3487,21.7998 35.402,21.9341 35.3487,22.0487C35.2762,22.1362 35.1527,22.2412 35.0125,22.2061C34.0412,22.2682 33.3181,23.1221 32.4907,23.5641C32.2069,23.7223 31.8906,23.8128 31.5898,23.8916C31.5634,23.9358 31.5716,23.9972 31.6157,24.0232C32.534,24.1201 33.441,24.2076 34.3512,24.3041L35.3638,24.1904C35.393,24.0587 35.2319,23.9446 35.2583,23.7926C35.3751,23.3801 35.4102,22.9291 35.2964,22.5404C35.3751,22.3295 35.6742,22.4871 35.6911,22.233ZM34.9834,23.7978C34.8576,23.9827 34.6613,23.8218 34.4891,23.8451C34.0914,23.7978 33.4211,23.8915 32.982,23.8361C32.9145,23.7978 32.8682,23.731 32.9057,23.6695C32.9732,23.5579 33.1575,23.5521 33.2718,23.4673C33.7513,23.1692 34.2547,22.8825 34.8022,22.7535C34.9019,22.7386 34.9834,22.8209 35.0006,22.8912C35.0648,23.1452 35.0247,23.5522 34.9834,23.7978Z" style="fill:white;fill-rule:nonzero;stroke-width:0.47px;stroke:white;"/>
            </g>
            <g>
                <path d="M36.2063,26.7799C36.2356,26.7327 36.2737,26.6803 36.317,26.6772C36.3726,26.6985 36.4048,26.7244 36.4138,26.8323C36.4047,27.0026 36.3642,27.1806 36.317,27.3712C36.2647,27.5846 36.2091,27.8068 36.2091,28.0234C36.2091,28.1171 36.2205,28.2137 36.2467,28.3075C36.3725,28.4652 36.5717,28.5035 36.8061,28.421C36.8115,28.418 37.2097,28.1905 37.2097,28.1905C37.5551,27.9852 37.8792,27.7899 38.4884,27.6347C38.4994,27.6315 38.5025,27.637 38.5054,27.6399C38.5177,27.6489 38.5205,27.6721 38.5205,27.7012C38.5205,27.7516 38.5054,27.8241 38.4794,27.8804C38.4562,27.8914 37.8974,28.1403 37.8974,28.1403C37.4586,28.3334 37.0017,28.5326 36.5744,28.7784C36.4488,28.8017 36.3319,28.7343 36.2204,28.667L36.1911,28.6527C36.0301,28.4303 35.9778,28.2168 35.9778,28.0001C35.9778,27.8068 36.0188,27.6138 36.0623,27.4154C36.1005,27.231 36.1447,27.0408 36.153,26.8383C36.1681,26.8241 36.2063,26.7799 36.2063,26.7799Z" style="fill:white;fill-rule:nonzero;stroke-width:0.47px;stroke:white;"/>
            </g>
            <g>
                <path d="M22.4607,26.5987C22.7797,27.2511 22.4438,27.8682 22.4607,28.5469C22.5134,28.7403 22.8937,28.7666 22.7797,28.9979C22.6923,29.0593 22.5663,29.0765 22.4697,29.007C22.2945,28.8922 22.2322,28.8048 22.1889,28.6C22.1417,28.0033 22.6189,27.3033 22.198,26.7385C22.0751,26.616 21.8959,26.4931 21.7207,26.4841C21.3402,26.5546 21.1472,26.9611 21.0153,27.26C20.8136,28.0526 20.7582,28.8922 21.4572,29.5277C21.8639,29.7643 22.356,30.0219 22.385,30.5344C22.4438,30.6219 22.5663,30.7064 22.666,30.6573C22.7888,30.6481 22.8061,30.294 22.9814,30.4639L23.0345,30.584C22.9904,30.727 22.947,30.9732 22.7185,30.9814C22.6046,31.0079 22.4788,30.9464 22.3851,30.8767C22.1366,30.622 22.3291,30.2326 21.914,30.0663C21.2265,29.8527 20.7755,29.1298 20.7053,28.4503C20.6617,27.798 20.691,27.084 21.2529,26.5111C21.4751,26.344 21.7643,26.2353 22.0482,26.3262C22.2062,26.3529 22.3904,26.4638 22.4607,26.5987Z" style="fill:white;fill-rule:nonzero;stroke-width:0.47px;stroke:white;"/>
            </g>
            <g>
                <path d="M13.8385,31.3681C12.5839,31.9501 12.2002,33.4482 12.183,33.5096L12.1507,33.6445L12.2789,33.6886C12.329,33.703 13.4936,34.0863 14.9184,33.3867C16.3518,32.685 16.6469,31.2626 16.659,31.2011L16.6881,31.0518L16.5361,31.0288C16.4777,31.0169 15.0736,30.7973 13.8385,31.3681ZM13.9642,31.64C14.8803,31.2129 15.9279,31.2625 16.3228,31.3007C16.2113,31.663 15.8286,32.6085 14.7865,33.1209C13.7424,33.6326 12.8437,33.5096 12.5164,33.44C12.6394,33.0767 13.0431,32.0678 13.9642,31.64Z" style="fill:white;fill-rule:nonzero;stroke-width:0.47px;stroke:white;"/>
            </g>
            <g>
                <path d="M15.0906,28.5499C13.8332,29.1178 13.3681,30.5987 13.3499,30.6632L13.3066,30.8032L13.4467,30.8474C13.4959,30.8616 14.6577,31.2098 16.0853,30.5284C17.5249,29.8376 17.832,28.4651 17.8439,28.407L17.8762,28.2578L17.7241,28.2308C17.6686,28.2196 16.3288,27.991 15.0906,28.5499ZM15.2135,28.8198C16.1267,28.4071 17.1244,28.4594 17.5076,28.5005C17.3879,28.8571 16.9982,29.7612 15.9575,30.2587C14.9213,30.7537 14.0287,30.66 13.6894,30.5987C13.8332,30.2271 14.2923,29.2345 15.2135,28.8198Z" style="fill:white;fill-rule:nonzero;stroke-width:0.47px;stroke:white;"/>
            </g>
            <g>
                <path d="M16.7265,25.8345C15.4651,26.388 14.9185,27.8563 14.8981,27.9178L14.8419,28.0675L14.9971,28.1112C15.0472,28.1261 16.2059,28.4361 17.6336,27.7686C19.0812,27.0963 19.3974,25.7732 19.4123,25.7149L19.4448,25.5657L19.2955,25.5365C19.2423,25.5275 17.9698,25.2877 16.7265,25.8345ZM16.8434,26.1073C17.7563,25.7058 18.7016,25.7619 19.073,25.8055C18.9501,26.1506 18.5496,27.0166 17.5106,27.4999C16.4838,27.9802 15.6,27.9125 15.2457,27.8564C15.4158,27.4818 15.928,26.511 16.8434,26.1073Z" style="fill:white;fill-rule:nonzero;stroke-width:0.47px;stroke:white;"/>
            </g>
            <g>
                <path d="M18.3472,23.1515C17.086,23.6927 16.4598,25.1438 16.4367,25.2051L16.3661,25.3663L16.5362,25.4077C16.5855,25.4196 17.7413,25.6975 19.1748,25.0472C20.6292,24.3895 20.9537,23.1132 20.9688,23.0577L21.0069,22.9086L20.855,22.8765C20.8046,22.8643 19.5995,22.6186 18.3472,23.1515ZM18.4641,23.4264C19.3712,23.0406 20.2694,23.0988 20.6267,23.1424C20.4979,23.4793 20.0911,24.3072 19.0521,24.7754C18.0373,25.2375 17.1594,25.197 16.7939,25.15C16.9896,24.7664 17.5511,23.8157 18.4641,23.4264Z" style="fill:white;fill-rule:nonzero;stroke-width:0.47px;stroke:white;"/>
            </g>
            <g>
                <path d="M20.5943,20.468C19.3301,20.9947 18.6252,22.4314 18.596,22.4929L18.5143,22.6627L18.6985,22.7041C18.7449,22.7123 19.8976,22.955 21.3373,22.3236C22.7942,21.6793 23.1342,20.4508 23.1482,20.3977L23.1866,20.2518L23.0377,20.2136C22.9904,20.205 21.8527,19.9475 20.5943,20.468ZM20.7081,20.743C21.6122,20.3685 22.4578,20.4299 22.8033,20.4771C22.6691,20.8075 22.2564,21.5917 21.2176,22.051C20.2048,22.4958 19.3391,22.4788 18.9647,22.4405C19.19,22.051 19.798,21.1207 20.7081,20.743Z" style="fill:white;fill-rule:nonzero;stroke-width:0.47px;stroke:white;"/>
            </g>
            <g>
                <path d="M23.0727,17.8786C21.8053,18.3908 21.0181,19.8157 20.9861,19.8772L20.89,20.0552L21.0886,20.0934C21.1386,20.1025 22.2886,20.31 23.728,19.6897C25.1938,19.0634 25.5442,17.8846 25.5594,17.835L25.6007,17.6852L25.4509,17.6501C25.4072,17.6388 24.3333,17.3691 23.0727,17.8786ZM23.1837,18.1536C24.0786,17.7941 24.8777,17.8584 25.2111,17.9078C25.0711,18.2269 24.6463,18.9761 23.6107,19.418C22.6099,19.8477 21.7531,19.8509 21.3666,19.8244C21.6182,19.429 22.2765,18.5228 23.1837,18.1536Z" style="fill:white;fill-rule:nonzero;stroke-width:0.47px;stroke:white;"/>
            </g>
            <g>
                <path d="M25.7172,15.4328C24.4477,15.927 23.5815,17.3399 23.546,17.4013L23.4322,17.5888L23.6489,17.6238C23.6989,17.6298 24.8456,17.805 26.2883,17.2028C27.7592,16.5908 28.1196,15.4588 28.1336,15.4118L28.1811,15.2657L28.0348,15.2244C27.9936,15.2134 26.9839,14.9346 25.7172,15.4328ZM25.8251,15.7077C26.7122,15.3623 27.4671,15.4269 27.7883,15.4761C27.6395,15.7864 27.2094,16.4973 26.1735,16.928C25.1878,17.3399 24.3364,17.3668 23.9386,17.3491C24.2224,16.9481 24.9243,16.0613 25.8251,15.7077Z" style="fill:white;fill-rule:nonzero;stroke-width:0.47px;stroke:white;"/>
            </g>
            <g>
                <path d="M28.4677,13.1736C27.1943,13.656 26.25,15.0552 26.2117,15.1138L26.0767,15.3151L26.3174,15.3447C26.3638,15.3506 27.5074,15.4885 28.956,14.9027C30.4308,14.3064 30.8053,13.2233 30.8196,13.1768L30.8669,13.0358L30.7232,12.9894C30.6853,12.9774 29.7433,12.6874 28.4677,13.1736ZM28.5725,13.4484C29.4535,13.1152 30.1612,13.1826 30.469,13.2349C30.314,13.5361 29.8721,14.2126 28.8451,14.6276C27.8648,15.0231 27.025,15.0695 26.6184,15.0633C26.9314,14.6568 27.6745,13.7907 28.5725,13.4484Z" style="fill:white;fill-rule:nonzero;stroke-width:0.47px;stroke:white;"/>
            </g>
            <g>
                <path d="M31.2614,11.1486C29.9859,11.62 28.9651,13.0065 28.9209,13.0647L28.7657,13.2732L29.0266,13.2994C29.0729,13.3054 30.2142,13.4073 31.6652,12.837C33.1488,12.2544 33.5315,11.2212 33.5466,11.1779L33.5961,11.0369L33.4559,10.9905C33.4207,10.9757 32.5429,10.6776 31.2614,11.1486ZM31.3639,11.4267C32.2358,11.1077 32.9003,11.1719 33.1923,11.2275C33.0312,11.5173 32.5841,12.1577 31.5571,12.5615C30.5888,12.942 29.7604,13.0065 29.3423,13.0097C29.6846,12.5996 30.4713,11.757 31.3639,11.4267Z" style="fill:white;fill-rule:nonzero;stroke-width:0.47px;stroke:white;"/>
            </g>
            <g>
                <path d="M11.8318,28.5299C11.7935,28.5763 10.9219,29.7088 10.8313,31.0722C10.7405,32.4623 11.8753,33.5214 11.9255,33.5659L12.0252,33.6593L12.127,33.5659C12.1653,33.5337 13.0632,32.688 13.1306,31.0961C13.2042,29.4925 12.0898,28.5469 12.0424,28.5066L11.9256,28.4098ZM11.1232,31.2271C11.1232,31.1839 11.1263,31.1396 11.1294,31.0933C11.1936,30.0714 11.7466,29.1732 11.969,28.849C12.2266,29.1148 12.8383,29.8581 12.8383,30.9555C12.8383,30.9965 12.8383,31.04 12.8356,31.0842C12.7824,32.2549 12.2445,32.9861 12.0219,33.2407C11.7703,32.9717 11.1232,32.1875 11.1232,31.2271Z" style="fill:white;fill-rule:nonzero;stroke-width:0.47px;stroke:white;"/>
            </g>
            <g>
                <path d="M13.6016,25.475C13.5724,25.5073 12.8616,26.2916 12.5598,27.4153C12.5192,27.5701 12.4871,27.7307 12.4661,27.9004C12.303,29.2467 13.2743,30.35 13.3179,30.3965L13.4114,30.5052L13.5231,30.4114C13.5636,30.3792 14.4795,29.5829 14.6669,28.0352C14.8539,26.4727 13.8564,25.5073 13.8122,25.4692L13.7043,25.3634ZM12.7449,28.2047C12.7449,28.1171 12.75,28.0293 12.7619,27.9388C12.7792,27.7837 12.8087,27.6347 12.8466,27.4937C13.0631,26.6863 13.5141,26.0571 13.7157,25.8024C13.9297,26.0541 14.392,26.7155 14.392,27.658C14.392,27.7659 14.386,27.8834 14.371,28.0002C14.2369,29.1267 13.6751,29.8258 13.4408,30.0774C13.23,29.7994 12.7449,29.0683 12.7449,28.2047Z" style="fill:white;fill-rule:nonzero;stroke-width:0.47px;stroke:white;"/>
            </g>
            <g>
                <path d="M15.588,22.6105C15.5556,22.6396 14.8096,23.3327 14.4324,24.451C14.386,24.5939 14.3446,24.7463 14.3123,24.9215C14.0788,26.2242 14.8893,27.3679 14.9212,27.418L15.0121,27.5431L15.1348,27.4471C15.173,27.4152 16.1123,26.666 16.4134,25.165C16.7174,23.6458 15.8345,22.6599 15.7964,22.6185L15.6967,22.5107ZM14.5702,25.4017C14.5702,25.2617 14.5821,25.1146 14.6082,24.9716C14.6346,24.8137 14.6695,24.6758 14.7132,24.5469C14.9827,23.7514 15.46,23.1775 15.6762,22.9467C15.8455,23.1835 16.1791,23.7573 16.1791,24.5447C16.1791,24.7231 16.1617,24.9101 16.1204,25.1086C15.9041,26.1888 15.3251,26.8532 15.0735,27.1022C14.9063,26.8209 14.5702,26.1595 14.5702,25.4017Z" style="fill:white;fill-rule:nonzero;stroke-width:0.47px;stroke:white;"/>
            </g>
            <g>
                <path d="M17.7706,19.9324C17.736,19.9587 16.9578,20.5646 16.5009,21.6742C16.4486,21.8022 16.4016,21.9522 16.3612,22.1244C16.0532,23.3828 16.6943,24.5709 16.7236,24.6204L16.8023,24.7665L16.9401,24.6676C16.9811,24.6405 17.9378,23.9358 18.3563,22.4848C18.7772,21.0098 18.011,20.0002 17.979,19.9588L17.8884,19.8418ZM16.5774,22.827C16.5774,22.6217 16.5977,22.4052 16.647,22.1949C16.6852,22.0369 16.7294,21.9019 16.7758,21.7853C17.098,21.007 17.5984,20.4863 17.8297,20.275C17.9557,20.4914 18.1802,20.9687 18.1802,21.6096C18.1802,21.8526 18.151,22.1184 18.0696,22.4023C17.7707,23.4352 17.1745,24.0675 16.905,24.3104C16.788,24.0442 16.5774,23.4765 16.5774,22.827Z" style="fill:white;fill-rule:nonzero;stroke-width:0.47px;stroke:white;"/>
            </g>
            <g>
                <path d="M20.1351,17.4395C20.1,17.4605 19.2895,17.978 18.754,19.0785C18.6925,19.2013 18.637,19.3384 18.584,19.5145C18.2064,20.7288 18.6833,21.9551 18.7066,22.0074L18.7742,22.1745L18.9262,22.0748C18.9673,22.0456 19.9417,21.3902 20.4745,19.9856C21.0153,18.5542 20.3657,17.5272 20.3366,17.4838L20.2578,17.3609ZM18.739,20.5063C18.739,20.2164 18.7743,19.9064 18.8678,19.6023C18.9183,19.4441 18.9647,19.3183 19.0198,19.2097C19.3944,18.4404 19.9218,17.9722 20.1616,17.785C20.2521,17.9722 20.3921,18.3438 20.3921,18.8441C20.3921,19.1482 20.3397,19.4968 20.1967,19.8773C19.8252,20.8636 19.2073,21.463 18.921,21.7065C18.8476,21.4629 18.739,21.021 18.739,20.5063Z" style="fill:white;fill-rule:nonzero;stroke-width:0.47px;stroke:white;"/>
            </g>
            <g>
                <path d="M22.666,15.1279C22.6308,15.146 21.7912,15.5729 21.1681,16.6644C21.1034,16.7842 21.0421,16.9161 20.9779,17.0831C20.527,18.2529 20.8429,19.5177 20.8578,19.57L20.9074,19.7631L21.0776,19.6575C21.1179,19.6343 22.1125,19.0225 22.7596,17.6649C23.4181,16.2808 22.8856,15.2367 22.8615,15.1925L22.7942,15.0634ZM21.0361,18.4815C21.0361,18.0891 21.0857,17.627 21.2528,17.1879C21.3142,17.0359 21.3665,16.9161 21.4279,16.8105C21.8577,16.0584 22.4054,15.6404 22.6598,15.4761C22.7154,15.6313 22.7919,15.9011 22.7919,16.2725C22.7919,16.6231 22.7212,17.056 22.4901,17.5392C22.0427,18.4815 21.4075,19.0463 21.1033,19.2769C21.0712,19.0958 21.0361,18.8149 21.0361,18.4815Z" style="fill:white;fill-rule:nonzero;stroke-width:0.47px;stroke:white;"/>
            </g>
            <g>
                <path d="M25.3518,12.9951C25.3135,13.0095 24.4478,13.3487 23.7393,14.4289C23.6666,14.543 23.5962,14.6746 23.5229,14.8297C23.0054,15.9562 23.1574,17.2583 23.1633,17.3107L23.1896,17.5272L23.3827,17.4223C23.4262,17.399 24.4357,16.8373 25.197,15.5265C25.9751,14.1857 25.5594,13.1233 25.5414,13.0798L25.486,12.9419ZM23.4354,16.7992C23.4354,16.3369 23.4936,15.6022 23.7926,14.9527C23.8592,14.8089 23.9236,14.692 23.9879,14.5923C24.474,13.8522 25.0441,13.4867 25.3075,13.3429C25.3368,13.4635 25.3664,13.6388 25.3664,13.8726C25.3664,14.2619 25.2785,14.7917 24.9422,15.3766C24.418,16.2755 23.7655,16.8052 23.4413,17.03C23.4381,16.9654 23.4354,16.8898 23.4354,16.7992Z" style="fill:white;fill-rule:nonzero;stroke-width:0.47px;stroke:white;"/>
            </g>
            <g>
                <path d="M28.1811,11.0402C28.1427,11.049 27.2504,11.3038 26.4544,12.372C26.3729,12.4799 26.2906,12.6059 26.2146,12.7488C25.6239,13.832 25.6148,15.172 25.6148,15.2306L25.6179,15.4673L25.8283,15.3622C25.8755,15.339 26.9053,14.8207 27.7801,13.5571C28.6693,12.2663 28.374,11.1869 28.3621,11.1426L28.3207,10.9997ZM26.4753,12.8926C26.5449,12.7607 26.6184,12.65 26.6918,12.5472C27.2357,11.8213 27.8295,11.5022 28.1044,11.3853C28.1104,11.4557 28.1195,11.5376 28.1195,11.646C28.1195,12.0439 28.0227,12.682 27.5343,13.39C26.9405,14.2447 26.27,14.742 25.9247,14.9616C25.9571,14.5257 26.0685,13.6328 26.4753,12.8926Z" style="fill:white;fill-rule:nonzero;stroke-width:0.47px;stroke:white;"/>
            </g>
            <g>
                <path d="M31.1267,9.25804C31.089,9.26399 30.1761,9.43415 29.2863,10.4814C28.4063,11.5264 28.198,13.2469 28.1898,13.3197L28.1606,13.5773L28.3973,13.4717C28.4414,13.4516 29.4916,12.9803 30.4773,11.76C31.4841,10.5197 31.3057,9.42224 31.2997,9.37812L31.2735,9.23206ZM29.5148,10.6747C30.1178,9.96381 30.7317,9.69114 31.0158,9.59741C31.0188,9.60336 31.0188,9.60648 31.0188,9.61527C31.0188,9.96069 30.9282,10.733 30.2466,11.5756C29.5852,12.3921 28.8914,12.8545 28.532,13.0648C28.6287,12.5354 28.8976,11.4034 29.5148,10.6747Z" style="fill:white;fill-rule:nonzero;stroke-width:0.47px;stroke:white;"/>
            </g>
            <g>
                <path d="M2.90842,24C2.90842,31.19 6.79629,38.1038 13.0572,42.0517L13.3179,42.2125L13.5051,41.9693C13.5574,41.9017 13.5783,41.835 13.5783,41.7759C13.5783,41.6206 13.4467,41.5011 13.373,41.4313L13.0107,41.0831C11.7174,39.6171 11.3721,38.2268 11.3721,37.1586C11.3721,35.9766 11.7967,35.1869 11.8318,35.1277L11.9458,34.9173L11.7877,34.7389C9.13988,31.787 7.74467,28.0758 7.74467,24C7.74467,15.0342 15.0355,7.74276 24.0001,7.74276C26.4927,7.74276 28.8828,8.28952 31.1065,9.37264L31.338,9.48649L34.6029,5.75839L34.2432,5.55677C31.1268,3.82183 27.584,2.90603 24.0001,2.90603C12.3673,2.90603 2.90842,12.3689 2.90842,24ZM3.5749,24C3.5749,12.7376 12.7388,3.57552 24,3.57552C27.3291,3.57552 30.6212,4.40108 33.5437,5.94858C33.1136,6.43789 31.4252,8.36898 31.1617,8.66404C28.9149,7.61087 26.5075,7.07233 24,7.07233C14.6668,7.07233 7.07101,14.6659 7.07101,24C7.07101,28.164 8.48152,31.965 11.147,35.0138C10.9919,35.3681 10.7192,36.1435 10.7192,37.1703C10.7192,38.019 10.9154,39.0372 11.5156,40.1204C6.57401,36.1846 3.5749,30.1973 3.5749,24Z" style="fill:white;fill-rule:nonzero;stroke-width:0.47px;stroke:white;"/>
            </g>
            <g>
                <path d="M31.3991,8.77269C29.0819,7.64308 26.595,7.07223 24,7.07223C14.6667,7.07223 7.07091,14.6658 7.07091,23.9999C7.07091,28.24 8.52848,32.1111 11.2872,35.1868L11.577,35.5081L12.8645,33.5658L12.7972,33.4861C12.6803,33.4721 12.5866,33.4539 12.5163,33.4398C12.5333,33.3865 12.5596,33.317 12.5888,33.2406C12.4899,33.1208 12.3874,32.9978 12.2906,32.875C12.1882,33.0413 12.0894,33.1614 12.0218,33.2406C11.7701,32.9715 11.1229,32.1874 11.1229,31.2269C11.1229,31.1976 11.1261,31.1655 11.1261,31.1364C9.92378,29.0179 9.312,26.6276 9.312,23.9998C9.312,15.901 15.9008,9.31104 23.9999,9.31104C25.9859,9.31104 27.9028,9.69973 29.7077,10.4639C29.9011,10.2617 30.0913,10.1034 30.2696,9.98091C28.2945,9.09676 26.1883,8.64061 23.9999,8.64061C15.5295,8.64061 8.63948,15.5314 8.63948,23.9997C8.63948,27.6717 9.78633,30.8995 12.03,33.609C11.9021,33.8053 11.7171,34.0832 11.5095,34.3993C9.05221,31.5026 7.74429,27.9234 7.74429,23.9997C7.74429,15.0339 15.0352,7.74248 23.9999,7.74248C26.3815,7.74248 28.666,8.2487 30.8052,9.23763C30.7143,9.43075 30.629,9.62131 30.5386,9.8115C30.7375,9.69964 30.9018,9.63227 31.0156,9.59713C31.0187,9.60308 31.0187,9.6062 31.0187,9.61498C31.0187,9.86668 30.9692,10.344 30.6793,10.9111L30.7549,10.9493L31.694,8.91252Z" style="fill:white;fill-rule:nonzero;stroke-width:0.47px;stroke:white;"/>
            </g>
            <g>
                <path d="M31.2471,5.45123L29.6285,7.50014C29.7783,7.54936 29.9244,7.6018 30.0704,7.65811L31.6769,5.62735C31.5363,5.56584 31.3933,5.50754 31.2471,5.45123Z" style="fill:white;fill-rule:nonzero;stroke-width:0.47px;stroke:white;"/>
            </g>
            <g>
                <path d="M28.0813,4.50898L27.1361,6.84747C27.2858,6.87383 27.4347,6.90302 27.5807,6.93524L28.5232,4.60545C28.374,4.57087 28.2273,4.54101 28.0813,4.50898Z" style="fill:white;fill-rule:nonzero;stroke-width:0.47px;stroke:white;"/>
            </g>
            <g>
                <path d="M24.3133,4.08798L24.0817,6.56667C24.2306,6.56667 24.3807,6.56894 24.5267,6.57177L24.7602,4.09988C24.6113,4.09676 24.4622,4.09081 24.3133,4.08798Z" style="fill:white;fill-rule:nonzero;stroke-width:0.47px;stroke:white;"/>
            </g>
            <g>
                <path d="M20.6406,4.36877L21.1118,6.80344C21.2587,6.7802 21.4048,6.7561 21.5537,6.73598L21.0827,4.29838C20.9338,4.31926 20.7877,4.34251 20.6406,4.36877Z" style="fill:white;fill-rule:nonzero;stroke-width:0.47px;stroke:white;"/>
            </g>
            <g>
                <path d="M17.0807,5.32236L18.1952,7.55843C18.3353,7.50836 18.4763,7.46197 18.6193,7.41463L17.5016,5.17346C17.3618,5.22354 17.2208,5.27276 17.0807,5.32236Z" style="fill:white;fill-rule:nonzero;stroke-width:0.47px;stroke:white;"/>
            </g>
            <g>
                <path d="M13.7012,6.95848L15.3632,8.85744C15.4943,8.78176 15.6263,8.70816 15.761,8.63485L14.0902,6.72691C13.9591,6.80344 13.8301,6.88205 13.7012,6.95848Z" style="fill:white;fill-rule:nonzero;stroke-width:0.47px;stroke:white;"/>
            </g>
            <g>
                <path d="M10.632,9.24972L12.73,10.7066C12.8466,10.607 12.9665,10.5105 13.0872,10.4108L10.9741,8.94484C10.8604,9.04451 10.7436,9.14731 10.632,9.24972Z" style="fill:white;fill-rule:nonzero;stroke-width:0.47px;stroke:white;"/>
            </g>
            <g>
                <path d="M8.01948,12.1257L10.4304,13.0648C10.5292,12.9419 10.629,12.8222 10.7285,12.7053L8.30024,11.7571C8.20681,11.88 8.113,12.0029 8.01948,12.1257Z" style="fill:white;fill-rule:nonzero;stroke-width:0.47px;stroke:white;"/>
            </g>
            <g>
                <path d="M6.00379,15.4761L8.59829,15.8388C8.67188,15.6958 8.74802,15.558 8.82671,15.4209L6.20822,15.0551C6.13803,15.1953 6.06756,15.3362 6.00379,15.4761Z" style="fill:white;fill-rule:nonzero;stroke-width:0.47px;stroke:white;"/>
            </g>
            <g>
                <path d="M4.68132,19.1513L7.32588,18.8973C7.37595,18.7444 7.42555,18.5893 7.47505,18.4373L4.80384,18.6921C4.75973,18.8441 4.71958,18.9961 4.68132,19.1513Z" style="fill:white;fill-rule:nonzero;stroke-width:0.47px;stroke:white;"/>
            </g>
            <g>
                <path d="M4.10761,22.9992L6.66744,22.1101C6.68557,21.9459 6.7056,21.782 6.72601,21.6181L4.13661,22.519C4.12537,22.6772 4.11658,22.8384 4.10761,22.9992Z" style="fill:white;fill-rule:nonzero;stroke-width:0.47px;stroke:white;"/>
            </g>
            <g>
                <path d="M4.30675,26.8877L6.61812,25.3695C6.60594,25.2001 6.59488,25.0299 6.58591,24.8578L4.23627,26.3993C4.25951,26.5634 4.28049,26.7244 4.30675,26.8877Z" style="fill:white;fill-rule:nonzero;stroke-width:0.47px;stroke:white;"/>
            </g>
            <g>
                <path d="M5.29244,30.6923L7.16803,28.6264C7.12145,28.4533 7.08017,28.2783 7.03917,28.105L5.12315,30.2152C5.17841,30.3764 5.23396,30.5344 5.29244,30.6923Z" style="fill:white;fill-rule:nonzero;stroke-width:0.47px;stroke:white;"/>
            </g>
            <g>
                <path d="M7.05693,34.3262L8.38498,31.8011C8.30345,31.6371 8.21871,31.4736 8.14238,31.3066L6.79043,33.8792C6.87801,34.0281 6.96643,34.1801 7.05693,34.3262Z" style="fill:white;fill-rule:nonzero;stroke-width:0.47px;stroke:white;"/>
            </g>
            <g>
                <path d="M9.31824,37.3546L10.0295,34.4318C9.91197,34.2766 9.79521,34.1187 9.68449,33.9606L8.9618,36.9482C9.07847,37.0858 9.19845,37.2198 9.31824,37.3546Z" style="fill:white;fill-rule:nonzero;stroke-width:0.47px;stroke:white;"/>
            </g>
            <g>
                <path d="M30.9161,11.0986C30.9775,11.1368 31.039,11.1781 31.0972,11.2193C31.1537,11.1952 31.2061,11.1691 31.2614,11.1487C31.3257,11.1255 31.3903,11.1046 31.4549,11.0845C31.317,10.9939 31.1887,10.8911 31.0654,10.7827C31.0249,10.8851 30.9717,10.9907 30.9161,11.0986Z" style="fill:white;fill-rule:nonzero;stroke-width:0.47px;stroke:white;"/>
            </g>
        </g>
    </g>
</svg>
