<?xml version="1.0" standalone="no"?>
<!DOCTYPE svg PUBLIC "-//W3C//DTD SVG 1.1//EN" "http://www.w3.org/Graphics/SVG/1.1/DTD/svg11.dtd">
<svg width="640px" height="128px" version="1.1" xmlns="http://www.w3.org/2000/svg" xmlns:xlink="http://www.w3.org/1999/xlink" xml:space="preserve" style="fill-rule:evenodd;clip-rule:evenodd;stroke-linejoin:round;stroke-miterlimit:1.41421;">
    <g>
        <g>
            <g>
                <g>
                    <path d="M42.6517,52.1638L37.9548,50.4729C37.9548,46.8406 38.1114,43.0518 38.4245,39.1064C38.7377,35.161 39.0508,31.4035 39.3639,27.8338C39.677,24.2642 39.9902,21.0077 40.3033,18.0643C40.6164,15.1209 40.773,12.7724 40.773,11.0189C40.773,10.2674 40.3972,9.4533 39.6457,8.57655C38.8942,7.69979 38.0488,6.88566 37.1094,6.13416C36.17,5.38265 35.2619,4.7564 34.3852,4.2554C33.5084,3.75439 32.8822,3.50389 32.5064,3.50389C32.2559,3.50389 31.9428,3.56652 31.567,3.69177C31.1913,3.81702 30.6277,4.16146 29.8762,4.72509C29.1247,5.28872 28.0287,6.10285 26.5883,7.16748C25.1479,8.23211 23.2379,9.7038 20.8581,11.5826C20.6076,11.8331 20.3884,12.0836 20.2005,12.3341C20.0127,12.5846 19.9187,13.0229 19.9187,13.6492C19.9187,14.025 20.1379,14.3694 20.5763,14.6825C21.0147,14.9956 21.5157,15.4027 22.0793,15.9037C22.6429,16.4047 23.2066,17.031 23.7702,17.7825C24.3338,18.534 24.6783,19.536 24.8035,20.7885C25.4298,28.3035 25.9308,35.8499 26.3065,43.4276C26.6823,51.0052 26.8701,58.5516 26.8701,66.0666C26.8701,71.2019 26.8075,76.1806 26.6823,81.0028C26.557,85.8249 26.4631,90.2713 26.4005,94.342C26.3378,98.4126 26.2439,101.888 26.1186,104.769C25.9934,107.65 25.9308,109.779 25.9308,111.157C25.9308,114.789 26.1186,117.075 26.4944,118.014C26.8701,118.954 27.4964,119.423 28.3732,119.423C28.9994,119.423 29.8762,119.079 31.0034,118.39C32.1307,117.701 33.2579,116.824 34.3852,115.76C35.5124,114.695 36.4831,113.599 37.2973,112.472C38.1114,111.345 38.5185,110.405 38.5185,109.654C38.5185,107.399 38.4872,104.205 38.4245,100.072C38.3619,95.9389 38.2993,91.5239 38.2367,86.8269C38.174,82.13 38.1114,77.4958 38.0488,72.9241C37.9861,68.3525 37.9548,64.501 37.9548,61.3697C39.0821,61.3697 41.5245,62.2465 45.282,64C49.0395,65.7535 54.4879,68.7595 61.6272,73.0181C68.7665,77.2766 77.8472,83.0068 88.8693,90.2087C99.8913,97.4106 113.293,106.46 129.075,117.357C131.58,118.985 133.396,120.175 134.523,120.926C135.65,121.678 136.84,122.054 138.093,122.054C138.97,122.054 140.128,121.553 141.569,120.551C143.009,119.549 144.418,118.39 145.796,117.075C147.173,115.76 148.363,114.445 149.365,113.13C150.367,111.814 150.868,110.781 150.868,110.03C150.868,109.278 150.367,108.715 149.365,108.339C148.363,107.963 147.142,107.65 145.702,107.399C144.261,107.149 142.758,106.867 141.193,106.554C139.627,106.241 138.218,105.771 136.966,105.145C128.949,101.137 120.526,96.5339 111.696,91.336C102.866,86.1381 94.5055,81.0967 86.6147,76.2119C78.724,71.3272 71.8352,66.9747 65.9484,63.1546C60.0616,59.3344 55.9909,56.7355 53.7364,55.3577C55.1142,54.1052 57.1808,52.4143 59.9363,50.285C62.6919,48.1558 65.7605,45.87 69.1423,43.4276C72.524,40.9852 76.0311,38.5115 79.6633,36.0065C83.2956,33.5014 86.7087,31.2156 89.9026,29.149C93.0965,27.0823 95.8833,25.3915 98.2631,24.0763C100.643,22.7612 102.271,22.041 103.148,21.9158C104.526,21.6652 105.465,21.3208 105.966,20.8824C106.467,20.4441 106.717,19.8491 106.717,19.0976C106.717,18.0956 106.31,16.7178 105.496,14.9643C104.682,13.2108 103.837,12.1462 102.96,11.7704C101.081,10.8937 99.6721,10.2048 98.7328,9.7038C97.7934,9.2028 97.0106,8.9523 96.3843,8.9523C95.5076,8.9523 94.7874,9.2028 94.2237,9.7038C93.6601,10.2048 92.9712,10.9563 92.1571,11.9583C91.343,12.9603 90.2157,14.1815 88.7753,15.6219C87.3349,17.0623 85.2996,18.7845 82.6694,20.7885L42.6517,52.1638Z" style="fill:white;"/>
                </g>
                <g>
                    <path d="M177.045,65.7123L175.259,102.471C175.061,105.447 174.664,107.878 174.069,109.763C173.473,111.648 172.853,113.161 172.208,114.302C171.564,115.443 170.993,116.385 170.497,117.13C170.001,117.874 169.753,118.643 169.753,119.436C169.753,120.825 170.695,121.52 172.581,121.52C173.672,121.52 174.838,121.371 176.078,121.073C177.318,120.776 179.129,120.329 181.51,119.734C182.601,119.436 183.32,118.866 183.668,118.022C184.015,117.179 184.188,116.361 184.188,115.567C184.188,114.376 184.139,112.665 184.04,110.433C183.94,108.2 183.891,105.993 183.891,103.81C183.891,101.33 183.916,98.279 183.965,94.6578C184.015,91.0365 184.064,87.1424 184.114,82.9754C184.164,78.8085 184.288,74.5175 184.486,70.1025C184.685,65.6875 184.933,61.3966 185.23,57.2296C186.718,58.9162 188.926,61.2478 191.853,64.2241C194.779,67.2005 198.054,70.5986 201.675,74.4183C205.296,78.238 209.165,82.3553 213.283,86.7703C217.4,91.1853 221.393,95.6747 225.263,100.239C227.049,102.322 228.413,104.405 229.355,106.489C230.298,108.572 231.017,110.457 231.513,112.144C232.009,113.831 232.431,115.22 232.778,116.311C233.125,117.402 233.547,117.948 234.043,117.948C234.44,117.948 235.184,117.626 236.275,116.981C237.367,116.336 238.483,115.542 239.624,114.6C240.765,113.657 241.782,112.615 242.675,111.474C243.568,110.333 244.014,109.267 244.014,108.275C244.014,105.1 243.964,102.099 243.865,99.2712C243.766,96.4436 243.716,93.7896 243.716,91.3093C243.716,83.1738 243.964,76.2041 244.46,70.4002C244.957,64.5962 245.502,59.7596 246.097,55.8902C246.693,52.0209 247.238,48.9453 247.734,46.6634C248.231,44.3815 248.479,42.7445 248.479,41.7524C248.479,40.661 248.231,39.6937 247.734,38.8504C247.238,38.0071 246.296,37.5854 244.907,37.5854C243.915,37.5854 242.823,37.635 241.633,37.7342C240.442,37.8335 239.301,38.0319 238.21,38.3295C237.119,38.6272 236.201,39.0488 235.457,39.5945C234.713,40.1402 234.291,40.8595 234.192,41.7524C234.192,42.4469 234.341,43.3894 234.638,44.5799C234.936,45.7705 235.234,47.3579 235.531,49.3422C235.829,51.3264 236.127,53.7572 236.424,56.6343C236.722,59.5115 236.871,62.8848 236.871,66.7541C236.871,71.6155 236.697,76.3529 236.35,80.9664C236.003,85.5798 235.432,90.4164 234.638,95.4763C233.249,94.2857 230.645,91.7062 226.825,87.7377C223.006,83.7691 218.491,78.9573 213.283,73.3021C208.074,67.647 202.444,61.3966 196.392,54.5509C190.34,47.7052 184.437,40.8595 178.682,34.0138C177.888,33.0216 177.219,32.3519 176.673,32.0047C176.127,31.6574 175.557,31.4838 174.962,31.4838C174.466,31.4838 173.945,31.583 173.399,31.7815C172.853,31.9799 172.184,32.4263 171.39,33.1208L166.032,37.4366C164.941,38.2303 164.395,38.9744 164.395,39.6689C164.395,40.9587 165.065,41.8516 166.405,42.3477C167.744,42.8437 169.232,43.4142 170.869,44.0591C172.506,44.704 173.994,45.7705 175.334,47.2587C176.673,48.7469 177.343,51.1776 177.343,54.5509C177.343,56.4359 177.318,58.2962 177.268,60.1316C177.219,61.967 177.144,63.8273 177.045,65.7123Z" style="fill:white;"/>
                </g>
                <g>
                    <path d="M288.362,77.4691C288.362,73.2029 288.908,69.1352 289.999,65.2659C291.091,61.3966 292.678,58.0233 294.761,55.1461C296.845,52.269 299.425,49.9623 302.5,48.226C305.576,46.4898 309.048,45.6217 312.917,45.6217C315.795,45.6217 318.573,46.1922 321.251,47.3331C323.93,48.4741 326.311,50.3095 328.395,52.8394C330.478,55.3694 332.165,58.7178 333.455,62.8848C334.744,67.0517 335.389,72.2108 335.389,78.362C335.389,84.3148 334.62,89.201 333.083,93.0207C331.545,96.8405 329.61,99.8416 327.279,102.024C324.947,104.207 322.492,105.695 319.912,106.489C317.332,107.283 315.001,107.679 312.917,107.679C307.957,107.679 303.889,106.439 300.714,103.959C297.539,101.479 295.034,98.5767 293.199,95.253C291.363,91.9294 290.098,88.581 289.404,85.2077C288.709,81.8345 288.362,79.2549 288.362,77.4691ZM277.647,79.8502C277.647,86.0014 278.59,91.4085 280.475,96.0716C282.36,100.735 284.791,104.629 287.767,107.754C290.743,110.879 294.117,113.235 297.887,114.823C301.657,116.41 305.377,117.204 309.048,117.204C313.711,117.204 318.201,116.311 322.516,114.525C326.832,112.739 330.677,110.135 334.05,106.712C337.423,103.289 340.127,99.0479 342.161,93.9881C344.194,88.9282 345.211,83.1242 345.211,76.5762C345.211,69.7305 344.418,63.8025 342.83,58.7922C341.243,53.782 339.11,49.6646 336.431,46.4402C333.752,43.2158 330.627,40.8347 327.055,39.2968C323.484,37.759 319.714,36.9901 315.745,36.9901C308.899,36.9901 303.071,38.3047 298.259,40.9339C293.447,43.563 289.503,46.9611 286.428,51.128C283.352,55.295 281.12,59.9084 279.731,64.9682C278.342,70.0281 277.647,74.9888 277.647,79.8502Z" style="fill:white;"/>
                </g>
                <g>
                    <path d="M370.362,114.376C370.362,115.369 370.461,116.286 370.66,117.13C370.858,117.973 371.106,118.841 371.404,119.734C371.602,120.23 372.222,120.751 373.264,121.296C374.306,121.842 375.496,122.363 376.836,122.859C378.175,123.355 379.539,123.752 380.928,124.05C382.317,124.347 383.458,124.496 384.351,124.496C387.923,124.496 390.825,123.454 393.057,121.371C395.289,119.287 397.075,116.931 398.414,114.302C399.754,111.673 400.671,109.118 401.168,106.638C401.664,104.157 401.912,102.52 401.912,101.727C401.912,97.3613 401.068,92.7727 399.382,87.9609C397.695,83.149 395.835,78.486 393.801,73.9718C391.767,69.4576 389.907,65.2411 388.22,61.3222C386.534,57.4032 385.69,54.154 385.69,51.5745C385.69,47.4075 387.129,43.9103 390.006,41.0827C392.883,38.2551 397.596,36.7421 404.144,36.5437C406.922,36.4445 408.683,36.0972 409.427,35.5019C410.171,34.9067 410.543,33.6169 410.543,31.6326C410.543,30.8389 410.047,30.1692 409.055,29.6236C408.063,29.0779 406.922,28.6314 405.632,28.2842C404.342,27.9369 403.028,27.6889 401.688,27.5401C400.349,27.3913 399.332,27.3169 398.638,27.3169C395.463,27.3169 392.412,28.4826 389.485,30.8141C386.558,33.1456 383.979,35.8988 381.747,39.0736C379.514,42.2484 377.728,45.3985 376.389,48.5237C375.05,51.6489 374.38,54.0548 374.38,55.7414C374.38,57.6265 374.851,59.9084 375.794,62.5871C376.736,65.2659 377.902,68.1183 379.291,71.1443C380.68,74.1703 382.193,77.2955 383.83,80.5199C385.467,83.7443 386.98,86.8695 388.369,89.8955C389.758,92.9215 390.924,95.7739 391.866,98.4527C392.809,101.131 393.28,103.463 393.28,105.447C393.28,107.63 392.462,109.639 390.825,111.474C389.188,113.31 387.03,114.228 384.351,114.228C381.573,114.228 379.241,113.756 377.356,112.814C375.471,111.871 373.834,111.4 372.445,111.4C371.949,111.4 371.478,111.623 371.032,112.07C370.585,112.516 370.362,113.285 370.362,114.376Z" style="fill:white;"/>
                </g>
                <g>
                    <path d="M428.253,114.376C428.253,115.369 428.352,116.286 428.55,117.13C428.749,117.973 428.997,118.841 429.294,119.734C429.493,120.23 430.113,120.751 431.155,121.296C432.196,121.842 433.387,122.363 434.726,122.859C436.066,123.355 437.43,123.752 438.819,124.05C440.208,124.347 441.349,124.496 442.242,124.496C445.813,124.496 448.715,123.454 450.948,121.371C453.18,119.287 454.966,116.931 456.305,114.302C457.645,111.673 458.562,109.118 459.058,106.638C459.554,104.157 459.802,102.52 459.802,101.727C459.802,97.3613 458.959,92.7727 457.273,87.9609C455.586,83.149 453.726,78.486 451.692,73.9718C449.658,69.4576 447.798,65.2411 446.111,61.3222C444.424,57.4032 443.581,54.154 443.581,51.5745C443.581,47.4075 445.02,43.9103 447.897,41.0827C450.774,38.2551 455.487,36.7421 462.035,36.5437C464.813,36.4445 466.574,36.0972 467.318,35.5019C468.062,34.9067 468.434,33.6169 468.434,31.6326C468.434,30.8389 467.938,30.1692 466.946,29.6236C465.954,29.0779 464.813,28.6314 463.523,28.2842C462.233,27.9369 460.919,27.6889 459.579,27.5401C458.24,27.3913 457.223,27.3169 456.528,27.3169C453.354,27.3169 450.303,28.4826 447.376,30.8141C444.449,33.1456 441.87,35.8988 439.637,39.0736C437.405,42.2484 435.619,45.3985 434.28,48.5237C432.941,51.6489 432.271,54.0548 432.271,55.7414C432.271,57.6265 432.742,59.9084 433.685,62.5871C434.627,65.2659 435.793,68.1183 437.182,71.1443C438.571,74.1703 440.084,77.2955 441.721,80.5199C443.358,83.7443 444.871,86.8695 446.26,89.8955C447.649,92.9215 448.815,95.7739 449.757,98.4527C450.7,101.131 451.171,103.463 451.171,105.447C451.171,107.63 450.352,109.639 448.715,111.474C447.078,113.31 444.921,114.228 442.242,114.228C439.464,114.228 437.132,113.756 435.247,112.814C433.362,111.871 431.725,111.4 430.336,111.4C429.84,111.4 429.369,111.623 428.922,112.07C428.476,112.516 428.253,113.285 428.253,114.376Z" style="fill:white;"/>
                </g>
                <g>
                    <path d="M497.9,77.4691C497.9,73.2029 498.446,69.1352 499.537,65.2659C500.629,61.3966 502.216,58.0233 504.3,55.1461C506.383,52.269 508.963,49.9623 512.038,48.226C515.114,46.4898 518.586,45.6217 522.456,45.6217C525.333,45.6217 528.111,46.1922 530.789,47.3331C533.468,48.4741 535.849,50.3095 537.933,52.8394C540.016,55.3694 541.703,58.7178 542.993,62.8848C544.282,67.0517 544.927,72.2108 544.927,78.362C544.927,84.3148 544.158,89.201 542.621,93.0207C541.083,96.8405 539.148,99.8416 536.817,102.024C534.485,104.207 532.03,105.695 529.45,106.489C526.871,107.283 524.539,107.679 522.456,107.679C517.495,107.679 513.427,106.439 510.252,103.959C507.078,101.479 504.572,98.5767 502.737,95.253C500.902,91.9294 499.637,88.581 498.942,85.2077C498.248,81.8345 497.9,79.2549 497.9,77.4691ZM487.185,79.8502C487.185,86.0014 488.128,91.4085 490.013,96.0716C491.898,100.735 494.329,104.629 497.305,107.754C500.281,110.879 503.655,113.235 507.425,114.823C511.195,116.41 514.915,117.204 518.586,117.204C523.249,117.204 527.739,116.311 532.054,114.525C536.37,112.739 540.215,110.135 543.588,106.712C546.961,103.289 549.665,99.0479 551.699,93.9881C553.733,88.9282 554.749,83.1242 554.749,76.5762C554.749,69.7305 553.956,63.8025 552.368,58.7922C550.781,53.782 548.648,49.6646 545.969,46.4402C543.29,43.2158 540.165,40.8347 536.593,39.2968C533.022,37.759 529.252,36.9901 525.283,36.9901C518.437,36.9901 512.609,38.3047 507.797,40.9339C502.985,43.563 499.041,46.9611 495.966,51.128C492.89,55.295 490.658,59.9084 489.269,64.9682C487.88,70.0281 487.185,74.9888 487.185,79.8502Z" style="fill:white;"/>
                </g>
                <g>
                    <path d="M579.9,114.376C579.9,115.369 579.999,116.286 580.198,117.13C580.396,117.973 580.644,118.841 580.942,119.734C581.14,120.23 581.76,120.751 582.802,121.296C583.844,121.842 585.034,122.363 586.374,122.859C587.713,123.355 589.077,123.752 590.466,124.05C591.855,124.347 592.996,124.496 593.889,124.496C597.461,124.496 600.363,123.454 602.595,121.371C604.827,119.287 606.613,116.931 607.952,114.302C609.292,111.673 610.21,109.118 610.706,106.638C611.202,104.157 611.45,102.52 611.45,101.727C611.45,97.3613 610.606,92.7727 608.92,87.9609C607.233,83.149 605.373,78.486 603.339,73.9718C601.305,69.4576 599.445,65.2411 597.758,61.3222C596.072,57.4032 595.228,54.154 595.228,51.5745C595.228,47.4075 596.667,43.9103 599.544,41.0827C602.421,38.2551 607.134,36.7421 613.682,36.5437C616.46,36.4445 618.221,36.0972 618.965,35.5019C619.709,34.9067 620.081,33.6169 620.081,31.6326C620.081,30.8389 619.585,30.1692 618.593,29.6236C617.601,29.0779 616.46,28.6314 615.17,28.2842C613.88,27.9369 612.566,27.6889 611.226,27.5401C609.887,27.3913 608.87,27.3169 608.176,27.3169C605.001,27.3169 601.95,28.4826 599.023,30.8141C596.097,33.1456 593.517,35.8988 591.285,39.0736C589.052,42.2484 587.267,45.3985 585.927,48.5237C584.588,51.6489 583.918,54.0548 583.918,55.7414C583.918,57.6265 584.389,59.9084 585.332,62.5871C586.274,65.2659 587.44,68.1183 588.829,71.1443C590.218,74.1703 591.731,77.2955 593.368,80.5199C595.005,83.7443 596.518,86.8695 597.907,89.8955C599.296,92.9215 600.462,95.7739 601.404,98.4527C602.347,101.131 602.818,103.463 602.818,105.447C602.818,107.63 602,109.639 600.363,111.474C598.726,113.31 596.568,114.228 593.889,114.228C591.111,114.228 588.78,113.756 586.894,112.814C585.009,111.871 583.372,111.4 581.983,111.4C581.487,111.4 581.016,111.623 580.57,112.07C580.123,112.516 579.9,113.285 579.9,114.376Z" style="fill:white;"/>
                </g>
            </g>
        </g>
    </g>
</svg>
