<?xml version="1.0" standalone="no"?>
<!DOCTYPE svg PUBLIC "-//W3C//DTD SVG 1.1//EN" "http://www.w3.org/Graphics/SVG/1.1/DTD/svg11.dtd">
<svg width="125px" height="23px" version="1.1" xmlns="http://www.w3.org/2000/svg" xmlns:xlink="http://www.w3.org/1999/xlink" xml:space="preserve" style="fill-rule:evenodd;clip-rule:evenodd;stroke-linejoin:round;stroke-miterlimit:1.41421;">
    <g>
        <path d="M12.1137,0.000202195L12.1137,3.69077L22.9999,3.69077L22.9999,2.47962L13.5852,2.47962L13.5852,1.38701L22.9999,1.38701L22.9999,0.000202195Z" style="fill:rgb(158,12,57);fill-rule:nonzero;"/>
        <path d="M9.70559,23.0165L10.9291,23.0165L10.9291,17.4389L9.70559,17.6909Z" style="fill:rgb(158,12,57);fill-rule:nonzero;"/>
        <path d="M12.2243,23.0165L13.6775,23.0165L13.6775,14.227L17.8794,14.227L17.8794,6.57167L19.1075,6.57167L19.1075,12.3709L23,12.3709L23,4.99202L21.5437,4.99202L21.5437,11.1211L20.2726,11.1211L20.2726,4.99202L16.4438,4.99202L16.4438,12.6957L12.2243,12.6957Z" style="fill:rgb(158,12,57);fill-rule:nonzero;"/>
        <path d="M0.000126372,23.0165L8.4491,23.0165L8.4491,20.6088L0.000126372,22.6821Z" style="fill:rgb(158,12,57);fill-rule:nonzero;"/>
        <path d="M14.9571,23.0165L14.9571,20.5022L19.2696,20.5022L20.7494,23.0165L17.8532,23.0165L17.8532,21.5139L17.0422,21.5139L17.0422,23.0165Z" style="fill:rgb(158,12,57);fill-rule:nonzero;"/>
        <path d="M0.000126372,4.48641L1.44329,4.48641L1.44329,7.38715L15.1852,7.38715L15.1852,8.8561L1.44329,8.8561L1.44329,12.0687L0.000126372,12.0687Z" style="fill:rgb(158,12,57);fill-rule:nonzero;"/>
        <path d="M0.000126372,13.3739L1.44329,13.3739L1.44329,19.7084L8.4491,18.034L8.4491,19.4388L0.000126372,21.5037Z" style="fill:rgb(158,12,57);fill-rule:nonzero;"/>
        <path d="M22.9999,23.0165L22.2708,23.0165L20.0924,19.2733L14.9374,19.2733L14.9374,15.4908L19.1077,15.4908L19.1077,13.6584L22.9999,13.6584L22.9999,16.6084L21.6746,16.6084L21.6746,15.0386L20.3911,15.0386L20.3911,16.6084L16.4918,16.6084L16.4918,17.8878L22.9999,17.8878L22.9999,19.2733L22.0309,19.2733" style="fill:rgb(158,12,57);fill-rule:nonzero;"/>
        <path d="M2.78339,18.0813L4.16413,17.7178L4.16413,11.4369L15.185,11.4369L15.185,10.1039L2.78339,10.1039Z" style="fill:rgb(158,12,57);fill-rule:nonzero;"/>
        <path d="M5.4319,17.4388L10.9291,16.0988L10.9291,12.6956L5.4319,12.6956L5.4319,14.8113L9.55491,13.9032L9.82332,15.1588L5.4319,16.1066Z" style="fill:rgb(158,12,57);fill-rule:nonzero;"/>
        <rect x="0" y="7.10543e-15" width="1.44317" height="3.21667" style="fill:rgb(158,12,57);"/>
        <path d="M5.43412,3.86974L5.43412,2.47965L8.01716,2.47965L8.01716,6.11284L2.78334,6.11284L2.78334,0.00022747L10.9027,0.00022747L10.9027,4.99192L15.1852,4.99192L15.1852,6.11284L9.30211,6.11284L9.30211,1.38703L4.1704,1.38703L4.1704,4.99192L6.69784,4.99192L6.69784,3.86974Z" style="fill:rgb(158,12,57);fill-rule:nonzero;"/>
        <g>
            <path d="M29.3184,20.1466L29.3184,17.8106C29.3184,17.0639 29.3237,16.3066 29.3344,15.5386C29.3451,14.7706 29.3611,14.0026 29.3824,13.2346C29.4677,13.2132 29.5744,13.1919 29.7024,13.1706C29.8304,13.1492 30.0011,13.1386 30.2144,13.1386C30.3637,13.1386 30.5291,13.1866 30.7104,13.2826C30.8917,13.3786 31.1691,13.5866 31.5424,13.9066C31.9157,14.2266 32.4224,14.6852 33.0624,15.2826C33.7024,15.8799 34.5451,16.6692 35.5904,17.6506C36.0171,18.0559 36.4171,18.4452 36.7904,18.8186C37.1637,19.1919 37.4997,19.5226 37.7984,19.8106C38.0971,20.0986 38.3584,20.3332 38.5824,20.5146C38.8064,20.6959 38.9824,20.7866 39.1104,20.7866C39.2384,20.7866 39.4464,20.7386 39.7344,20.6426C40.0224,20.5466 40.3211,20.4292 40.6304,20.2906C40.9397,20.1519 41.2117,20.0026 41.4464,19.8426C41.6811,19.6826 41.7984,19.5492 41.7984,19.4426C41.7984,19.2292 41.7504,19.0692 41.6544,18.9626C41.5584,18.8559 41.3611,18.7812 41.0624,18.7386C40.5717,18.6532 40.0437,18.4346 39.4784,18.0826C38.9131,17.7306 38.3371,17.3146 37.7504,16.8346C37.1637,16.3546 36.5771,15.8372 35.9904,15.2826C35.4037,14.7279 34.8491,14.2159 34.3264,13.7466C33.8037,13.2772 33.3184,12.8826 32.8704,12.5626C32.4224,12.2426 32.0384,12.0612 31.7184,12.0186L31.7184,11.9546C32.1024,11.7412 32.5984,11.3626 33.2064,10.8186C33.8144,10.2746 34.4651,9.66657 35.1584,8.99457C35.8517,8.32257 36.5504,7.6399 37.2544,6.94657C37.9584,6.25323 38.5984,5.66123 39.1744,5.17057C39.3237,5.04257 39.5104,4.9359 39.7344,4.85057C39.9584,4.76523 40.1717,4.69057 40.3744,4.62657C40.5771,4.56257 40.7531,4.49323 40.9024,4.41857C41.0517,4.3439 41.1264,4.25323 41.1264,4.14657C41.1264,4.08257 41.0464,3.9599 40.8864,3.77857C40.7264,3.59723 40.5397,3.41057 40.3264,3.21857C40.1131,3.02657 39.8944,2.8559 39.6704,2.70657C39.4464,2.55723 39.2704,2.48257 39.1424,2.48257C39.0357,2.48257 38.7424,2.7119 38.2624,3.17057C37.7824,3.62923 37.2117,4.19457 36.5504,4.86657C35.8891,5.53857 35.1797,6.27457 34.4224,7.07457C33.6651,7.87457 32.9557,8.61057 32.2944,9.28257C31.6331,9.95457 31.0624,10.5199 30.5824,10.9786C30.1024,11.4372 29.8091,11.6666 29.7024,11.6666C29.5744,11.6666 29.4944,11.6132 29.4624,11.5066C29.4304,11.3999 29.4144,11.2292 29.4144,10.9946C29.4144,10.7172 29.4197,10.4186 29.4304,10.0986C29.4411,9.77857 29.4624,9.39457 29.4944,8.94657C29.5264,8.49857 29.5584,7.97057 29.5904,7.36257C29.6224,6.75457 29.6597,6.03457 29.7024,5.20257C29.7237,4.8399 29.8037,4.54657 29.9424,4.32257C30.0811,4.09857 30.1504,3.9119 30.1504,3.76257C30.1504,3.69857 30.1184,3.58123 30.0544,3.41057C29.9904,3.2399 29.9104,3.05323 29.8144,2.85057C29.7184,2.6479 29.6224,2.46123 29.5264,2.29057C29.4304,2.1199 29.3611,2.01323 29.3184,1.97057C29.2544,1.90657 29.0997,1.8159 28.8544,1.69857C28.6091,1.58123 28.4224,1.52257 28.2944,1.52257C28.2091,1.52257 28.0704,1.59723 27.8784,1.74657C27.6864,1.8959 27.5051,2.06657 27.3344,2.25857C27.1637,2.45057 27.0091,2.64257 26.8704,2.83457C26.7317,3.02657 26.6624,3.1759 26.6624,3.28257C26.6624,3.38923 26.6891,3.50123 26.7424,3.61857C26.7957,3.7359 26.8597,3.89057 26.9344,4.08257C27.0091,4.27457 27.0837,4.53057 27.1584,4.85057C27.2331,5.17057 27.2811,5.59723 27.3024,6.13057C27.3451,7.21857 27.3824,8.31723 27.4144,9.42657C27.4464,10.5359 27.4624,11.6452 27.4624,12.7546C27.4624,13.5012 27.4517,14.2586 27.4304,15.0266C27.4091,15.7946 27.3824,16.5199 27.3504,17.2026C27.3184,17.8852 27.2864,18.4932 27.2544,19.0266C27.2224,19.5599 27.2064,19.9652 27.2064,20.2426C27.2064,20.4772 27.3131,20.6639 27.5264,20.8026C27.7397,20.9412 27.8997,21.0106 28.0064,21.0106C28.0704,21.0106 28.1771,20.9892 28.3264,20.9466C28.4757,20.9039 28.6197,20.8452 28.7584,20.7706C28.8971,20.6959 29.0251,20.6052 29.1424,20.4986C29.2597,20.3919 29.3184,20.2746 29.3184,20.1466Z" style="fill:white;"/>
        </g>
        <g>
            <path d="M47.1392,11.5535L46.8324,17.8674C46.7984,18.3786 46.7302,18.7961 46.6279,19.1199C46.5257,19.4437 46.4192,19.7036 46.3084,19.8996C46.1976,20.0955 46.0997,20.2574 46.0144,20.3852C45.9292,20.513 45.8866,20.6451 45.8866,20.7815C45.8866,21.02 46.0485,21.1393 46.3723,21.1393C46.5598,21.1393 46.76,21.1138 46.973,21.0626C47.186,21.0115 47.4971,20.9348 47.906,20.8326C48.0935,20.7815 48.2171,20.6835 48.2767,20.5386C48.3363,20.3938 48.3662,20.2532 48.3662,20.1168C48.3662,19.9123 48.3576,19.6184 48.3406,19.2349C48.3236,18.8515 48.315,18.4723 48.315,18.0974C48.315,17.6714 48.3193,17.1474 48.3278,16.5253C48.3363,15.9033 48.3449,15.2345 48.3534,14.5187C48.3619,13.803 48.3832,13.0659 48.4173,12.3076C48.4514,11.5492 48.494,10.8122 48.5451,10.0965C48.8007,10.3862 49.1799,10.7866 49.6826,11.2979C50.1853,11.8091 50.7477,12.3928 51.3697,13.0489C51.9917,13.705 52.6564,14.4122 53.3636,15.1706C54.0708,15.9289 54.7567,16.7 55.4213,17.4839C55.7281,17.8418 55.9624,18.1997 56.1243,18.5575C56.2862,18.9154 56.4097,19.2392 56.4949,19.5289C56.5801,19.8186 56.6526,20.0572 56.7122,20.2446C56.7719,20.4321 56.8443,20.5258 56.9295,20.5258C56.9977,20.5258 57.1255,20.4704 57.3129,20.3597C57.5004,20.2489 57.6921,20.1126 57.8881,19.9507C58.0841,19.7888 58.2587,19.6099 58.4121,19.4139C58.5655,19.2179 58.6422,19.0347 58.6422,18.8643C58.6422,18.319 58.6336,17.8035 58.6166,17.3178C58.5996,16.8321 58.591,16.3762 58.591,15.9502C58.591,14.5528 58.6336,13.3556 58.7189,12.3587C58.8041,11.3618 58.8978,10.531 59,9.8664C59.1023,9.20178 59.196,8.6735 59.2812,8.28154C59.3664,7.88959 59.409,7.60841 59.409,7.43799C59.409,7.25054 59.3664,7.08438 59.2812,6.93953C59.196,6.79468 59.0341,6.72225 58.7955,6.72225C58.6251,6.72225 58.4377,6.73077 58.2332,6.74781C58.0287,6.76486 57.8327,6.79894 57.6452,6.85006C57.4578,6.90119 57.3002,6.97361 57.1723,7.06734C57.0445,7.16107 56.9721,7.28462 56.9551,7.43799C56.9551,7.55728 56.9806,7.71918 57.0317,7.92367C57.0829,8.12817 57.134,8.40083 57.1851,8.74166C57.2362,9.08249 57.2874,9.50001 57.3385,9.99421C57.3896,10.4884 57.4152,11.0678 57.4152,11.7324C57.4152,12.5675 57.3854,13.3812 57.3257,14.1736C57.2661,14.9661 57.1681,15.7968 57.0317,16.6659C56.7932,16.4614 56.3458,16.0184 55.6897,15.3367C55.0336,14.655 54.2583,13.8285 53.3636,12.8572C52.4689,11.8858 51.5018,10.8122 50.4623,9.63634C49.4227,8.46048 48.4088,7.28462 47.4204,6.10876C47.284,5.93834 47.169,5.82331 47.0753,5.76367C46.9815,5.70402 46.8836,5.6742 46.7813,5.6742C46.6961,5.6742 46.6066,5.69124 46.5129,5.72533C46.4192,5.75941 46.3042,5.8361 46.1678,5.95539L45.2476,6.69669C45.0601,6.83302 44.9664,6.96083 44.9664,7.08012C44.9664,7.30166 45.0814,7.45503 45.3115,7.54024C45.5415,7.62545 45.7972,7.72344 46.0784,7.83421C46.3595,7.94498 46.6152,8.12817 46.8452,8.38379C47.0753,8.63942 47.1903,9.05693 47.1903,9.63634C47.1903,9.96013 47.186,10.2797 47.1775,10.5949C47.169,10.9102 47.1562,11.2297 47.1392,11.5535Z" style="fill:white;"/>
        </g>
        <g>
            <path d="M66.2597,13.5729C66.2597,12.8401 66.3534,12.1414 66.5409,11.4768C66.7283,10.8122 67.001,10.2328 67.3589,9.73859C67.7167,9.24439 68.1598,8.84817 68.6881,8.54995C69.2164,8.25172 69.8128,8.10261 70.4775,8.10261C70.9717,8.10261 71.4488,8.2006 71.9089,8.39657C72.3691,8.59255 72.7781,8.90782 73.1359,9.34238C73.4938,9.77693 73.7835,10.3521 74.005,11.0678C74.2266,11.7836 74.3373,12.6697 74.3373,13.7263C74.3373,14.7488 74.2053,15.5881 73.9411,16.2442C73.677,16.9003 73.3447,17.4158 72.9442,17.7907C72.5437,18.1656 72.122,18.4212 71.6789,18.5575C71.2358,18.6939 70.8353,18.762 70.4775,18.762C69.6254,18.762 68.9267,18.549 68.3814,18.123C67.836,17.6969 67.4057,17.1985 67.0905,16.6276C66.7752,16.0567 66.5579,15.4816 66.4386,14.9021C66.3193,14.3227 66.2597,13.8797 66.2597,13.5729ZM64.4192,13.9819C64.4192,15.0385 64.5811,15.9672 64.9049,16.7682C65.2287,17.5691 65.6462,18.238 66.1574,18.7748C66.6687,19.3116 67.2481,19.7164 67.8957,19.989C68.5433,20.2617 69.1823,20.398 69.8128,20.398C70.6138,20.398 71.3849,20.2446 72.1262,19.9379C72.8675,19.6312 73.5279,19.1838 74.1073,18.5959C74.6867,18.008 75.1511,17.2794 75.5004,16.4103C75.8498,15.5412 76.0244,14.5443 76.0244,13.4195C76.0244,12.2437 75.8881,11.2255 75.6155,10.3649C75.3428,9.50427 74.9764,8.79705 74.5163,8.2432C74.0562,7.68935 73.5194,7.28036 72.9059,7.01622C72.2924,6.75207 71.6448,6.62 70.9631,6.62C69.7873,6.62 68.7861,6.8458 67.9596,7.2974C67.1331,7.749 66.4557,8.33267 65.9274,9.04841C65.3991,9.76415 65.0157,10.5566 64.7771,11.4257C64.5385,12.2948 64.4192,13.1469 64.4192,13.9819Z" style="fill:white;"/>
        </g>
        <g>
            <path d="M80.3445,19.9123C80.3445,20.0828 80.3615,20.2404 80.3956,20.3852C80.4297,20.5301 80.4723,20.6792 80.5234,20.8326C80.5575,20.9178 80.664,21.0073 80.8429,21.101C81.0219,21.1947 81.2264,21.2842 81.4564,21.3694C81.6865,21.4546 81.9208,21.5228 82.1594,21.5739C82.398,21.625 82.5939,21.6506 82.7473,21.6506C83.3608,21.6506 83.8593,21.4716 84.2427,21.1138C84.6261,20.7559 84.9329,20.3512 85.1629,19.8996C85.393,19.448 85.5506,19.0091 85.6358,18.5831C85.721,18.1571 85.7636,17.8759 85.7636,17.7396C85.7636,16.9897 85.6188,16.2016 85.3291,15.3751C85.0394,14.5485 84.7199,13.7476 84.3705,12.9722C84.0212,12.1968 83.7016,11.4726 83.4119,10.7994C83.1222,10.1263 82.9774,9.56817 82.9774,9.1251C82.9774,8.40936 83.2245,7.80864 83.7187,7.32296C84.2129,6.83728 85.0223,6.5774 86.1471,6.54332C86.6242,6.52627 86.9267,6.46663 87.0545,6.36438C87.1823,6.26213 87.2462,6.04059 87.2462,5.69976C87.2462,5.56343 87.161,5.4484 86.9906,5.35467C86.8202,5.26095 86.6242,5.18426 86.4027,5.12462C86.1812,5.06497 85.9554,5.02237 85.7253,4.9968C85.4952,4.97124 85.3206,4.95846 85.2013,4.95846C84.6559,4.95846 84.1319,5.1587 83.6292,5.55917C83.1265,5.95965 82.6834,6.43255 82.3,6.97787C81.9165,7.5232 81.6098,8.06427 81.3797,8.60107C81.1497,9.13788 81.0346,9.55113 81.0346,9.84084C81.0346,10.1646 81.1156,10.5566 81.2775,11.0167C81.4394,11.4768 81.6396,11.9668 81.8782,12.4865C82.1168,13.0063 82.3767,13.5431 82.6578,14.0969C82.939,14.6508 83.1989,15.1876 83.4375,15.7074C83.6761,16.2271 83.8763,16.7171 84.0382,17.1772C84.2001,17.6373 84.281,18.0378 84.281,18.3786C84.281,18.7535 84.1404,19.0986 83.8593,19.4139C83.5781,19.7291 83.2074,19.8868 82.7473,19.8868C82.2701,19.8868 81.8697,19.8058 81.5459,19.6439C81.2221,19.482 80.9409,19.4011 80.7023,19.4011C80.6171,19.4011 80.5362,19.4394 80.4595,19.5161C80.3828,19.5928 80.3445,19.7249 80.3445,19.9123Z" style="fill:white;"/>
        </g>
        <g>
            <path d="M90.2881,19.9123C90.2881,20.0828 90.3052,20.2404 90.3393,20.3852C90.3734,20.5301 90.416,20.6792 90.4671,20.8326C90.5012,20.9178 90.6077,21.0073 90.7866,21.101C90.9655,21.1947 91.17,21.2842 91.4001,21.3694C91.6302,21.4546 91.8645,21.5228 92.1031,21.5739C92.3416,21.625 92.5376,21.6506 92.691,21.6506C93.3045,21.6506 93.8029,21.4716 94.1864,21.1138C94.5698,20.7559 94.8766,20.3512 95.1066,19.8996C95.3367,19.448 95.4943,19.0091 95.5795,18.5831C95.6647,18.1571 95.7073,17.8759 95.7073,17.7396C95.7073,16.9897 95.5625,16.2016 95.2728,15.3751C94.9831,14.5485 94.6635,13.7476 94.3142,12.9722C93.9648,12.1968 93.6453,11.4726 93.3556,10.7994C93.0659,10.1263 92.9211,9.56817 92.9211,9.1251C92.9211,8.40936 93.1682,7.80864 93.6624,7.32296C94.1566,6.83728 94.966,6.5774 96.0908,6.54332C96.5679,6.52627 96.8704,6.46663 96.9982,6.36438C97.126,6.26213 97.1899,6.04059 97.1899,5.69976C97.1899,5.56343 97.1047,5.4484 96.9343,5.35467C96.7639,5.26095 96.5679,5.18426 96.3464,5.12462C96.1248,5.06497 95.899,5.02237 95.669,4.9968C95.4389,4.97124 95.2643,4.95846 95.145,4.95846C94.5996,4.95846 94.0756,5.1587 93.5729,5.55917C93.0702,5.95965 92.6271,6.43255 92.2437,6.97787C91.8602,7.5232 91.5535,8.06427 91.3234,8.60107C91.0934,9.13788 90.9783,9.55113 90.9783,9.84084C90.9783,10.1646 91.0593,10.5566 91.2212,11.0167C91.3831,11.4768 91.5833,11.9668 91.8219,12.4865C92.0605,13.0063 92.3203,13.5431 92.6015,14.0969C92.8827,14.6508 93.1426,15.1876 93.3812,15.7074C93.6198,16.2271 93.82,16.7171 93.9819,17.1772C94.1438,17.6373 94.2247,18.0378 94.2247,18.3786C94.2247,18.7535 94.0841,19.0986 93.8029,19.4139C93.5218,19.7291 93.1511,19.8868 92.691,19.8868C92.2138,19.8868 91.8134,19.8058 91.4896,19.6439C91.1658,19.482 90.8846,19.4011 90.646,19.4011C90.5608,19.4011 90.4799,19.4394 90.4032,19.5161C90.3265,19.5928 90.2881,19.7249 90.2881,19.9123Z" style="fill:white;"/>
        </g>
        <g>
            <path d="M102.251,13.5729C102.251,12.8401 102.345,12.1414 102.532,11.4768C102.72,10.8122 102.993,10.2328 103.35,9.73859C103.708,9.24439 104.151,8.84817 104.68,8.54995C105.208,8.25172 105.804,8.10261 106.469,8.10261C106.963,8.10261 107.44,8.2006 107.9,8.39657C108.361,8.59255 108.77,8.90782 109.127,9.34238C109.485,9.77693 109.775,10.3521 109.997,11.0678C110.218,11.7836 110.329,12.6697 110.329,13.7263C110.329,14.7488 110.197,15.5881 109.933,16.2442C109.669,16.9003 109.336,17.4158 108.936,17.7907C108.535,18.1656 108.114,18.4212 107.67,18.5575C107.227,18.6939 106.827,18.762 106.469,18.762C105.617,18.762 104.918,18.549 104.373,18.123C103.828,17.6969 103.397,17.1985 103.082,16.6276C102.767,16.0567 102.549,15.4816 102.43,14.9021C102.311,14.3227 102.251,13.8797 102.251,13.5729ZM100.411,13.9819C100.411,15.0385 100.573,15.9672 100.896,16.7682C101.22,17.5691 101.638,18.238 102.149,18.7748C102.66,19.3116 103.24,19.7164 103.887,19.989C104.535,20.2617 105.174,20.398 105.804,20.398C106.605,20.398 107.376,20.2446 108.118,19.9379C108.859,19.6312 109.519,19.1838 110.099,18.5959C110.678,18.008 111.143,17.2794 111.492,16.4103C111.841,15.5412 112.016,14.5443 112.016,13.4195C112.016,12.2437 111.88,11.2255 111.607,10.3649C111.334,9.50427 110.968,8.79705 110.508,8.2432C110.048,7.68935 109.511,7.28036 108.897,7.01622C108.284,6.75207 107.636,6.62 106.955,6.62C105.779,6.62 104.778,6.8458 103.951,7.2974C103.125,7.749 102.447,8.33267 101.919,9.04841C101.391,9.76415 101.007,10.5566 100.769,11.4257C100.53,12.2948 100.411,13.1469 100.411,13.9819Z" style="fill:white;"/>
        </g>
        <g>
            <path d="M116.336,19.9123C116.336,20.0828 116.353,20.2404 116.387,20.3852C116.421,20.5301 116.464,20.6792 116.515,20.8326C116.549,20.9178 116.656,21.0073 116.834,21.101C117.013,21.1947 117.218,21.2842 117.448,21.3694C117.678,21.4546 117.912,21.5228 118.151,21.5739C118.39,21.625 118.585,21.6506 118.739,21.6506C119.352,21.6506 119.851,21.4716 120.234,21.1138C120.618,20.7559 120.924,20.3512 121.154,19.8996C121.385,19.448 121.542,19.0091 121.627,18.5831C121.713,18.1571 121.755,17.8759 121.755,17.7396C121.755,16.9897 121.61,16.2016 121.321,15.3751C121.031,14.5485 120.711,13.7476 120.362,12.9722C120.013,12.1968 119.693,11.4726 119.403,10.7994C119.114,10.1263 118.969,9.56817 118.969,9.1251C118.969,8.40936 119.216,7.80864 119.71,7.32296C120.204,6.83728 121.014,6.5774 122.139,6.54332C122.616,6.52627 122.918,6.46663 123.046,6.36438C123.174,6.26213 123.238,6.04059 123.238,5.69976C123.238,5.56343 123.153,5.4484 122.982,5.35467C122.812,5.26095 122.616,5.18426 122.394,5.12462C122.173,5.06497 121.947,5.02237 121.717,4.9968C121.487,4.97124 121.312,4.95846 121.193,4.95846C120.647,4.95846 120.123,5.1587 119.621,5.55917C119.118,5.95965 118.675,6.43255 118.292,6.97787C117.908,7.5232 117.601,8.06427 117.371,8.60107C117.141,9.13788 117.026,9.55113 117.026,9.84084C117.026,10.1646 117.107,10.5566 117.269,11.0167C117.431,11.4768 117.631,11.9668 117.87,12.4865C118.108,13.0063 118.368,13.5431 118.649,14.0969C118.931,14.6508 119.19,15.1876 119.429,15.7074C119.668,16.2271 119.868,16.7171 120.03,17.1772C120.192,17.6373 120.273,18.0378 120.273,18.3786C120.273,18.7535 120.132,19.0986 119.851,19.4139C119.57,19.7291 119.199,19.8868 118.739,19.8868C118.262,19.8868 117.861,19.8058 117.537,19.6439C117.214,19.482 116.932,19.4011 116.694,19.4011C116.609,19.4011 116.528,19.4394 116.451,19.5161C116.374,19.5928 116.336,19.7249 116.336,19.9123Z" style="fill:white;"/>
        </g>
    </g>
</svg>
